<?xml version="1.0" standalone="no"?>
<!DOCTYPE svg PUBLIC "-//W3C//DTD SVG 1.1//EN" "http://www.w3.org/Graphics/SVG/1.1/DTD/svg11.dtd" >
<svg xmlns="http://www.w3.org/2000/svg">
<metadata></metadata>
<defs>
<font id="din_otcondensed_bold_italic" horiz-adv-x="765" >
<font-face units-per-em="2048" ascent="1565" descent="-483" />
<missing-glyph horiz-adv-x="346" />
<glyph horiz-adv-x="0" />
<glyph horiz-adv-x="0" />
<glyph horiz-adv-x="682" />
<glyph unicode="&#xd;" horiz-adv-x="346" />
<glyph unicode=" "  horiz-adv-x="346" />
<glyph unicode="&#x09;" horiz-adv-x="346" />
<glyph unicode="&#xa0;" horiz-adv-x="346" />
<glyph unicode="!" horiz-adv-x="497" d="M47 0l49 250h236l-49 -250h-236zM150 406l188 1052h233l-217 -1052h-204z" />
<glyph unicode="&#x22;" horiz-adv-x="845" d="M242 1049l82 409h196l-82 -409h-196zM610 1049l82 409h197l-82 -409h-197z" />
<glyph unicode="#" horiz-adv-x="1177" d="M53 0l146 420h-131l38 192h162l94 269h-145l39 194h172l133 383h217l-135 -383h209l135 383h215l-135 -383h125l-39 -194h-154l-92 -269h137l-38 -192h-168l-146 -420h-215l146 420h-211l-144 -420h-215zM483 612h207l92 269h-207z" />
<glyph unicode="$" horiz-adv-x="856" d="M25 250q0 53 16 147h217q-12 -64 -12 -102q0 -53 24 -80q29 -37 88 -37q67 0 111 41q28 27 42.5 60t29.5 106q14 66 14 129q0 82 -98 127l-135 66q-83 40 -117.5 94.5t-34.5 134.5q0 84 16 160q39 192 129 278q78 78 189 94l37 183h194l-39 -191q68 -18 127 -74 q26 -26 42 -72.5t16 -103.5q0 -58 -15 -147h-217q13 61 13 106q0 51 -23 80q-23 31 -74 31q-59 0 -96 -37q-46 -44 -66 -147q-10 -52 -10 -99q0 -77 80 -116l117 -56q105 -51 146.5 -106.5t41.5 -143.5q0 -89 -20 -192q-24 -122 -53.5 -188t-77.5 -113q-82 -79 -207 -90 l-43 -225h-195l45 229q-81 16 -137 76q-65 68 -65 178z" />
<glyph unicode="%" horiz-adv-x="1421" d="M168 897q0 30 8 66l53 266q27 132 97 189t182 57q101 0 159 -53t58 -134q0 -29 -8 -65l-53 -267q-26 -131 -93.5 -188t-185.5 -57q-101 0 -159 52.5t-58 133.5zM283 0l774 1458h160l-777 -1458h-157zM332 911q0 -63 69 -63q78 0 97 100l55 273q8 36 8 53q0 63 -69 63 q-78 0 -97 -100l-55 -272q-8 -40 -8 -54zM772 170q0 30 8 66l54 266q27 132 96.5 189t181.5 57q101 0 159 -53t58 -134q0 -29 -8 -65l-53 -267q-26 -131 -93.5 -188t-185.5 -57q-101 0 -159 52.5t-58 133.5zM936 184q0 -63 70 -63q77 0 96 100l55 273q8 36 8 53q0 63 -69 63 q-78 0 -97 -100l-55 -272q-8 -40 -8 -54z" />
<glyph unicode="&#x26;" horiz-adv-x="966" d="M18 281q0 155 76 275.5t225 240.5q-92 220 -92 323q0 156 86 254.5t238 98.5q125 0 192.5 -75t67.5 -194q0 -86 -31.5 -160.5t-78.5 -130t-128 -127.5l-26 -24l112 -273q65 104 109 277h176q-29 -124 -85.5 -253.5t-119.5 -219.5l119 -293h-213l-53 125 q-138 -141 -299 -141q-136 0 -205.5 83.5t-69.5 213.5zM219 324q0 -70 30.5 -108t84.5 -38q88 0 190 119l-135 326q-170 -155 -170 -299zM428 1128q0 -79 49 -194l27 22q117 105 117 226q0 102 -82 102q-49 0 -80 -46t-31 -110z" />
<glyph unicode="'" horiz-adv-x="475" d="M242 1049l82 409h196l-82 -409h-196z" />
<glyph unicode="(" horiz-adv-x="516" d="M20 111q0 58 17 143l190 960q19 94 38 147.5t59 111.5q51 75 182 178l115 -150q-60 -54 -85 -78.5t-44 -52.5q-44 -63 -62 -168l-190 -958q-15 -76 -15 -109q0 -48 21 -90t69 -104l-157 -131q-76 97 -107 165.5t-31 135.5z" />
<glyph unicode=")" horiz-adv-x="512" d="M-29 -41q60 54 85 78.5t44 52.5q44 63 62 168l190 959q15 77 15 108q0 48 -21.5 90t-69.5 105l158 131q75 -97 106 -165.5t31 -135.5q0 -64 -16 -144l-190 -960q-19 -94 -38 -147t-59 -111q-51 -75 -182 -178z" />
<glyph unicode="*" horiz-adv-x="804" d="M145 1028l248 78l-196 168l94 104l180 -176l43 254l135 -24l-57 -252l235 92l52 -129l-248 -78l196 -168l-94 -102l-180 174l-43 -252l-135 24l57 250l-237 -92z" />
<glyph unicode="+" horiz-adv-x="886" d="M78 494l39 194h258l55 281h197l-54 -281h258l-38 -194h-258l-58 -281h-196l55 281h-258z" />
<glyph unicode="," horiz-adv-x="442" d="M-59 -305l112 557h223l-77 -383z" />
<glyph unicode="-" horiz-adv-x="563" d="M78 494l39 194h391l-39 -194h-391z" />
<glyph unicode="." horiz-adv-x="452" d="M2 0l49 250h236l-49 -250h-236z" />
<glyph unicode="/" horiz-adv-x="583" d="M-127 -152l713 1762h192l-715 -1762h-190z" />
<glyph unicode="0" horiz-adv-x="776" d="M29 229q0 45 12 103l164 815q31 173 125 252q91 76 229 76q141 0 205 -74q35 -39 48 -78.5t13 -93.5q0 -45 -12 -103l-162 -815q-36 -176 -127 -252q-87 -75 -227 -75q-141 0 -207 73q-61 64 -61 172zM236 252q0 -40 22.5 -63t60.5 -23q43 0 77 32.5t48 104.5l168 842 q6 35 6 61q0 40 -22.5 63t-60.5 23q-43 0 -77 -32.5t-48 -104.5l-168 -842q-6 -35 -6 -61z" />
<glyph unicode="1" horiz-adv-x="776" d="M227 1030l52 252l241 176h205l-291 -1458h-205l240 1206z" />
<glyph unicode="2" horiz-adv-x="776" d="M-16 0l32 172l484 719q116 175 116 307q0 94 -77 94q-94 0 -121 -137l-17 -88h-204l14 82q35 186 137 262q85 64 207 64q144 0 211 -84q57 -69 57 -181q0 -166 -157 -397l-428 -631h393l-35 -182h-612z" />
<glyph unicode="3" horiz-adv-x="776" d="M27 225q0 57 10 111l12 59h205l-12 -67q-9 -52 -9 -66q0 -46 22 -71t60 -25q47 0 80 33q23 25 37.5 67t36.5 150q27 138 27 178t-21 64t-61 24h-68l37 180h57q46 0 72 29q25 26 36.5 59t31.5 125q20 94 20 139q0 35 -18 56.5t-54 21.5q-42 0 -72.5 -31t-43.5 -96 l-21 -102h-205l19 88q18 95 47.5 155t85.5 105q84 64 211 64q144 0 207 -80q49 -65 49 -154q0 -65 -19 -162q-20 -94 -36.5 -142t-44.5 -83q-38 -50 -93 -80q88 -53 88 -172q0 -52 -26 -186q-32 -160 -58.5 -228.5t-80.5 -121.5q-82 -82 -238 -82q-68 0 -127 22.5t-92 63.5 q-51 64 -51 155z" />
<glyph unicode="4" horiz-adv-x="776" d="M-20 227l36 183l564 1048h204l-551 -1048h173l53 268h205l-54 -268h95l-37 -183h-95l-45 -227h-204l45 227h-389z" />
<glyph unicode="5" horiz-adv-x="776" d="M27 225q0 49 12 107l10 49h205l-10 -49q-8 -39 -8 -70q0 -44 21 -70t60 -26q45 0 82 37q24 26 42.5 81.5t43.5 188.5q33 175 33 217q0 43 -19.5 69.5t-60.5 26.5q-45 0 -81.5 -36t-49.5 -99l-6 -33h-195l170 840h592l-37 -182h-407l-76 -387q29 33 74 55q52 25 110 25 q96 0 148 -62q47 -56 47 -145q0 -98 -37 -289q-40 -198 -68.5 -274.5t-82.5 -130.5q-84 -84 -242 -84q-148 0 -217 84q-53 67 -53 157z" />
<glyph unicode="6" horiz-adv-x="776" d="M31 242q0 73 26 200q40 204 119 344l375 672h221l-342 -588q33 23 84 23q96 0 146.5 -63.5t50.5 -159.5q0 -67 -31 -228q-30 -157 -57 -228.5t-72 -119.5q-51 -56 -112.5 -83t-147.5 -27q-137 0 -207 86q-53 70 -53 172zM236 262q0 -96 77 -96q48 0 82 37q26 29 42 79 t40 164q25 132 25 181q0 40 -19 65t-59 25q-48 0 -82 -37q-43 -47 -80 -234q-26 -127 -26 -184z" />
<glyph unicode="7" horiz-adv-x="776" d="M47 0l606 1276h-245l-41 -199h-191l76 381h647l-35 -170l-606 -1288h-211z" />
<glyph unicode="8" horiz-adv-x="776" d="M29 227q0 83 22 185q25 122 42.5 176t45.5 92q37 51 105 96q-31 31 -45 58q-21 44 -21 102q0 64 17 145q26 131 55 199.5t76 112.5q82 82 225 82q148 0 215 -82q49 -62 49 -154q0 -81 -18 -174q-32 -157 -76 -219q-43 -59 -98 -96q29 -26 47 -56q26 -48 26 -108 q0 -67 -22 -174q-32 -164 -57 -227t-76 -113q-91 -88 -242 -88q-70 0 -128 22.5t-91 63.5q-51 67 -51 157zM233 262q0 -45 21 -69q24 -27 63 -27q45 0 80 35q23 25 37.5 67.5t36.5 149.5q25 134 25 160q0 45 -21 69q-24 27 -63 27q-45 0 -80 -35q-23 -25 -38.5 -70 t-37.5 -151q-23 -124 -23 -156zM377 942q0 -42 20 -65q19 -25 56 -25q42 0 71 33q38 41 68 188q20 113 20 129q0 43 -20 66q-18 24 -55 24q-44 0 -72 -32q-38 -41 -68 -187q-20 -113 -20 -131z" />
<glyph unicode="9" horiz-adv-x="776" d="M80 0l342 588q-33 -23 -84 -23q-96 0 -146.5 63.5t-50.5 159.5q0 67 31 228q30 157 57 228.5t72 119.5q52 56 113 83.5t147 27.5q137 0 207 -86q53 -70 53 -172q0 -74 -26 -201q-40 -204 -119 -344l-375 -672h-221zM350 831q0 -40 19 -65t59 -25q48 0 82 37q43 47 80 234 q26 127 26 184q0 96 -77 96q-48 0 -82 -37q-26 -29 -42 -79t-40 -164q-25 -132 -25 -181z" />
<glyph unicode=":" horiz-adv-x="497" d="M47 0l49 250h236l-49 -250h-236zM174 643l49 250h236l-49 -250h-236z" />
<glyph unicode=";" horiz-adv-x="497" d="M-8 -305l112 557h224l-78 -383zM174 641l49 250h236l-49 -250h-236z" />
<glyph unicode="&#x3c;" horiz-adv-x="776" d="M63 522l31 158l725 397l-51 -252l-444 -239l350 -242l-45 -221z" />
<glyph unicode="=" horiz-adv-x="886" d="M41 307l39 195h715l-39 -195h-715zM115 668l39 194h712l-39 -194h-712z" />
<glyph unicode="&#x3e;" horiz-adv-x="776" d="M-16 111l51 251l444 240l-350 242l45 221l565 -399l-30 -158z" />
<glyph unicode="?" horiz-adv-x="825" d="M213 0l49 250h236l-49 -250h-236zM219 1085q25 120 55.5 190t83.5 114q93 81 244 81q162 0 234 -94q49 -67 49 -164q0 -60 -15 -139q-20 -93 -48 -151.5t-77 -112.5l-137 -152q-61 -66 -73 -131l-25 -120h-205l29 145q10 51 32 93.5t74 98.5l140 156q41 45 59 83.5 t29 96.5q12 74 12 103q0 50 -25 75q-28 31 -73 31q-50 0 -93 -37q-42 -40 -67 -166h-203z" />
<glyph unicode="@" horiz-adv-x="1177" d="M25 160q0 47 12 108l170 854q37 180 133 258q93 78 260 78h295q182 0 250 -88q53 -66 53 -160q0 -46 -12 -108l-219 -1102h-191l12 74q-39 -42 -73 -60q-51 -30 -123 -30q-106 0 -162 86q-31 51 -31 110q0 55 13 121l77 387q32 158 105 234q82 82 201 82q55 0 100 -31 q34 -21 53 -62l37 174q6 33 6 74q0 117 -121 117h-264q-172 0 -211 -184l-162 -816q-6 -30 -6 -61q0 -49 35 -96l-170 -144q-67 82 -67 185zM612 252q0 -41 21 -63.5t55 -22.5q48 0 86.5 34t50.5 93l78 401q6 24 6 43q0 37 -24.5 60.5t-61.5 23.5q-45 0 -80.5 -32.5 t-46.5 -94.5l-80 -401q-4 -24 -4 -41z" />
<glyph unicode="A" horiz-adv-x="907" d="M-96 0l628 1458h213l46 -1458h-218l2 295h-321l-119 -295h-231zM332 489h241l5 635z" />
<glyph unicode="B" horiz-adv-x="913" d="M8 0l291 1458h324q91 0 148.5 -20t94.5 -68q54 -69 54 -174q0 -56 -17 -137q-20 -97 -42 -149.5t-73 -98.5q-37 -34 -81 -51q38 -14 65 -53q41 -56 41 -138q0 -72 -16 -151q-27 -135 -61 -210t-87 -124q-54 -48 -120 -66t-175 -18h-346zM264 195h107q93 0 139 50.5 t72 180.5q12 64 12 109q0 69 -32 101t-101 32h-103zM395 852h92q85 0 131 48t68 155q12 53 12 94q0 59 -27.5 87t-95.5 28h-98z" />
<glyph unicode="C" horiz-adv-x="866" d="M55 301q0 112 62 428q46 224 79 346t65.5 186t80.5 111q103 103 270 103q163 0 242 -97q61 -77 61 -204q0 -58 -6 -95h-217q6 31 6 82q0 119 -102 119q-64 0 -104 -43q-43 -44 -72.5 -140.5t-85.5 -367.5q-62 -312 -62 -426q0 -125 105 -125q69 0 112 53q47 56 68 150 h219q-24 -112 -61 -185t-99 -128q-96 -84 -260 -84q-178 0 -252 116q-27 44 -38 89t-11 112z" />
<glyph unicode="D" horiz-adv-x="915" d="M8 0l291 1458h342q94 0 151 -29.5t97 -91.5q49 -79 49 -196q0 -83 -66 -410q-63 -313 -103.5 -435.5t-109.5 -189.5q-57 -55 -125.5 -80.5t-162.5 -25.5h-363zM264 195h123q82 0 129 57q37 46 66 153t73 326q66 310 66 410q0 56 -29 88q-27 35 -86 35h-129z" />
<glyph unicode="E" horiz-adv-x="768" d="M8 0l291 1458h582l-39 -194h-365l-86 -433h314l-39 -192h-314l-88 -444h365l-39 -195h-582z" />
<glyph unicode="F" horiz-adv-x="753" d="M8 0l291 1458h582l-39 -194h-365l-86 -433h314l-39 -194h-314l-127 -637h-217z" />
<glyph unicode="G" horiz-adv-x="882" d="M55 301q0 112 62 428q46 224 79 346t65.5 186t80.5 111q103 103 270 103q163 0 242 -97q61 -77 61 -204q0 -58 -6 -95h-217q6 31 6 82q0 119 -102 119q-64 0 -104 -43q-43 -44 -72.5 -140.5t-85.5 -367.5q-62 -312 -62 -426q0 -125 103 -125q136 0 176 195l49 243h-133 l33 177h350l-80 -404q-41 -209 -143 -307t-275 -98q-174 0 -248 116q-27 44 -38 89t-11 112z" />
<glyph unicode="H" horiz-adv-x="935" d="M8 0l291 1458h217l-123 -620h271l124 620h218l-291 -1458h-217l129 645h-273l-129 -645h-217z" />
<glyph unicode="I" horiz-adv-x="448" d="M8 0l291 1458h217l-291 -1458h-217z" />
<glyph unicode="J" horiz-adv-x="755" d="M-61 119l165 123q47 -64 115 -64q140 0 184 211l213 1069h218l-216 -1075q-41 -211 -133 -297q-110 -102 -272 -102q-193 0 -274 135z" />
<glyph unicode="K" horiz-adv-x="909" d="M8 0l291 1458h217l-129 -647l414 647h237l-399 -604l152 -854h-220l-106 618l-166 -243l-74 -375h-217z" />
<glyph unicode="L" horiz-adv-x="741" d="M8 0l291 1458h217l-252 -1263h365l-39 -195h-582z" />
<glyph unicode="M" horiz-adv-x="1155" d="M8 0l291 1458h197l114 -753l418 753h197l-291 -1458h-217l180 905l-303 -579h-121l-65 583l-183 -909h-217z" />
<glyph unicode="N" horiz-adv-x="944" d="M8 0l291 1458h182l148 -883l168 883h217l-291 -1458h-174l-148 883l-176 -883h-217z" />
<glyph unicode="O" horiz-adv-x="894" d="M55 299q0 114 62 430q69 332 111.5 454t113.5 191q54 53 118.5 77t151.5 24q184 0 256 -121q28 -43 39 -86.5t11 -108.5q0 -119 -64 -430q-67 -332 -110 -454t-115 -191q-100 -100 -269 -100q-187 0 -258 120q-26 42 -36.5 86t-10.5 109zM270 305q0 -127 109 -127 q59 0 102 43q40 40 71 141t85 367q63 313 63 424q0 127 -108 127q-60 0 -103 -43q-40 -40 -70.5 -140t-84.5 -368q-64 -318 -64 -424z" />
<glyph unicode="P" horiz-adv-x="888" d="M8 0l291 1458h330q85 0 140 -18t95 -58q68 -68 68 -198q0 -76 -17 -170q-27 -132 -66 -220t-94 -137t-119 -68.5t-151 -19.5h-147l-113 -569h-217zM377 764h119q84 0 129 56t73 194q17 87 17 127q0 63 -29 93t-96 30h-113z" />
<glyph unicode="Q" horiz-adv-x="894" d="M55 299q0 129 62 430q46 227 78.5 347.5t65 185t81.5 112.5q54 53 118.5 77t151.5 24q184 0 256 -121q28 -43 39 -86.5t11 -108.5q0 -119 -64 -430q-54 -264 -88.5 -383.5t-77.5 -185.5l86 -90l-115 -117l-84 86q-88 -55 -215 -55q-187 0 -258 120q-26 42 -36.5 86 t-10.5 109zM272 305q0 -127 109 -127q34 0 61 15l-69 75l106 109l56 -60q35 78 102 412q63 313 63 424q0 127 -108 127q-60 0 -103 -43q-40 -40 -70.5 -140t-84.5 -368q-62 -308 -62 -424z" />
<glyph unicode="R" horiz-adv-x="925" d="M8 0l291 1458h342q152 0 223.5 -70t71.5 -194q0 -72 -18 -166q-25 -124 -59.5 -201.5t-75.5 -116.5t-105 -67l78 -643h-217l-66 604h-127l-121 -604h-217zM383 793h131q76 0 119.5 59t66.5 176q15 81 15 117q0 59 -26 89t-89 30h-123z" />
<glyph unicode="S" horiz-adv-x="856" d="M25 250q0 53 16 147h217q-12 -64 -12 -102q0 -53 24 -80q29 -37 88 -37q67 0 111 41q28 27 42.5 60t29.5 106q14 66 14 129q0 82 -98 127l-135 66q-83 40 -117.5 94.5t-34.5 134.5q0 84 16 160q39 192 129 278q101 101 265 101q88 0 142.5 -21.5t100.5 -67.5 q26 -26 42 -72.5t16 -103.5q0 -58 -15 -147h-217q13 61 13 106q0 51 -23 80q-23 31 -74 31q-59 0 -96 -37q-46 -44 -66 -147q-10 -52 -10 -99q0 -77 80 -116l117 -56q105 -51 146.5 -106.5t41.5 -143.5q0 -89 -20 -192q-24 -122 -53.5 -188t-77.5 -113q-52 -50 -119.5 -73 t-167.5 -23q-170 0 -250 86q-65 68 -65 178z" />
<glyph unicode="T" horiz-adv-x="759" d="M166 0l252 1264h-232l39 194h680l-39 -194h-231l-252 -1264h-217z" />
<glyph unicode="U" horiz-adv-x="913" d="M61 270q0 56 11 105l217 1083h217l-221 -1102q-6 -30 -6 -63q0 -56 28 -85.5t82 -29.5q61 0 106 44t60 122l221 1114h217l-221 -1116q-36 -174 -141 -268q-100 -90 -271 -90q-147 0 -229 88q-70 73 -70 198z" />
<glyph unicode="V" horiz-adv-x="847" d="M193 1458h237l-45 -1112l401 1112h238l-594 -1458h-225z" />
<glyph unicode="W" horiz-adv-x="1396" d="M158 0l41 1458h229l-74 -1120l410 1120h237l-20 -1120l356 1120h230l-527 -1458h-243l16 1108l-412 -1108h-243z" />
<glyph unicode="X" horiz-adv-x="835" d="M-78 0l410 764l-111 694h234l45 -479l231 479h246l-399 -708l129 -750h-236l-61 518l-242 -518h-246z" />
<glyph unicode="Y" horiz-adv-x="753" d="M162 0l114 582l-83 876h225l22 -590l250 590h238l-439 -897l-110 -561h-217z" />
<glyph unicode="Z" horiz-adv-x="722" d="M-47 0l31 158l596 1106h-357l39 194h588l-33 -158l-594 -1105h379l-39 -195h-610z" />
<glyph unicode="[" horiz-adv-x="544" d="M-35 -152l352 1762h388l-37 -183h-181l-278 -1396h180l-37 -183h-387z" />
<glyph unicode="\" horiz-adv-x="587" d="M215 1610h201l35 -1762h-201z" />
<glyph unicode="]" horiz-adv-x="544" d="M-84 -152l37 183h180l279 1396h-181l37 183h387l-352 -1762h-387z" />
<glyph unicode="^" horiz-adv-x="884" d="M156 889l385 579h180l153 -579h-186l-90 371l-233 -371h-209z" />
<glyph unicode="_" horiz-adv-x="886" d="M-168 -313l31 157h885l-31 -157h-885z" />
<glyph unicode="`" d="M342 1481h168l84 -283h-145z" />
<glyph unicode="a" horiz-adv-x="770" d="M-4 217q0 39 12 107q14 71 51 135t88 104q46 37 101 52.5t141 15.5h103l26 139q8 36 8 59q0 39 -20.5 61.5t-59.5 22.5q-43 0 -75 -28q-36 -36 -49 -109h-205q34 165 125 244q82 76 227 76q153 0 215 -82q47 -58 47 -162q0 -46 -12 -104l-148 -748h-194l18 90 q-34 -46 -76 -72q-50 -34 -118 -34q-118 0 -172 92q-33 50 -33 141zM207 264q0 -46 22 -72t64 -26q51 0 87 42t48 109l35 168h-66q-46 0 -69.5 -7t-48.5 -27q-32 -27 -52 -80.5t-20 -106.5z" />
<glyph unicode="b" horiz-adv-x="788" d="M-6 0l291 1458h204l-88 -444q35 38 64 53q56 29 106 29q119 0 166 -84q33 -54 33 -142q0 -104 -47 -329q-46 -234 -79.5 -332t-80.5 -143q-85 -82 -196 -82q-65 0 -105 32q-38 27 -55 66l-17 -82h-196zM254 252q0 -41 22 -66q17 -20 58 -20q43 0 78 35q30 28 53.5 110.5 t52.5 229.5q43 215 43 276q0 50 -20 70q-23 26 -58 26q-44 0 -75 -28q-43 -43 -56 -113l-92 -465q-6 -35 -6 -55z" />
<glyph unicode="c" horiz-adv-x="743" d="M27 250q0 76 43 291q40 201 74 298t85 156q91 101 252 101q165 0 224 -109q34 -58 34 -147q0 -43 -6 -74h-201q5 34 5 59q0 42 -21 66q-19 22 -57 22q-52 0 -88 -45q-27 -34 -45.5 -101.5t-51.5 -225.5q-45 -221 -45 -283q0 -49 25 -74q21 -18 55 -18q43 0 76 29 q36 34 57 118h203q-36 -151 -104 -229q-90 -100 -254 -100q-155 0 -219 102q-41 65 -41 164z" />
<glyph unicode="d" horiz-adv-x="788" d="M20 209q0 99 48 332q46 231 79.5 329t79.5 144q85 82 199 82q62 0 102 -31q36 -29 52 -55l88 448h204l-290 -1458h-197l14 78q-12 -17 -34 -37t-39 -29q-51 -28 -107 -28q-117 0 -166 84q-33 62 -33 141zM231 262q0 -47 19 -69q21 -27 59 -27q47 0 76 29q39 39 53 112 l92 465q7 40 7 55q0 41 -21 66q-17 20 -57 20q-46 0 -80 -34q-30 -28 -54 -111t-53 -227q-41 -208 -41 -279z" />
<glyph unicode="e" horiz-adv-x="761" d="M29 250q0 86 41 291q42 204 75.5 300t83.5 154q87 101 256 101q146 0 209 -92q41 -59 41 -168t-49 -357h-424q-33 -165 -33 -221q0 -44 23 -70q19 -22 57 -22q47 0 76 29q37 34 57 118h205q-20 -83 -44.5 -135.5t-63.5 -95.5q-89 -98 -252 -98q-164 0 -226 112 q-32 55 -32 154zM293 635h219q27 126 27 184q0 94 -80 94q-52 0 -86 -43q-24 -29 -41 -82t-39 -153z" />
<glyph unicode="f" horiz-adv-x="524" d="M33 0l178 895h-102l30 154h105l18 94q20 95 54.5 159t93.5 105q50 36 107.5 49.5t158.5 13.5l-37 -182q-76 0 -118.5 -39.5t-57.5 -118.5l-14 -81h141l-31 -154h-143l-178 -895h-205z" />
<glyph unicode="g" horiz-adv-x="788" d="M-51 -145q0 40 6 73h203q-4 -25 -4 -53q0 -37 21.5 -59.5t60.5 -22.5q45 0 79 31q21 19 32 49t24 92l28 152q-25 -31 -63 -54q-54 -28 -109 -28q-115 0 -164 84q-32 55 -32 141q0 93 43 305q45 222 76.5 313t76.5 136q85 82 197 82q62 0 104 -31q38 -27 56 -68l16 82h197 l-222 -1110q-22 -111 -51.5 -176t-79.5 -108q-87 -76 -233 -76q-121 0 -191.5 66.5t-70.5 179.5zM242 313q0 -46 20 -69q24 -27 62 -27q42 0 73 31q38 35 52 110l81 414q7 40 7 55q0 40 -21 64q-22 22 -57 22q-46 0 -80 -34q-29 -27 -50 -97.5t-50 -216.5q-37 -182 -37 -252 z" />
<glyph unicode="h" horiz-adv-x="808" d="M-6 0l291 1458h204l-90 -446q40 40 70 57q52 27 106 27q69 0 107 -23t63 -63q31 -53 31 -129q0 -29 -16 -115l-152 -766h-205l152 764q8 41 8 65q0 37 -21.5 60.5t-60.5 23.5q-102 0 -131 -149l-151 -764h-205z" />
<glyph unicode="i" horiz-adv-x="405" d="M-6 0l209 1049h205l-209 -1049h-205zM231 1219l45 221h216l-46 -221h-215z" />
<glyph unicode="j" horiz-adv-x="405" d="M-223 -379l37 182q74 0 114 40t58 122l217 1084h205l-220 -1102q-19 -96 -53.5 -160t-93.5 -104q-54 -37 -110 -49.5t-154 -12.5zM231 1219l45 221h216l-46 -221h-215z" />
<glyph unicode="k" horiz-adv-x="817" d="M-6 0l291 1458h204l-163 -825l338 446h229l-344 -440l137 -639h-205l-98 463l-125 -160l-59 -303h-205z" />
<glyph unicode="l" horiz-adv-x="471" d="M45 238q0 53 8 92l226 1128h204l-221 -1114q-6 -31 -6 -65q0 -45 28 -71t83 -26l-35 -182q-154 0 -226 72q-61 61 -61 166z" />
<glyph unicode="m" horiz-adv-x="1216" d="M-6 0l215 1079h197l-17 -78q45 49 80 68q49 27 109 27q75 0 115.5 -29.5t64.5 -81.5q44 49 108 84q56 27 119 27q118 0 168 -86q31 -48 31 -129q0 -21 -17 -115l-151 -766h-205l152 764q8 41 8 65q0 37 -21 60.5t-59 23.5q-102 0 -131 -149l-152 -764h-205l152 764 q8 41 8 65q0 37 -21 60.5t-59 23.5q-103 0 -133 -149l-151 -764h-205z" />
<glyph unicode="n" horiz-adv-x="808" d="M-6 0l215 1079h197l-17 -78q45 49 80 68q52 27 106 27q69 0 107 -23t63 -63q31 -53 31 -129q0 -27 -16 -115l-152 -766h-205l152 764q8 41 8 65q0 37 -21.5 60.5t-60.5 23.5q-101 0 -131 -149l-151 -764h-205z" />
<glyph unicode="o" d="M29 252q0 84 41 289q43 210 75.5 302.5t85.5 151.5q88 101 250 101q164 0 224 -111q34 -58 34 -156q0 -86 -41 -288q-42 -209 -75.5 -303.5t-85.5 -153.5q-87 -100 -250 -100q-166 0 -226 110q-32 60 -32 158zM231 260q0 -48 19 -70q21 -24 59 -24q52 0 86 43 q27 35 48 110t51 222q43 208 43 278q0 48 -19 70q-21 24 -59 24q-52 0 -86 -43q-27 -36 -48 -110t-51 -219q-43 -208 -43 -281z" />
<glyph unicode="p" horiz-adv-x="788" d="M-82 -379l291 1458h197l-15 -78q12 17 34.5 37t39.5 29q56 29 106 29q119 0 166 -84q33 -54 33 -142q0 -100 -47 -329q-49 -240 -81.5 -335t-78.5 -140q-85 -82 -196 -82q-66 0 -105 30q-34 27 -49 56l-90 -449h-205zM254 252q0 -41 22 -66q17 -20 58 -20q43 0 78 35 q30 28 53.5 110.5t52.5 229.5q43 201 43 276q0 50 -20 70q-23 26 -58 26q-44 0 -75 -28q-43 -43 -56 -113l-92 -465q-6 -35 -6 -55z" />
<glyph unicode="q" horiz-adv-x="788" d="M20 209q0 95 48 332q49 237 81.5 332.5t77.5 140.5q85 82 197 82q62 0 104 -31q38 -27 56 -68l16 82h197l-291 -1458h-205l90 445q-37 -37 -65 -54q-51 -28 -107 -28q-117 0 -166 84q-33 62 -33 141zM231 262q0 -47 19 -69q21 -27 59 -27q47 0 76 29q39 39 53 112l92 465 q7 40 7 55q0 45 -21 66q-20 20 -57 20q-46 0 -80 -34q-30 -27 -54 -109.5t-53 -228.5q-41 -208 -41 -279z" />
<glyph unicode="r" horiz-adv-x="579" d="M-6 0l215 1079h197l-23 -114q38 57 102 92q69 39 174 39l-41 -199h-69q-74 0 -133.5 -53.5t-77.5 -143.5l-139 -700h-205z" />
<glyph unicode="s" horiz-adv-x="735" d="M-2 233q0 37 8 78h203q-4 -16 -4 -47q0 -41 20 -67q27 -31 78 -31q54 0 88 37q41 44 41 119q0 40 -19 70.5t-69 58.5l-98 53q-142 75 -142 229q0 81 29.5 156.5t89.5 128.5q84 78 230 78q150 0 221 -88q49 -65 49 -152q0 -28 -10 -80h-195q4 18 4 49q0 35 -20 62 q-23 26 -72 26q-50 0 -78 -28q-43 -43 -43 -115q0 -64 76 -106l96 -54q158 -85 158 -256q0 -90 -33.5 -166.5t-85.5 -121.5q-95 -82 -239 -82q-148 0 -226 84q-57 63 -57 165z" />
<glyph unicode="t" horiz-adv-x="530" d="M90 238q0 46 10 98l113 559h-104l30 154h105l61 307h205l-61 -307h143l-33 -154h-141l-109 -547q-8 -33 -8 -67q0 -46 30.5 -72.5t88.5 -26.5l-35 -182q-156 0 -231 72q-64 64 -64 166z" />
<glyph unicode="u" horiz-adv-x="808" d="M35 199q0 26 16 114l152 766h205l-152 -764q-8 -41 -8 -65q0 -37 21.5 -60.5t60.5 -23.5q101 0 131 149l151 764h205l-215 -1079h-196l16 78q-45 -49 -80 -68q-50 -26 -106 -26q-69 0 -107 23t-63 63q-31 53 -31 129z" />
<glyph unicode="v" horiz-adv-x="737" d="M117 1079h215l-6 -751l295 751h217l-467 -1079h-217z" />
<glyph unicode="w" horiz-adv-x="1134" d="M123 0v1079h211l-39 -743l295 743h168l-2 -745l254 745h217l-436 -1079h-187v717l-291 -717h-190z" />
<glyph unicode="x" horiz-adv-x="759" d="M-78 0l336 555l-119 524h215l64 -342l190 342h226l-342 -542l141 -537h-215l-72 348l-196 -348h-228z" />
<glyph unicode="y" horiz-adv-x="739" d="M-123 -379l39 182q97 3 147 50q20 19 49 66.5t44 82.5l-39 1077h213l-6 -760l290 760h232l-531 -1218q-28 -63 -62.5 -107.5t-71 -70t-87.5 -39.5t-99 -18.5t-118 -4.5z" />
<glyph unicode="z" horiz-adv-x="634" d="M-57 0l28 152l439 745h-279l35 182h516l-31 -151l-446 -746h307l-35 -182h-534z" />
<glyph unicode="{" horiz-adv-x="647" d="M76 647l35 182h63q58 0 88 39t53 150l64 305q19 93 40.5 141.5t61.5 85.5q63 60 219 60h107l-37 -183h-51q-62 0 -96 -37t-54 -137l-63 -311q-14 -70 -32.5 -105.5t-49.5 -64.5q-32 -28 -90 -43q43 -12 67 -43q29 -39 29 -90q0 -34 -12 -98l-62 -308q-12 -54 -12 -75 q0 -84 88 -84h60l-37 -183h-84q-131 0 -193 76q-47 56 -47 144q0 23 14 86l62 321q16 82 16 94q0 35 -22 56.5t-66 21.5h-59z" />
<glyph unicode="|" horiz-adv-x="636" d="M78 -152l352 1762h205l-352 -1762h-205z" />
<glyph unicode="}" horiz-adv-x="647" d="M-82 -152l37 183h51q62 0 96 37t54 137l63 311q14 70 32.5 105.5t49.5 64.5q32 28 90 43q-43 12 -67 43q-29 39 -29 90q0 34 12 99l62 307q12 54 12 75q0 84 -88 84h-60l37 183h84q131 0 193 -76q47 -56 47 -143q0 -23 -14 -86l-62 -322q-16 -82 -16 -94q0 -35 22 -56.5 t66 -21.5h59l-35 -182h-63q-58 0 -88 -39t-53 -150l-64 -305q-19 -93 -40.5 -141.5t-61.5 -85.5q-63 -60 -219 -60h-107z" />
<glyph unicode="~" horiz-adv-x="886" d="M57 604q85 73 145.5 104t123.5 31q48 0 82.5 -13t78.5 -42q66 -41 119 -41q39 0 74 18t80 62l104 -135q-80 -70 -142 -100.5t-126 -30.5q-80 0 -162 53q-62 41 -119 41q-70 0 -155 -82z" />
<glyph unicode="&#xa1;" horiz-adv-x="497" d="M-74 -379l217 1053h205l-188 -1053h-234zM166 829l49 250h236l-50 -250h-235z" />
<glyph unicode="&#xa2;" horiz-adv-x="757" d="M84 465q0 111 37 278q39 193 71 287.5t82 145.5q37 40 80.5 61.5t106.5 28.5l39 192h157l-36 -192q61 -10 114 -70q51 -59 51 -170q0 -30 -6 -70h-200q4 24 4 43q0 41 -17 64q-21 27 -63 27q-54 0 -88 -43q-18 -23 -35 -74t-26.5 -93t-28.5 -137q-39 -199 -39 -254 q0 -44 16 -65q22 -29 64 -29q49 0 79 35q35 38 50 98h200q-22 -89 -51 -143.5t-76 -95.5q-60 -57 -159 -68l-43 -221h-158l43 219q-80 18 -129 88q-39 62 -39 158z" />
<glyph unicode="&#xa3;" horiz-adv-x="890" d="M76 0l133 668h-123l33 157h121l49 244q21 112 53 181.5t84 119.5q110 105 279 105q101 0 166.5 -34t109.5 -102l-172 -127q-47 68 -119 68q-143 0 -186 -217l-47 -238h155l-30 -157h-156l-92 -469h424l-37 -199h-645z" />
<glyph unicode="&#xa4;" horiz-adv-x="978" d="M72 287l114 114q-51 82 -51 185q0 102 51 184l-114 115l129 129l114 -115q82 51 185 51q102 0 184 -51l115 115l129 -129l-115 -115q51 -82 51 -184q0 -103 -51 -185l115 -114l-129 -129l-115 114q-82 -51 -184 -51q-103 0 -185 51l-114 -114zM311 586q0 -78 55.5 -133.5 t133.5 -55.5t133 55.5t55 133.5t-55 133t-133 55t-133.5 -55t-55.5 -133z" />
<glyph unicode="&#xa5;" horiz-adv-x="753" d="M43 342l31 156h186l16 84l-8 82h-162l31 155h117l-61 639h225l22 -588l250 588h238l-314 -639h109l-31 -155h-153l-50 -103l-12 -63h182l-30 -156h-183l-67 -342h-217l67 342h-186z" />
<glyph unicode="&#xa6;" horiz-adv-x="636" d="M78 -152l143 713h205l-143 -713h-205zM287 897l143 713h205l-143 -713h-205z" />
<glyph unicode="&#xa7;" horiz-adv-x="831" d="M-31 -125q0 36 8 72h205q-4 -16 -4 -41q0 -43 23 -66q26 -26 71 -26q51 0 88 32q43 40 43 119q0 74 -77 119l-121 66q-62 33 -99 79q-40 56 -40 146q0 58 24 178q23 114 47.5 174.5t61.5 99.5q43 43 108 66q-88 67 -88 188q0 192 119 297q95 80 237 80q154 0 220 -86 q51 -63 51 -153q0 -34 -8 -70h-197q4 16 4 39q0 38 -20 61q-24 27 -68 27q-45 0 -78 -29q-47 -41 -47 -121q0 -65 70 -106l123 -66q61 -30 96 -80q49 -70 49 -153q0 -43 -25 -168q-39 -195 -102 -270q-41 -49 -113 -78q46 -35 67 -79t21 -116q0 -191 -116 -295 q-93 -84 -248 -84q-152 0 -225 80q-60 65 -60 164zM276 418q0 -45 21 -72q25 -31 74 -31q55 0 92 37q28 27 44.5 72.5t33.5 128.5q18 81 18 135q0 46 -20 72q-25 31 -74 31q-55 0 -92 -37q-28 -27 -44.5 -72.5t-33.5 -128.5q-19 -86 -19 -135z" />
<glyph unicode="&#xa8;" d="M254 1217l39 202h192l-39 -202h-192zM592 1217l39 202h192l-39 -202h-192z" />
<glyph unicode="&#xa9;" horiz-adv-x="1636" d="M125 729q0 197 97 364t264 264t364 97t364 -97t264 -264t97 -364t-97 -364t-264 -264t-364 -97t-364 97t-264 264t-97 364zM264 729q0 -168 77 -305t211 -214t298 -77t297.5 77t210 214t76.5 305t-76.5 305t-210 214t-297.5 77t-298 -77t-211 -214t-77 -305zM635 729 q0 145 11.5 221.5t47.5 118.5q60 72 156 72q85 0 141 -56q60 -60 66 -176h-127q-4 69 -21 88q-19 25 -59 25q-48 0 -64 -33q-26 -46 -26 -260t26 -260q16 -33 64 -33q37 0 59 25q17 19 21 88h127q-6 -116 -66 -176q-56 -56 -141 -56q-96 0 -156 72q-36 42 -47.5 118.5 t-11.5 221.5z" />
<glyph unicode="&#xaa;" horiz-adv-x="641" d="M100 776q0 91 31.5 162.5t89.5 114.5q34 29 80.5 40t122.5 11h80l18 96q8 36 8 55q0 29 -16.5 47.5t-48.5 18.5q-33 0 -59 -23t-39 -86h-168q23 134 98 197q68 61 186 61q114 0 166 -55q49 -52 49 -143q0 -45 -10 -90l-115 -576h-159l14 70q-29 -34 -61 -53 q-45 -25 -91 -25q-96 0 -147 72q-29 47 -29 106zM279 825q0 -80 71 -80q40 0 68 33t39 90l24 117h-51q-60 0 -96 -24q-55 -46 -55 -136z" />
<glyph unicode="&#xab;" horiz-adv-x="800" d="M51 565l414 508l-64 -317l-172 -205l90 -203l-59 -293zM406 565l413 508l-63 -317l-172 -205l90 -203l-60 -293z" />
<glyph unicode="&#xac;" horiz-adv-x="886" d="M96 528l39 195h692l-88 -432h-192l47 237h-498z" />
<glyph unicode="&#xad;" horiz-adv-x="563" d="M78 494l39 194h393l-39 -194h-393z" />
<glyph unicode="&#xae;" horiz-adv-x="1636" d="M125 729q0 197 97 364t264 264t364 97t364 -97t264 -264t97 -364t-97 -364t-264 -264t-364 -97t-364 97t-264 264t-97 364zM264 729q0 -168 77 -305t211 -214t298 -77t297.5 77t210 214t76.5 305t-76.5 305t-210 214t-297.5 77t-298 -77t-211 -214t-77 -305zM657 330v805 h213q96 0 148 -52q53 -56 53 -186q0 -66 -10.5 -107t-40.5 -73q-11 -13 -39 -29l115 -358h-133l-99 329h-78v-329h-129zM786 776h82q35 0 56 21q20 20 20 100q0 78 -20 98q-21 21 -56 21h-82v-240z" />
<glyph unicode="&#xaf;" d="M276 1237l27 137h475l-26 -137h-476z" />
<glyph unicode="&#xb0;" horiz-adv-x="794" d="M197 1157q0 135 95 229.5t230 94.5t230.5 -94.5t95.5 -229.5t-95.5 -229t-230.5 -94t-230 94t-95 229zM379 1157q0 -62 41 -104.5t102 -42.5t102.5 42.5t41.5 104.5t-41.5 105t-102.5 43t-102 -43t-41 -105z" />
<glyph unicode="&#xb1;" horiz-adv-x="886" d="M-16 27l39 194h714l-39 -194h-714zM109 647l38 195h259l55 280h196l-53 -280h258l-39 -195h-258l-57 -280h-197l56 280h-258z" />
<glyph unicode="&#xb2;" horiz-adv-x="643" d="M131 584l23 108l309 424q76 102 76 174q0 60 -56 60q-63 0 -80 -78l-10 -55h-139l10 51q22 115 90 162q51 38 140 38q93 0 139 -49q43 -46 43 -112q0 -104 -98 -238l-271 -367h262l-24 -118h-414z" />
<glyph unicode="&#xb3;" horiz-adv-x="643" d="M156 725q0 44 6 68l8 38h137l-8 -43q-4 -18 -4 -40q0 -27 15 -41.5t40 -14.5q32 0 56 21q15 13 24 37.5t21 83.5q14 64 14 102q0 53 -57 53h-46l25 113h37q27 0 49 18q15 15 23 34t18 69q10 55 10 71q0 56 -49 56q-61 0 -76 -74l-12 -64h-139l10 58q11 58 30.5 94.5 t59.5 65.5q52 38 141 38q95 0 138 -49q35 -38 35 -110q0 -27 -11 -84q-17 -89 -49 -129q-27 -31 -61 -47q61 -36 61 -115q0 -30 -12 -100q-22 -98 -38.5 -139t-51.5 -70q-58 -52 -160 -52q-99 0 -147 54q-37 40 -37 98z" />
<glyph unicode="&#xb4;" d="M426 1196l197 283h182l-225 -283h-154z" />
<glyph unicode="&#xb5;" horiz-adv-x="808" d="M-88 -379l293 1458h205l-152 -764q-10 -46 -10 -65q0 -40 23.5 -62t56.5 -22q104 0 133 149l151 764h205l-215 -1079h-196l16 78q-36 -39 -78 -66q-38 -24 -96 -24q-37 0 -64 12l-75 -379h-197z" />
<glyph unicode="&#xb6;" horiz-adv-x="1163" d="M123 856q0 49 22 170q31 167 82 262.5t120.5 132.5t174.5 37h723l-366 -1837h-205l332 1655h-197l-330 -1655h-205l193 965h-82q-120 0 -191 70t-71 200z" />
<glyph unicode="&#xb7;" horiz-adv-x="526" d="M94 465l62 303h309l-62 -303h-309z" />
<glyph unicode="&#xb8;" d="M31 -391l184 311h139l-161 -311h-162z" />
<glyph unicode="&#xb9;" horiz-adv-x="643" d="M293 584l143 716l-141 -98l31 156l143 100h137l-174 -874h-139z" />
<glyph unicode="&#xba;" horiz-adv-x="638" d="M129 795q0 75 33 233q32 155 60 233.5t65 122.5q36 43 83.5 62.5t121.5 19.5q111 0 165 -57q50 -56 50 -147q0 -72 -33 -234q-30 -153 -58.5 -231t-66.5 -123q-37 -43 -84 -63.5t-121 -20.5q-112 0 -164 59q-51 51 -51 146zM301 817q0 -74 59 -74q44 0 70 33 q32 43 74 252q33 165 33 213q0 74 -62 74q-42 0 -67 -35q-34 -41 -76 -252q-31 -155 -31 -211z" />
<glyph unicode="&#xbb;" horiz-adv-x="800" d="M-8 55l63 318l172 205l-90 202l60 293l209 -510zM346 55l64 318l172 205l-90 202l59 293l209 -510z" />
<glyph unicode="&#xbc;" horiz-adv-x="1515" d="M293 584l143 716l-141 -98l31 156l143 100h137l-174 -874h-139zM338 0l772 1458h147l-772 -1458h-147zM879 135l24 115l348 624h140l-340 -620h116l29 147h137l-28 -147h63l-25 -119h-63l-27 -135h-137l25 135h-262z" />
<glyph unicode="&#xbd;" horiz-adv-x="1515" d="M293 584l143 716l-141 -98l31 156l143 100h137l-174 -874h-139zM338 0l772 1458h147l-772 -1458h-147zM887 0l22 109l310 423q75 101 75 175q0 59 -55 59q-63 0 -80 -78l-10 -55h-139l10 51q22 115 90 162q52 39 139 39q94 0 140 -49q43 -46 43 -113q0 -103 -99 -238 l-270 -366h262l-25 -119h-413z" />
<glyph unicode="&#xbe;" horiz-adv-x="1515" d="M156 725q0 44 6 68l8 38h137l-8 -43q-4 -18 -4 -40q0 -27 15 -41.5t40 -14.5q32 0 56 21q15 13 24 37.5t21 83.5q14 64 14 102q0 53 -57 53h-46l25 113h37q27 0 49 18q15 15 23 34t18 69q10 55 10 71q0 56 -49 56q-61 0 -76 -74l-12 -64h-139l10 58q11 58 30.5 94.5 t59.5 65.5q52 38 141 38q95 0 138 -49q35 -38 35 -110q0 -27 -11 -84q-17 -89 -49 -129q-27 -31 -61 -47q61 -36 61 -115q0 -30 -12 -100q-22 -98 -38.5 -139t-51.5 -70q-58 -52 -160 -52q-99 0 -147 54q-37 40 -37 98zM338 0l772 1458h147l-772 -1458h-147zM879 135l24 115 l348 624h140l-340 -620h116l29 147h137l-28 -147h63l-25 -119h-63l-27 -135h-137l25 135h-262z" />
<glyph unicode="&#xbf;" horiz-adv-x="825" d="M-63 -133q0 65 14 139q20 93 48 151.5t77 112.5l137 152q62 68 74 131l24 121h205l-29 -146q-10 -51 -32 -93.5t-74 -98.5l-139 -156q-41 -45 -59 -83.5t-29 -96.5q-13 -80 -13 -102q0 -51 25 -76q28 -31 74 -31q49 0 92 37q42 40 67 166h203q-24 -120 -55 -189.5 t-84 -113.5q-94 -82 -244 -82q-161 0 -233 94q-49 67 -49 164zM324 829l49 250h235l-49 -250h-235z" />
<glyph unicode="&#xc0;" horiz-adv-x="907" d="M-96 0l628 1458h213l46 -1458h-218l2 295h-321l-119 -295h-231zM332 489h241l5 635zM479 1833h168l84 -283h-145z" />
<glyph unicode="&#xc1;" horiz-adv-x="907" d="M-96 0l628 1458h213l46 -1458h-218l2 295h-321l-119 -295h-231zM332 489h241l5 635zM565 1550l197 283h182l-225 -283h-154z" />
<glyph unicode="&#xc2;" horiz-adv-x="907" d="M-96 0l628 1458h213l46 -1458h-218l2 295h-321l-119 -295h-231zM332 489h241l5 635zM381 1550l248 287h155l134 -287h-144l-86 172l-147 -172h-160z" />
<glyph unicode="&#xc3;" horiz-adv-x="907" d="M-96 0l628 1458h213l46 -1458h-218l2 295h-321l-119 -295h-231zM332 489h241l5 635zM395 1688q93 84 176 84q38 0 63 -7.5t56 -27.5q50 -29 90 -29q29 0 51 11.5t50 37.5l73 -98q-92 -86 -178 -86q-37 0 -60.5 7.5t-56.5 27.5q-50 30 -90 30q-29 0 -50.5 -11t-49.5 -38z " />
<glyph unicode="&#xc4;" horiz-adv-x="907" d="M-96 0l628 1458h213l46 -1458h-218l2 295h-321l-119 -295h-231zM332 489h241l5 635zM387 1569l39 203h192l-38 -203h-193zM725 1569l39 203h192l-38 -203h-193z" />
<glyph unicode="&#xc5;" horiz-adv-x="907" d="M-96 0l628 1458h213l46 -1458h-218l2 295h-321l-119 -295h-231zM332 489h241l5 635zM457 1753q0 88 61.5 149.5t149.5 61.5t149.5 -61.5t61.5 -149.5t-61.5 -149.5t-149.5 -61.5t-149.5 61.5t-61.5 149.5zM569 1753q0 -42 29.5 -72t69.5 -30t69 30t29 72t-29 72t-69 30 t-69.5 -30t-29.5 -72z" />
<glyph unicode="&#xc6;" horiz-adv-x="1308" d="M-98 0l798 1458h721l-39 -194h-364l-86 -433h313l-39 -192h-313l-88 -444h364l-39 -195h-581l61 309h-305l-162 -309h-241zM410 504h239l152 764z" />
<glyph unicode="&#xc7;" horiz-adv-x="866" d="M55 301q0 112 62 428q46 224 79 346t65.5 186t80.5 111q103 103 270 103q163 0 242 -97q61 -77 61 -204q0 -58 -6 -95h-217q6 31 6 82q0 119 -102 119q-64 0 -104 -43q-43 -44 -72.5 -140.5t-85.5 -367.5q-62 -312 -62 -426q0 -125 105 -125q69 0 112 53q47 56 68 150 h219q-24 -112 -61 -185t-99 -128q-96 -84 -260 -84q-178 0 -252 116q-27 44 -38 89t-11 112zM86 -391l184 311h140l-162 -311h-162z" />
<glyph unicode="&#xc8;" horiz-adv-x="768" d="M8 0l291 1458h582l-39 -194h-365l-86 -433h314l-39 -192h-314l-88 -444h365l-39 -195h-582zM440 1833h168l84 -283h-145z" />
<glyph unicode="&#xc9;" horiz-adv-x="768" d="M8 0l291 1458h582l-39 -194h-365l-86 -433h314l-39 -192h-314l-88 -444h365l-39 -195h-582zM526 1550l197 283h182l-225 -283h-154z" />
<glyph unicode="&#xca;" horiz-adv-x="768" d="M8 0l291 1458h582l-39 -194h-365l-86 -433h314l-39 -192h-314l-88 -444h365l-39 -195h-582zM342 1550l248 287h155l134 -287h-144l-86 172l-147 -172h-160z" />
<glyph unicode="&#xcb;" horiz-adv-x="768" d="M8 0l291 1458h582l-39 -194h-365l-86 -433h314l-39 -192h-314l-88 -444h365l-39 -195h-582zM348 1569l39 203h193l-39 -203h-193zM686 1569l39 203h193l-39 -203h-193z" />
<glyph unicode="&#xcc;" horiz-adv-x="448" d="M8 0l291 1458h217l-291 -1458h-217zM252 1833h168l84 -283h-146z" />
<glyph unicode="&#xcd;" horiz-adv-x="448" d="M8 0l291 1458h217l-291 -1458h-217zM338 1550l197 283h182l-225 -283h-154z" />
<glyph unicode="&#xce;" horiz-adv-x="448" d="M8 0l291 1458h217l-291 -1458h-217zM154 1550l247 287h156l133 -287h-143l-86 172l-148 -172h-159z" />
<glyph unicode="&#xcf;" horiz-adv-x="448" d="M8 0l291 1458h217l-291 -1458h-217zM160 1569l39 203h192l-39 -203h-192zM498 1569l39 203h192l-39 -203h-192z" />
<glyph unicode="&#xd0;" horiz-adv-x="991" d="M86 0l129 649h-96l33 170h96l129 639h342q94 0 151 -29.5t97 -91.5q49 -79 49 -196q0 -83 -66 -410q-63 -313 -103.5 -435.5t-109.5 -189.5q-57 -55 -125.5 -80.5t-162.5 -25.5h-363zM342 195h123q82 0 129 57q37 46 66 153t73 326q66 310 66 410q0 56 -29 88 q-27 35 -86 35h-129l-90 -445h139l-35 -170h-137z" />
<glyph unicode="&#xd1;" horiz-adv-x="944" d="M8 0l291 1458h182l148 -883l168 883h217l-291 -1458h-174l-148 883l-176 -883h-217zM422 1688q93 84 176 84q38 0 63 -7.5t56 -27.5q50 -29 90 -29q29 0 50.5 11t49.5 38l74 -98q-92 -86 -178 -86q-37 0 -60.5 7.5t-56.5 27.5q-50 30 -90 30q-29 0 -50.5 -11t-49.5 -38z " />
<glyph unicode="&#xd2;" horiz-adv-x="894" d="M55 299q0 114 62 430q69 332 111.5 454t113.5 191q54 53 118.5 77t151.5 24q184 0 256 -121q28 -43 39 -86.5t11 -108.5q0 -119 -64 -430q-67 -332 -110 -454t-115 -191q-100 -100 -269 -100q-187 0 -258 120q-26 42 -36.5 86t-10.5 109zM270 305q0 -127 109 -127 q59 0 102 43q40 40 71 141t85 367q63 313 63 424q0 127 -108 127q-60 0 -103 -43q-40 -40 -70.5 -140t-84.5 -368q-64 -318 -64 -424zM473 1833h168l84 -283h-145z" />
<glyph unicode="&#xd3;" horiz-adv-x="894" d="M55 299q0 114 62 430q69 332 111.5 454t113.5 191q54 53 118.5 77t151.5 24q184 0 256 -121q28 -43 39 -86.5t11 -108.5q0 -119 -64 -430q-67 -332 -110 -454t-115 -191q-100 -100 -269 -100q-187 0 -258 120q-26 42 -36.5 86t-10.5 109zM270 305q0 -127 109 -127 q59 0 102 43q40 40 71 141t85 367q63 313 63 424q0 127 -108 127q-60 0 -103 -43q-40 -40 -70.5 -140t-84.5 -368q-64 -318 -64 -424zM559 1550l197 283h182l-225 -283h-154z" />
<glyph unicode="&#xd4;" horiz-adv-x="894" d="M55 299q0 114 62 430q69 332 111.5 454t113.5 191q54 53 118.5 77t151.5 24q184 0 256 -121q28 -43 39 -86.5t11 -108.5q0 -119 -64 -430q-67 -332 -110 -454t-115 -191q-100 -100 -269 -100q-187 0 -258 120q-26 42 -36.5 86t-10.5 109zM270 305q0 -127 109 -127 q59 0 102 43q40 40 71 141t85 367q63 313 63 424q0 127 -108 127q-60 0 -103 -43q-40 -40 -70.5 -140t-84.5 -368q-64 -318 -64 -424zM375 1550l248 287h155l133 -287h-143l-86 172l-147 -172h-160z" />
<glyph unicode="&#xd5;" horiz-adv-x="894" d="M55 299q0 114 62 430q69 332 111.5 454t113.5 191q54 53 118.5 77t151.5 24q184 0 256 -121q28 -43 39 -86.5t11 -108.5q0 -119 -64 -430q-67 -332 -110 -454t-115 -191q-100 -100 -269 -100q-187 0 -258 120q-26 42 -36.5 86t-10.5 109zM270 305q0 -127 109 -127 q59 0 102 43q40 40 71 141t85 367q63 313 63 424q0 127 -108 127q-60 0 -103 -43q-40 -40 -70.5 -140t-84.5 -368q-64 -318 -64 -424zM389 1688q93 84 176 84q38 0 63 -7.5t56 -27.5q50 -29 90 -29q29 0 50.5 11t49.5 38l74 -98q-92 -86 -178 -86q-37 0 -60.5 7.5 t-56.5 27.5q-49 30 -90 30q-29 0 -50.5 -11t-49.5 -38z" />
<glyph unicode="&#xd6;" horiz-adv-x="894" d="M55 299q0 114 62 430q69 332 111.5 454t113.5 191q54 53 118.5 77t151.5 24q184 0 256 -121q28 -43 39 -86.5t11 -108.5q0 -119 -64 -430q-67 -332 -110 -454t-115 -191q-100 -100 -269 -100q-187 0 -258 120q-26 42 -36.5 86t-10.5 109zM270 305q0 -127 109 -127 q59 0 102 43q40 40 71 141t85 367q63 313 63 424q0 127 -108 127q-60 0 -103 -43q-40 -40 -70.5 -140t-84.5 -368q-64 -318 -64 -424zM381 1569l39 203h192l-39 -203h-192zM719 1569l39 203h192l-39 -203h-192z" />
<glyph unicode="&#xd7;" horiz-adv-x="886" d="M57 360l267 234l-174 233l147 129l174 -231l266 233l113 -149l-266 -234l174 -233l-148 -129l-174 231l-266 -233z" />
<glyph unicode="&#xd8;" horiz-adv-x="894" d="M-29 -90l119 215q-35 64 -35 174q0 129 62 430q46 227 78.5 347.5t65 185t81.5 112.5q54 53 118.5 77t151.5 24q109 0 181 -43l63 116h143l-118 -217q37 -67 37 -172q0 -119 -64 -430q-67 -332 -110 -454t-115 -191q-100 -100 -269 -100q-110 0 -182 43l-61 -117h-146z M285 231q22 -53 96 -53q60 0 100 43q42 44 72 141t84 367q44 240 47 262zM287 473l399 756q-25 51 -94 51q-60 0 -103 -43q-40 -40 -70.5 -140t-84.5 -368q-25 -119 -47 -256z" />
<glyph unicode="&#xd9;" horiz-adv-x="913" d="M61 270q0 56 11 105l217 1083h217l-221 -1102q-6 -30 -6 -63q0 -56 28 -85.5t82 -29.5q61 0 106 44t60 122l221 1114h217l-221 -1116q-36 -174 -141 -268q-100 -90 -271 -90q-147 0 -229 88q-70 73 -70 198zM481 1833h168l84 -283h-145z" />
<glyph unicode="&#xda;" horiz-adv-x="913" d="M61 270q0 56 11 105l217 1083h217l-221 -1102q-6 -30 -6 -63q0 -56 28 -85.5t82 -29.5q61 0 106 44t60 122l221 1114h217l-221 -1116q-36 -174 -141 -268q-100 -90 -271 -90q-147 0 -229 88q-70 73 -70 198zM567 1550l197 283h182l-225 -283h-154z" />
<glyph unicode="&#xdb;" horiz-adv-x="913" d="M61 270q0 56 11 105l217 1083h217l-221 -1102q-6 -30 -6 -63q0 -56 28 -85.5t82 -29.5q61 0 106 44t60 122l221 1114h217l-221 -1116q-36 -174 -141 -268q-100 -90 -271 -90q-147 0 -229 88q-70 73 -70 198zM383 1550l248 287h155l134 -287h-144l-86 172l-147 -172h-160z " />
<glyph unicode="&#xdc;" horiz-adv-x="913" d="M61 270q0 56 11 105l217 1083h217l-221 -1102q-6 -30 -6 -63q0 -56 28 -85.5t82 -29.5q61 0 106 44t60 122l221 1114h217l-221 -1116q-36 -174 -141 -268q-100 -90 -271 -90q-147 0 -229 88q-70 73 -70 198zM389 1569l39 203h193l-39 -203h-193zM727 1569l39 203h192 l-38 -203h-193z" />
<glyph unicode="&#xdd;" horiz-adv-x="753" d="M162 0l114 582l-83 876h225l22 -590l250 590h238l-439 -897l-110 -561h-217zM483 1550l197 283h182l-225 -283h-154z" />
<glyph unicode="&#xde;" horiz-adv-x="890" d="M8 0l291 1458h217l-55 -276h112q86 0 141 -18t95 -58q68 -68 68 -199q0 -77 -17 -170q-27 -132 -66 -220t-94 -136.5t-118.5 -68t-151.5 -19.5h-147l-58 -293h-217zM322 487h118q85 0 130 56t73 194q16 82 16 127q0 63 -28.5 93t-95.5 30h-113z" />
<glyph unicode="&#xdf;" horiz-adv-x="806" d="M-6 0l229 1151q34 168 129 250q89 74 230 74q147 0 217 -86q49 -63 49 -172q0 -73 -24 -173.5t-58 -150.5q-35 -51 -96 -90q75 -57 75 -174q0 -60 -26 -193q-33 -167 -63.5 -237.5t-90.5 -122.5q-48 -42 -109 -59t-151 -17l35 182q59 0 94 35q26 25 43.5 74.5t40.5 167.5 q25 129 25 170q0 92 -80 92h-14l32 172h17q18 0 32.5 7.5t24 17t20.5 30.5t16 34t15 40q41 112 41 176q0 46 -23 70t-61 24q-108 0 -135 -141l-229 -1151h-205z" />
<glyph unicode="&#xe0;" horiz-adv-x="770" d="M-4 217q0 39 12 107q14 71 51 135t88 104q46 37 101 52.5t141 15.5h103l26 139q8 36 8 59q0 39 -20.5 61.5t-59.5 22.5q-43 0 -75 -28q-36 -36 -49 -109h-205q34 165 125 244q82 76 227 76q153 0 215 -82q47 -58 47 -162q0 -46 -12 -104l-148 -748h-194l18 90 q-34 -46 -76 -72q-50 -34 -118 -34q-118 0 -172 92q-33 50 -33 141zM207 264q0 -46 22 -72t64 -26q51 0 87 42t48 109l35 168h-66q-46 0 -69.5 -7t-48.5 -27q-32 -27 -52 -80.5t-20 -106.5zM336 1481h168l84 -283h-146z" />
<glyph unicode="&#xe1;" horiz-adv-x="770" d="M-4 217q0 39 12 107q14 71 51 135t88 104q46 37 101 52.5t141 15.5h103l26 139q8 36 8 59q0 39 -20.5 61.5t-59.5 22.5q-43 0 -75 -28q-36 -36 -49 -109h-205q34 165 125 244q82 76 227 76q153 0 215 -82q47 -58 47 -162q0 -46 -12 -104l-148 -748h-194l18 90 q-34 -46 -76 -72q-50 -34 -118 -34q-118 0 -172 92q-33 50 -33 141zM207 264q0 -46 22 -72t64 -26q51 0 87 42t48 109l35 168h-66q-46 0 -69.5 -7t-48.5 -27q-32 -27 -52 -80.5t-20 -106.5zM422 1196l196 283h183l-226 -283h-153z" />
<glyph unicode="&#xe2;" horiz-adv-x="770" d="M-4 217q0 39 12 107q14 71 51 135t88 104q46 37 101 52.5t141 15.5h103l26 139q8 36 8 59q0 39 -20.5 61.5t-59.5 22.5q-43 0 -75 -28q-36 -36 -49 -109h-205q34 165 125 244q82 76 227 76q153 0 215 -82q47 -58 47 -162q0 -46 -12 -104l-148 -748h-194l18 90 q-34 -46 -76 -72q-50 -34 -118 -34q-118 0 -172 92q-33 50 -33 141zM207 264q0 -46 22 -72t64 -26q51 0 87 42t48 109l35 168h-66q-46 0 -69.5 -7t-48.5 -27q-32 -27 -52 -80.5t-20 -106.5zM238 1196l247 287h156l133 -287h-143l-86 172l-148 -172h-159z" />
<glyph unicode="&#xe3;" horiz-adv-x="770" d="M-4 217q0 39 12 107q14 71 51 135t88 104q46 37 101 52.5t141 15.5h103l26 139q8 36 8 59q0 39 -20.5 61.5t-59.5 22.5q-43 0 -75 -28q-36 -36 -49 -109h-205q34 165 125 244q82 76 227 76q153 0 215 -82q47 -58 47 -162q0 -46 -12 -104l-148 -748h-194l18 90 q-34 -46 -76 -72q-50 -34 -118 -34q-118 0 -172 92q-33 50 -33 141zM207 264q0 -46 22 -72t64 -26q51 0 87 42t48 109l35 168h-66q-46 0 -69.5 -7t-48.5 -27q-32 -27 -52 -80.5t-20 -106.5zM252 1333q92 86 178 86q60 0 117 -35q47 -30 90 -30q28 0 49 11.5t51 37.5l74 -98 q-93 -84 -178 -84q-38 0 -62 7t-55 27q-53 31 -90 31q-28 0 -49 -11.5t-51 -37.5z" />
<glyph unicode="&#xe4;" horiz-adv-x="770" d="M-4 217q0 39 12 107q14 71 51 135t88 104q46 37 101 52.5t141 15.5h103l26 139q8 36 8 59q0 39 -20.5 61.5t-59.5 22.5q-43 0 -75 -28q-36 -36 -49 -109h-205q34 165 125 244q82 76 227 76q153 0 215 -82q47 -58 47 -162q0 -46 -12 -104l-148 -748h-194l18 90 q-34 -46 -76 -72q-50 -34 -118 -34q-118 0 -172 92q-33 50 -33 141zM207 264q0 -46 22 -72t64 -26q51 0 87 42t48 109l35 168h-66q-46 0 -69.5 -7t-48.5 -27q-32 -27 -52 -80.5t-20 -106.5zM244 1217l39 202h192l-39 -202h-192zM582 1217l39 202h192l-39 -202h-192z" />
<glyph unicode="&#xe5;" horiz-adv-x="770" d="M-4 217q0 39 12 107q14 71 51 135t88 104q46 37 101 52.5t141 15.5h103l26 139q8 36 8 59q0 39 -20.5 61.5t-59.5 22.5q-43 0 -75 -28q-36 -36 -49 -109h-205q34 165 125 244q82 76 227 76q153 0 215 -82q47 -58 47 -162q0 -46 -12 -104l-148 -748h-194l18 90 q-34 -46 -76 -72q-50 -34 -118 -34q-118 0 -172 92q-33 50 -33 141zM207 264q0 -46 22 -72t64 -26q51 0 87 42t48 109l35 168h-66q-46 0 -69.5 -7t-48.5 -27q-32 -27 -52 -80.5t-20 -106.5zM319 1411q0 88 61.5 149.5t149.5 61.5t149.5 -61.5t61.5 -149.5t-61.5 -149.5 t-149.5 -61.5t-149.5 61.5t-61.5 149.5zM432 1411q0 -42 29 -72t69 -30t69.5 30t29.5 72t-29.5 72t-69.5 30t-69 -30t-29 -72z" />
<glyph unicode="&#xe6;" horiz-adv-x="1163" d="M-4 217q0 57 12 107q15 72 52 136t87 103q46 37 101 52.5t141 15.5h103l26 139q8 36 8 59q0 39 -20.5 61.5t-59.5 22.5q-43 0 -75 -28q-36 -36 -49 -109h-205q34 165 125 244q82 76 227 76q132 0 197 -76q88 76 221 76q146 0 209 -92q43 -62 43 -168q0 -110 -52 -357 h-423q-33 -165 -33 -221q0 -45 22 -70q19 -22 58 -22q46 0 75 29q37 35 60 118h203q-20 -83 -45 -135t-64 -96q-86 -98 -252 -98q-100 0 -156 36q-45 31 -86 97q-51 -75 -108 -101q-66 -32 -137 -32q-60 0 -100.5 21.5t-71.5 70.5q-33 50 -33 141zM207 264q0 -46 22 -72 t64 -26q51 0 87 42t48 109l35 168h-66q-46 0 -69.5 -7t-48.5 -27q-32 -27 -52 -80.5t-20 -106.5zM696 635h217q27 126 27 184q0 94 -80 94q-54 0 -86 -43q-23 -29 -39.5 -80.5t-38.5 -154.5z" />
<glyph unicode="&#xe7;" horiz-adv-x="743" d="M27 250q0 76 43 291q40 201 74 298t85 156q91 101 252 101q165 0 224 -109q34 -58 34 -147q0 -43 -6 -74h-201q5 34 5 59q0 42 -21 66q-19 22 -57 22q-52 0 -88 -45q-27 -34 -45.5 -101.5t-51.5 -225.5q-45 -221 -45 -283q0 -49 25 -74q21 -18 55 -18q43 0 76 29 q36 34 57 118h203q-36 -151 -104 -229q-90 -100 -254 -100q-155 0 -219 102q-41 65 -41 164zM27 -391l184 311h139l-162 -311h-161z" />
<glyph unicode="&#xe8;" horiz-adv-x="761" d="M29 250q0 86 41 291q42 204 75.5 300t83.5 154q87 101 256 101q146 0 209 -92q41 -59 41 -168t-49 -357h-424q-33 -165 -33 -221q0 -44 23 -70q19 -22 57 -22q47 0 76 29q37 34 57 118h205q-20 -83 -44.5 -135.5t-63.5 -95.5q-89 -98 -252 -98q-164 0 -226 112 q-32 55 -32 154zM293 635h219q27 126 27 184q0 94 -80 94q-52 0 -86 -43q-24 -29 -41 -82t-39 -153zM340 1481h168l84 -283h-146z" />
<glyph unicode="&#xe9;" horiz-adv-x="761" d="M29 250q0 86 41 291q42 204 75.5 300t83.5 154q87 101 256 101q146 0 209 -92q41 -59 41 -168t-49 -357h-424q-33 -165 -33 -221q0 -44 23 -70q19 -22 57 -22q47 0 76 29q37 34 57 118h205q-20 -83 -44.5 -135.5t-63.5 -95.5q-89 -98 -252 -98q-164 0 -226 112 q-32 55 -32 154zM293 635h219q27 126 27 184q0 94 -80 94q-52 0 -86 -43q-24 -29 -41 -82t-39 -153zM426 1196l197 283h182l-225 -283h-154z" />
<glyph unicode="&#xea;" horiz-adv-x="761" d="M29 250q0 86 41 291q42 204 75.5 300t83.5 154q87 101 256 101q146 0 209 -92q41 -59 41 -168t-49 -357h-424q-33 -165 -33 -221q0 -44 23 -70q19 -22 57 -22q47 0 76 29q37 34 57 118h205q-20 -83 -44.5 -135.5t-63.5 -95.5q-89 -98 -252 -98q-164 0 -226 112 q-32 55 -32 154zM242 1196l247 287h156l133 -287h-143l-86 172l-148 -172h-159zM293 635h219q27 126 27 184q0 94 -80 94q-52 0 -86 -43q-24 -29 -41 -82t-39 -153z" />
<glyph unicode="&#xeb;" horiz-adv-x="761" d="M29 250q0 86 41 291q42 204 75.5 300t83.5 154q87 101 256 101q146 0 209 -92q41 -59 41 -168t-49 -357h-424q-33 -165 -33 -221q0 -44 23 -70q19 -22 57 -22q47 0 76 29q37 34 57 118h205q-20 -83 -44.5 -135.5t-63.5 -95.5q-89 -98 -252 -98q-164 0 -226 112 q-32 55 -32 154zM248 1217l39 202h192l-39 -202h-192zM293 635h219q27 126 27 184q0 94 -80 94q-52 0 -86 -43q-24 -29 -41 -82t-39 -153zM586 1217l39 202h192l-39 -202h-192z" />
<glyph unicode="&#xec;" horiz-adv-x="405" d="M-6 0l209 1049h205l-209 -1049h-205zM166 1481h168l84 -283h-146z" />
<glyph unicode="&#xed;" horiz-adv-x="405" d="M-6 0l209 1049h205l-209 -1049h-205zM252 1196l197 283h182l-225 -283h-154z" />
<glyph unicode="&#xee;" horiz-adv-x="405" d="M-6 0l209 1049h205l-209 -1049h-205zM68 1196l247 287h156l133 -287h-143l-86 172l-148 -172h-159z" />
<glyph unicode="&#xef;" horiz-adv-x="405" d="M-6 0l209 1049h205l-209 -1049h-205zM74 1217l39 202h192l-39 -202h-192zM412 1217l39 202h192l-39 -202h-192z" />
<glyph unicode="&#xf0;" horiz-adv-x="776" d="M31 242q0 71 37 260q42 204 72.5 298t74.5 136q76 76 197 76q76 0 123 -37l-21 201h-145l26 137h101l-15 145h197l16 -145h142l-27 -137h-98l18 -220q6 -55 6 -108q0 -134 -41 -346q-38 -190 -73.5 -286t-77.5 -140q-86 -92 -258 -92q-114 0 -183 69q-71 68 -71 189z M233 262q0 -42 17 -67q22 -29 61 -29q53 0 88 41q24 30 43 95t47 200q35 186 35 235q0 45 -16 66q-20 26 -64 26q-53 0 -86 -41q-26 -30 -45 -95.5t-43 -190.5q-37 -192 -37 -240z" />
<glyph unicode="&#xf1;" horiz-adv-x="808" d="M-6 0l215 1079h197l-17 -78q45 49 80 68q52 27 106 27q69 0 107 -23t63 -63q31 -53 31 -129q0 -27 -16 -115l-152 -766h-205l152 764q8 41 8 65q0 37 -21.5 60.5t-60.5 23.5q-101 0 -131 -149l-151 -764h-205zM276 1333q92 86 179 86q59 0 116 -35q47 -30 91 -30 q28 0 49 11.5t51 37.5l74 -98q-93 -84 -179 -84q-38 0 -61.5 7t-54.5 27q-53 31 -90 31q-29 0 -50 -11.5t-51 -37.5z" />
<glyph unicode="&#xf2;" d="M29 252q0 84 41 289q43 210 75.5 302.5t85.5 151.5q88 101 250 101q164 0 224 -111q34 -58 34 -156q0 -86 -41 -288q-42 -209 -75.5 -303.5t-85.5 -153.5q-87 -100 -250 -100q-166 0 -226 110q-32 60 -32 158zM231 260q0 -48 19 -70q21 -24 59 -24q52 0 86 43 q27 35 48 110t51 222q43 208 43 278q0 48 -19 70q-21 24 -59 24q-52 0 -86 -43q-27 -36 -48 -110t-51 -219q-43 -208 -43 -281zM340 1481h168l84 -283h-146z" />
<glyph unicode="&#xf3;" d="M29 252q0 84 41 289q43 210 75.5 302.5t85.5 151.5q88 101 250 101q164 0 224 -111q34 -58 34 -156q0 -86 -41 -288q-42 -209 -75.5 -303.5t-85.5 -153.5q-87 -100 -250 -100q-166 0 -226 110q-32 60 -32 158zM231 260q0 -48 19 -70q21 -24 59 -24q52 0 86 43 q27 35 48 110t51 222q43 208 43 278q0 48 -19 70q-21 24 -59 24q-52 0 -86 -43q-27 -36 -48 -110t-51 -219q-43 -208 -43 -281zM426 1196l197 283h182l-225 -283h-154z" />
<glyph unicode="&#xf4;" d="M29 252q0 84 41 289q43 210 75.5 302.5t85.5 151.5q88 101 250 101q164 0 224 -111q34 -58 34 -156q0 -86 -41 -288q-42 -209 -75.5 -303.5t-85.5 -153.5q-87 -100 -250 -100q-166 0 -226 110q-32 60 -32 158zM231 260q0 -48 19 -70q21 -24 59 -24q52 0 86 43 q27 35 48 110t51 222q43 208 43 278q0 48 -19 70q-21 24 -59 24q-52 0 -86 -43q-27 -36 -48 -110t-51 -219q-43 -208 -43 -281zM242 1196l247 287h156l133 -287h-143l-86 172l-148 -172h-159z" />
<glyph unicode="&#xf5;" d="M29 252q0 84 41 289q43 210 75.5 302.5t85.5 151.5q88 101 250 101q164 0 224 -111q34 -58 34 -156q0 -86 -41 -288q-42 -209 -75.5 -303.5t-85.5 -153.5q-87 -100 -250 -100q-166 0 -226 110q-32 60 -32 158zM231 260q0 -48 19 -70q21 -24 59 -24q52 0 86 43 q27 35 48 110t51 222q43 208 43 278q0 48 -19 70q-21 24 -59 24q-52 0 -86 -43q-27 -36 -48 -110t-51 -219q-43 -208 -43 -281zM256 1333q92 86 178 86q60 0 117 -35q47 -30 90 -30q28 0 49 11.5t51 37.5l74 -98q-93 -84 -178 -84q-38 0 -62 7t-55 27q-53 31 -90 31 q-28 0 -49 -11.5t-51 -37.5z" />
<glyph unicode="&#xf6;" d="M29 252q0 84 41 289q43 210 75.5 302.5t85.5 151.5q88 101 250 101q164 0 224 -111q34 -58 34 -156q0 -86 -41 -288q-42 -209 -75.5 -303.5t-85.5 -153.5q-87 -100 -250 -100q-166 0 -226 110q-32 60 -32 158zM231 260q0 -48 19 -70q21 -24 59 -24q52 0 86 43 q27 35 48 110t51 222q43 208 43 278q0 48 -19 70q-21 24 -59 24q-52 0 -86 -43q-27 -36 -48 -110t-51 -219q-43 -208 -43 -281zM248 1217l39 202h192l-39 -202h-192zM586 1217l39 202h192l-39 -202h-192z" />
<glyph unicode="&#xf7;" horiz-adv-x="886" d="M78 496l39 190h714l-38 -190h-715zM236 94l47 234h237l-45 -234h-239zM387 854l47 233h238l-47 -233h-238z" />
<glyph unicode="&#xf8;" d="M-68 -90l121 199q-24 59 -24 143t41 289q43 210 75.5 302.5t85.5 151.5q88 101 250 101q93 0 154 -37l65 110h136l-123 -202q26 -56 26 -138q0 -86 -41 -288q-42 -209 -75.5 -303.5t-85.5 -153.5q-87 -100 -250 -100q-93 0 -154 34l-65 -108h-136zM242 199q22 -33 67 -33 q52 0 86 43q27 35 48 110t51 222q3 18 12 64t12 69zM250 410l274 471l-6 8q-21 24 -59 24q-52 0 -86 -43q-27 -36 -48 -110t-51 -219q-15 -73 -24 -131z" />
<glyph unicode="&#xf9;" horiz-adv-x="808" d="M35 199q0 26 16 114l152 766h205l-152 -764q-8 -41 -8 -65q0 -37 21.5 -60.5t60.5 -23.5q101 0 131 149l151 764h205l-215 -1079h-196l16 78q-45 -49 -80 -68q-50 -26 -106 -26q-69 0 -107 23t-63 63q-31 53 -31 129zM360 1481h168l84 -283h-145z" />
<glyph unicode="&#xfa;" horiz-adv-x="808" d="M35 199q0 26 16 114l152 766h205l-152 -764q-8 -41 -8 -65q0 -37 21.5 -60.5t60.5 -23.5q101 0 131 149l151 764h205l-215 -1079h-196l16 78q-45 -49 -80 -68q-50 -26 -106 -26q-69 0 -107 23t-63 63q-31 53 -31 129zM446 1196l197 283h182l-225 -283h-154z" />
<glyph unicode="&#xfb;" horiz-adv-x="808" d="M35 199q0 26 16 114l152 766h205l-152 -764q-8 -41 -8 -65q0 -37 21.5 -60.5t60.5 -23.5q101 0 131 149l151 764h205l-215 -1079h-196l16 78q-45 -49 -80 -68q-50 -26 -106 -26q-69 0 -107 23t-63 63q-31 53 -31 129zM262 1196l248 287h156l133 -287h-144l-86 172 l-147 -172h-160z" />
<glyph unicode="&#xfc;" horiz-adv-x="808" d="M35 199q0 26 16 114l152 766h205l-152 -764q-8 -41 -8 -65q0 -37 21.5 -60.5t60.5 -23.5q101 0 131 149l151 764h205l-215 -1079h-196l16 78q-45 -49 -80 -68q-50 -26 -106 -26q-69 0 -107 23t-63 63q-31 53 -31 129zM268 1217l39 202h193l-39 -202h-193zM606 1217 l39 202h193l-39 -202h-193z" />
<glyph unicode="&#xfd;" horiz-adv-x="739" d="M-123 -379l39 182q97 3 147 50q20 19 49 66.5t44 82.5l-39 1077h213l-6 -760l290 760h232l-531 -1218q-28 -63 -62.5 -107.5t-71 -70t-87.5 -39.5t-99 -18.5t-118 -4.5zM418 1196l196 283h183l-226 -283h-153z" />
<glyph unicode="&#xfe;" horiz-adv-x="788" d="M-82 -379l367 1837h204l-88 -444q30 33 64 53q56 29 106 29q119 0 166 -84q33 -54 33 -142q0 -104 -47 -329q-46 -234 -79.5 -332t-80.5 -143q-85 -82 -196 -82q-66 0 -105 30q-36 29 -49 56l-90 -449h-205zM254 252q0 -41 20 -64q22 -22 60 -22q43 0 78 35 q28 27 51 107.5t55 232.5q43 215 43 276q0 50 -20 70q-20 26 -58 26q-44 0 -75 -28q-43 -43 -56 -113l-92 -465q-6 -30 -6 -55z" />
<glyph unicode="&#xff;" horiz-adv-x="739" d="M-123 -379l39 182q97 3 147 50q20 19 49 66.5t44 82.5l-39 1077h213l-6 -760l290 760h232l-531 -1218q-28 -63 -62.5 -107.5t-71 -70t-87.5 -39.5t-99 -18.5t-118 -4.5zM238 1217l38 202h193l-39 -202h-192zM575 1217l39 202h193l-39 -202h-193z" />
<glyph unicode="&#x152;" horiz-adv-x="1253" d="M53 299q0 129 62 430q46 227 78.5 347.5t65 185t81.5 112.5q54 53 118.5 77t151.5 24q50 0 92.5 -21.5t65.5 -54.5l12 59h586l-39 -194h-364l-86 -433h313l-39 -192h-313l-88 -444h364l-39 -195h-563l10 53q-28 -28 -76.5 -48.5t-95.5 -20.5q-179 0 -250 120 q-26 42 -36.5 86t-10.5 109zM268 305q0 -127 109 -127q59 0 102 43q40 40 71 141t85 367q63 313 63 424q0 127 -108 127q-60 0 -103 -43q-40 -40 -70.5 -140t-84.5 -368q-64 -318 -64 -424z" />
<glyph unicode="&#x153;" horiz-adv-x="1183" d="M29 252q0 84 41 289q43 210 75.5 302.5t85.5 151.5q88 101 250 101q141 0 197 -80q77 80 229 80q146 0 209 -92q41 -59 41 -168t-49 -357h-424q-33 -165 -33 -221q0 -44 23 -70q19 -22 57 -22q47 0 76 29q37 34 57 118h205q-20 -83 -44.5 -135.5t-63.5 -95.5 q-89 -98 -252 -98q-68 0 -120.5 21t-76.5 61q-72 -82 -225 -82q-166 0 -226 110q-32 60 -32 158zM231 260q0 -48 19 -70q21 -24 59 -24q52 0 86 43q27 35 48 110t51 222q43 208 43 278q0 48 -19 70q-21 24 -59 24q-52 0 -86 -43q-27 -36 -48 -110t-51 -219 q-43 -208 -43 -281zM715 635h219q27 126 27 184q0 94 -80 94q-52 0 -86 -43q-24 -29 -41 -82t-39 -153z" />
<glyph unicode="&#x178;" horiz-adv-x="753" d="M162 0l114 582l-83 876h225l22 -590l250 590h238l-439 -897l-110 -561h-217zM305 1569l39 203h193l-39 -203h-193zM643 1569l39 203h192l-38 -203h-193z" />
<glyph unicode="&#x2c6;" d="M244 1196l248 287h155l133 -287h-143l-86 172l-148 -172h-159z" />
<glyph unicode="&#x2dc;" d="M260 1333q92 86 178 86q60 0 117 -35q46 -30 90 -30q28 0 49 11.5t51 37.5l74 -98q-93 -84 -178 -84q-38 0 -62 7t-55 27q-53 31 -90 31q-28 0 -49 -11.5t-51 -37.5z" />
<glyph unicode="&#x2000;" horiz-adv-x="982" />
<glyph unicode="&#x2001;" horiz-adv-x="1964" />
<glyph unicode="&#x2002;" horiz-adv-x="982" />
<glyph unicode="&#x2003;" horiz-adv-x="1964" />
<glyph unicode="&#x2004;" horiz-adv-x="654" />
<glyph unicode="&#x2005;" horiz-adv-x="491" />
<glyph unicode="&#x2006;" horiz-adv-x="327" />
<glyph unicode="&#x2007;" horiz-adv-x="327" />
<glyph unicode="&#x2008;" horiz-adv-x="245" />
<glyph unicode="&#x2009;" horiz-adv-x="392" />
<glyph unicode="&#x200a;" horiz-adv-x="109" />
<glyph unicode="&#x2010;" horiz-adv-x="563" d="M78 494l39 194h391l-39 -194h-391z" />
<glyph unicode="&#x2011;" horiz-adv-x="563" d="M78 494l39 194h391l-39 -194h-391z" />
<glyph unicode="&#x2012;" horiz-adv-x="563" d="M78 494l39 194h391l-39 -194h-391z" />
<glyph unicode="&#x2013;" horiz-adv-x="886" d="M78 494l39 194h714l-38 -194h-715z" />
<glyph unicode="&#x2014;" horiz-adv-x="1368" d="M78 494l39 194h1196l-39 -194h-1196z" />
<glyph unicode="&#x2018;" horiz-adv-x="442" d="M244 1204l51 254l258 174l-86 -428h-223z" />
<glyph unicode="&#x2019;" horiz-adv-x="442" d="M209 1030l86 428h223l-51 -254z" />
<glyph unicode="&#x201a;" horiz-adv-x="442" d="M-31 -174l86 428h224l-52 -254z" />
<glyph unicode="&#x201c;" horiz-adv-x="811" d="M244 1204l51 254l258 174l-86 -428h-223zM608 1204l51 254l259 174l-87 -428h-223z" />
<glyph unicode="&#x201d;" horiz-adv-x="811" d="M209 1030l86 428h223l-51 -254zM573 1030l86 428h224l-52 -254z" />
<glyph unicode="&#x201e;" horiz-adv-x="811" d="M-33 -184l86 428h223l-51 -254zM332 -184l86 428h223l-51 -254z" />
<glyph unicode="&#x2022;" horiz-adv-x="866" d="M145 684q0 129 92.5 221t221.5 92t221 -92t92 -221t-92 -221t-221 -92t-221.5 92t-92.5 221z" />
<glyph unicode="&#x2026;" horiz-adv-x="1265" d="M2 0l47 236h236l-47 -236h-236zM408 0l47 236h235l-47 -236h-235zM813 0l47 236h236l-47 -236h-236z" />
<glyph unicode="&#x202f;" horiz-adv-x="392" />
<glyph unicode="&#x2039;" horiz-adv-x="446" d="M51 565l414 508l-64 -317l-172 -205l90 -203l-59 -293z" />
<glyph unicode="&#x203a;" horiz-adv-x="446" d="M-6 55l63 318l172 205l-90 202l60 293l209 -510z" />
<glyph unicode="&#x205f;" horiz-adv-x="491" />
<glyph unicode="&#x20ac;" horiz-adv-x="980" d="M66 489l32 156h105l33 168h-105l33 156h106q41 179 78.5 262.5t95.5 140.5q103 103 271 103q162 0 241 -97q62 -78 62 -204q0 -58 -6 -95h-217q6 31 6 82q0 119 -103 119q-64 0 -104 -43q-33 -33 -55.5 -89t-51.5 -179h213l-30 -156h-217l-33 -168h215l-31 -156h-211 q-18 -117 -18 -186q0 -125 104 -125q70 0 113 53q46 54 67 150h220q-24 -112 -61 -185t-99 -128q-96 -84 -260 -84q-178 0 -252 116q-27 44 -38 89t-11 112q0 68 18 188h-110z" />
<glyph unicode="&#x2122;" horiz-adv-x="1220" d="M195 563l151 768h-139l26 127h414l-26 -127h-140l-151 -768h-135zM567 563l178 895h121l70 -461l252 461h123l-178 -895h-136l107 537l-174 -336h-82l-39 342l-107 -543h-135z" />
<glyph unicode="&#x25fc;" horiz-adv-x="1075" d="M0 0v1075h1075v-1075h-1075z" />
<glyph unicode="&#xfb01;" horiz-adv-x="894" d="M33 0l178 895h-102l30 154h105l18 94q20 95 54.5 159t93.5 105q50 36 107.5 49.5t158.5 13.5l-37 -182q-76 0 -118.5 -39.5t-57.5 -118.5l-14 -81h141l-31 -154h-143l-178 -895h-205zM483 0l209 1049h205l-209 -1049h-205zM721 1219l45 221h215l-45 -221h-215z" />
<glyph unicode="&#xfb02;" horiz-adv-x="966" d="M33 0l178 895h-102l30 154h105l18 94q20 95 54.5 159t93.5 105q50 36 107.5 49.5t158.5 13.5l-37 -182q-76 0 -118.5 -39.5t-57.5 -118.5l-14 -81h141l-31 -154h-143l-178 -895h-205zM541 238q0 53 8 92l225 1128h205l-221 -1114q-6 -31 -6 -65q0 -45 27.5 -71t82.5 -26 l-35 -182q-153 0 -225 72q-61 61 -61 166z" />
</font>
</defs>
</svg>
