<?xml version="1.0" encoding="utf-8"?>
<!-- Generator: Adobe Illustrator 16.0.0, SVG Export Plug-In . SVG Version: 6.00 Build 0)  -->
<!DOCTYPE svg PUBLIC "-//W3C//DTD SVG 1.0//EN" "http://www.w3.org/TR/2001/REC-SVG-20010904/DTD/svg10.dtd">
<svg version="1.0" id="Layer_1" xmlns="http://www.w3.org/2000/svg" xmlns:xlink="http://www.w3.org/1999/xlink" x="0px" y="0px"
	 width="76.281px" height="76.281px" viewBox="0 0 76.281 76.281" enable-background="new 0 0 76.281 76.281" xml:space="preserve">
<g>
	<path d="M57.209,18.242c0-0.367-0.3-0.667-0.668-0.667h-9.058c-0.367,0-0.667,0.3-0.667,0.667v16.112l10.393-12.182V18.242z
		 M57.209,18.242"/>
	<path d="M46.816,53.577v6.519c0,0.369,0.3,0.667,0.667,0.667h9.058c0.368,0,0.668-0.298,0.668-0.667V29.033L46.816,41.219V53.577z
		 M46.816,53.577"/>
	<path d="M30.634,51.216v8.88c0,0.367,0.3,0.667,0.667,0.667h9.058c0.367,0,0.668-0.3,0.668-0.667V43.741l-4.483-1.31L30.634,51.216
		z M30.634,51.216"/>
	<path d="M36.231,37.699l4.796,1.401V28.709c0-0.369-0.301-0.667-0.668-0.667h-9.058c-0.367,0-0.667,0.298-0.667,0.667v14.529
		l3.127-4.645C34.302,37.789,35.3,37.428,36.231,37.699L36.231,37.699z M36.231,37.699"/>
	<path d="M22.084,42.8l3.652,3.519v-9.814c0-0.37-0.3-0.668-0.67-0.668H16.01c-0.37,0-0.668,0.298-0.668,0.668v9.285l3.782-3.107
		C19.997,41.962,21.271,42.015,22.084,42.8L22.084,42.8z M22.084,42.8"/>
	<g>
		<defs>
			<rect id="SVGID_1_" x="11" y="17.575" width="50.641" height="43.425"/>
		</defs>
		<clipPath id="SVGID_2_">
			<use xlink:href="#SVGID_1_"  overflow="visible"/>
		</clipPath>
		<path clip-path="url(#SVGID_2_)" d="M15.343,51.555v8.541c0,0.369,0.298,0.667,0.668,0.667h9.056c0.37,0,0.67-0.298,0.67-0.667
			v-7.588l-5.315-5.126L15.343,51.555z M15.343,51.555"/>
		<path clip-path="url(#SVGID_2_)" d="M61.16,21.28c-0.467-0.398-1.17-0.343-1.569,0.125L42.912,40.96l-6.881-2.012
			c-0.465-0.138-0.965,0.044-1.235,0.448L27.74,49.874l-6.317-6.094c-0.407-0.392-1.044-0.417-1.481-0.059l-8.536,7.016
			c-0.474,0.39-0.543,1.092-0.154,1.565c0.222,0.271,0.539,0.407,0.861,0.407c0.25,0,0.5-0.083,0.707-0.252l7.771-6.386l6.562,6.326
			c0.237,0.229,0.561,0.34,0.889,0.307c0.329-0.034,0.623-0.213,0.808-0.486l7.339-10.904l6.79,1.985
			c0.42,0.122,0.874-0.011,1.159-0.346l17.147-20.104C61.684,22.383,61.628,21.678,61.16,21.28L61.16,21.28z M61.16,21.28"/>
	</g>
</g>
</svg>
