<?xml version="1.0" encoding="utf-8"?>
<!-- Generator: Adobe Illustrator 16.0.0, SVG Export Plug-In . SVG Version: 6.00 Build 0)  -->
<!DOCTYPE svg PUBLIC "-//W3C//DTD SVG 1.0//EN" "http://www.w3.org/TR/2001/REC-SVG-20010904/DTD/svg10.dtd">
<svg version="1.0" id="Layer_1" xmlns="http://www.w3.org/2000/svg" xmlns:xlink="http://www.w3.org/1999/xlink" x="0px" y="0px"
	 width="76.281px" height="76.281px" viewBox="0 0 76.281 76.281" enable-background="new 0 0 76.281 76.281" xml:space="preserve">
<g>
	<path d="M54.606,34.223V19.41l-9.768-9.769H12.64v55.961h41.966v-0.103c7.873-0.88,13.987-7.54,13.995-15.643
		C68.594,41.754,62.479,35.095,54.606,34.223L54.606,34.223z M44.113,13.86l6.276,6.276h-6.276V13.86z M16.142,62.102V13.134h24.479
		v10.491h10.494v10.598c-3.065,0.34-5.866,1.562-8.138,3.398H19.633v3.492h20.143c-0.717,1.085-1.299,2.254-1.742,3.501H19.633
		v3.501h17.59c-0.061,0.571-0.103,1.152-0.103,1.741c0,4.953,2.288,9.358,5.857,12.245H16.142z M52.856,61.896
		c-6.643-0.018-12.021-5.396-12.03-12.04c0.009-6.643,5.388-12.021,12.03-12.039c6.644,0.017,12.022,5.396,12.04,12.039
		C64.879,56.5,59.5,61.879,52.856,61.896L52.856,61.896z M52.856,61.896"/>
	<rect x="19.633" y="30.629" width="27.981" height="3.494"/>
	<rect x="51.115" y="48.115" width="3.494" height="10.485"/>
	<rect x="51.115" y="41.113" width="3.494" height="3.501"/>
</g>
</svg>
