<?xml version="1.0" encoding="utf-8"?>
<!-- Generator: Adobe Illustrator 16.0.0, SVG Export Plug-In . SVG Version: 6.00 Build 0)  -->
<!DOCTYPE svg PUBLIC "-//W3C//DTD SVG 1.0//EN" "http://www.w3.org/TR/2001/REC-SVG-20010904/DTD/svg10.dtd">
<svg version="1.0" id="Layer_1" xmlns="http://www.w3.org/2000/svg" xmlns:xlink="http://www.w3.org/1999/xlink" x="0px" y="0px"
	 width="76.281px" height="76.281px" viewBox="0 0 76.281 76.281" enable-background="new 0 0 76.281 76.281" xml:space="preserve">
<g>
	<g>
		<path d="M65.928,36.287L40.005,13.489c-1.207-1.064-3.165-1.064-4.356,0L9.732,36.287c-1.208,1.064-0.885,1.925,0.725,1.925h7.997
			V61.56c0,1.272,1.047,2.327,2.328,2.327h9.785V48.529c0-1.272,1.047-2.327,2.328-2.327h9.883c1.288,0,2.327,1.03,2.327,2.327
			v15.357h9.785c1.288,0,2.327-1.046,2.327-2.327V38.205h7.996C66.8,38.205,67.122,37.352,65.928,36.287L65.928,36.287z
			 M65.928,36.287"/>
	</g>
</g>
</svg>
