<?xml version="1.0" encoding="utf-8"?>
<!-- Generator: Adobe Illustrator 16.0.0, SVG Export Plug-In . SVG Version: 6.00 Build 0)  -->
<!DOCTYPE svg PUBLIC "-//W3C//DTD SVG 1.0//EN" "http://www.w3.org/TR/2001/REC-SVG-20010904/DTD/svg10.dtd">
<svg version="1.0" id="Layer_1" xmlns="http://www.w3.org/2000/svg" xmlns:xlink="http://www.w3.org/1999/xlink" x="0px" y="0px"
	 width="76.281px" height="76.281px" viewBox="0 0 76.281 76.281" enable-background="new 0 0 76.281 76.281" xml:space="preserve">
<path fill-rule="evenodd" clip-rule="evenodd" fill="#303136" d="M30.39,9C19.121,9,10,18.03,10,29.186
	C10,40.341,19.121,49.37,30.39,49.37c4.869,0,9.305-1.692,12.822-4.505c0.161,0.277,0.3,0.571,0.55,0.802l12.688,12.595
	c0.708,0.686,1.621,1.029,2.536,1.029s1.831-0.344,2.538-1.052c1.396-1.373,1.396-3.634,0-5.007L48.839,40.638
	c-0.366-0.345-0.755-0.595-1.189-0.777c1.967-3.085,3.109-6.744,3.109-10.675C50.759,18.03,41.637,9,30.39,9z M30.39,15.219
	c7.773,0,14.104,6.262,14.104,13.966c0,2.607-0.755,5.143-2.147,7.385l-1.282,2.033l-1.806,1.439
	c-2.538,2.036-5.6,3.108-8.869,3.108c-7.796,0-14.104-6.263-14.104-13.966C16.286,21.481,22.594,15.219,30.39,15.219z"/>
</svg>
