<?xml version="1.0" encoding="utf-8"?>
<!-- Generator: Adobe Illustrator 16.0.0, SVG Export Plug-In . SVG Version: 6.00 Build 0)  -->
<!DOCTYPE svg PUBLIC "-//W3C//DTD SVG 1.0//EN" "http://www.w3.org/TR/2001/REC-SVG-20010904/DTD/svg10.dtd">
<svg version="1.0" id="Layer_1" xmlns="http://www.w3.org/2000/svg" xmlns:xlink="http://www.w3.org/1999/xlink" x="0px" y="0px"
	 width="76.281px" height="76.281px" viewBox="0 0 76.281 76.281" enable-background="new 0 0 76.281 76.281" xml:space="preserve">
<g>
	<path fill="#ffffff" fill-rule="evenodd" clip-rule="evenodd" d="M37.14,25.086c-1.917,0-3.478,1.562-3.478,3.48s1.561,3.48,3.478,3.48
		c1.917,0,3.471-1.562,3.471-3.48S39.057,25.086,37.14,25.086L37.14,25.086z M37.14,35.514c-1.917,0-3.478,1.553-3.478,3.48v10.424
		c0,1.918,1.561,3.471,3.478,3.471c1.917,0,3.471-1.553,3.471-3.471V38.994C40.611,37.075,39.057,35.514,37.14,35.514L37.14,35.514z
		 M37.14,11.191c-15.33,0-27.801,12.471-27.801,27.803c0,15.328,12.471,27.799,27.801,27.799s27.801-12.471,27.801-27.799
		C64.941,23.662,52.47,11.191,37.14,11.191L37.14,11.191z M37.14,61.576c-12.455,0-22.593-10.13-22.593-22.582
		c0-12.458,10.139-22.595,22.593-22.595c12.454,0,22.584,10.138,22.584,22.595C59.724,51.446,49.594,61.576,37.14,61.576
		L37.14,61.576z M37.14,61.576"/>
</g>
</svg>
