<?xml version="1.0" encoding="utf-8"?>
<!-- Generator: Adobe Illustrator 16.0.0, SVG Export Plug-In . SVG Version: 6.00 Build 0)  -->
<!DOCTYPE svg PUBLIC "-//W3C//DTD SVG 1.0//EN" "http://www.w3.org/TR/2001/REC-SVG-20010904/DTD/svg10.dtd">
<svg version="1.0" id="Layer_1" xmlns="http://www.w3.org/2000/svg" xmlns:xlink="http://www.w3.org/1999/xlink" x="0px" y="0px"
	 width="76.281px" height="76.281px" viewBox="0 0 76.281 76.281" enable-background="new 0 0 76.281 76.281" xml:space="preserve">
<path fill-rule="evenodd" clip-rule="evenodd" fill="#303237" d="M58.25,37.667h-43.5v2.417h43.5V37.667z M58.25,30.417H38.917
	v2.417H58.25V30.417z M58.25,23.167h-43.5v2.417h43.5V23.167z M14.75,32.833h19.333v-2.417H14.75V32.833z M60.667,52.167H26.833
	l-9.667,9.667v-9.667h-4.833c-2.659,0-4.833-2.175-4.833-4.833v-29c0-2.659,2.175-4.833,4.833-4.833h48.333
	c2.659,0,4.833,2.175,4.833,4.833v29C65.5,49.992,63.325,52.167,60.667,52.167z"/>
</svg>
