<?xml version="1.0" encoding="utf-8"?>
<!-- Generator: Adobe Illustrator 16.0.0, SVG Export Plug-In . SVG Version: 6.00 Build 0)  -->
<!DOCTYPE svg PUBLIC "-//W3C//DTD SVG 1.0//EN" "http://www.w3.org/TR/2001/REC-SVG-20010904/DTD/svg10.dtd">
<svg version="1.0" id="Layer_1" xmlns="http://www.w3.org/2000/svg" xmlns:xlink="http://www.w3.org/1999/xlink" x="0px" y="0px"
	 width="43px" height="48px" viewBox="0 0 43 48" enable-background="new 0 0 43 48" xml:space="preserve">
<g>
	<path d="M27.199,20.246v-6.777L22.73,9H8v25.602h19.199v-0.047c3.602-0.402,6.398-3.449,6.402-7.156
		C33.598,23.691,30.801,20.645,27.199,20.246L27.199,20.246z M22.398,10.93l2.871,2.871h-2.871V10.93z M9.602,33V10.598h11.199v4.8
		h4.801v4.848c-1.402,0.156-2.684,0.715-3.723,1.555h-10.68v1.597h9.215C20.086,23.895,19.82,24.43,19.617,25h-8.418v1.602h8.047
		c-0.027,0.262-0.047,0.527-0.047,0.797c0,2.266,1.047,4.281,2.68,5.602H9.602z M26.398,32.906c-3.039-0.008-5.5-2.469-5.503-5.508
		c0.003-3.039,2.464-5.5,5.503-5.507c3.039,0.007,5.5,2.468,5.508,5.507C31.898,30.438,29.438,32.898,26.398,32.906L26.398,32.906z
		 M26.398,32.906"/>
	<rect x="11.199" y="18.602" width="12.801" height="1.598"/>
	<rect x="25.602" y="26.602" width="1.599" height="4.797"/>
	<rect x="25.602" y="23.398" width="1.599" height="1.602"/>
</g>
</svg>
