<?xml version="1.0" encoding="utf-8"?>
<!-- Generator: Adobe Illustrator 16.0.0, SVG Export Plug-In . SVG Version: 6.00 Build 0)  -->
<!DOCTYPE svg PUBLIC "-//W3C//DTD SVG 1.0//EN" "http://www.w3.org/TR/2001/REC-SVG-20010904/DTD/svg10.dtd">
<svg version="1.0" id="Layer_1" xmlns="http://www.w3.org/2000/svg" xmlns:xlink="http://www.w3.org/1999/xlink" x="0px" y="0px"
	 width="51px" height="58px" viewBox="0 0 51 58" enable-background="new 0 0 51 58" xml:space="preserve">
<g>
	<path d="M12.684,18.942c-0.204-0.063-0.383-0.184-0.508-0.414C12.008,18.203,12,17.754,12,16.918v-3.601
		C12,11.145,12.32,11,14.562,11h4.708c0.566,0,0.972,0,1.246,0.278c0.293,0.296,0.293,0.714,0.285,1.632v4.157
		c0,0.765,0,1.148-0.094,1.421c-0.18,0.524-0.656,0.524-0.887,0.524c-0.078,0-0.168,0-0.265-0.004
		C19.434,19.004,19.293,19,19.133,19h-4.742c-0.239,0-0.45,0.004-0.637,0.008c-0.07,0.004-0.137,0-0.199,0
		C13.441,19.008,13.035,19.059,12.684,18.942L12.684,18.942z M12.684,18.942"/>
	<path d="M40.832,11H23.168c-0.422,0-0.77,0.621-0.77,1.391V12.5c0,0.77,0.348,1.699,0.77,1.699h17.664
		c0.77,0,0.77-0.929,0.77-1.699v-0.109C41.602,11.621,41.602,11,40.832,11L40.832,11z M40.832,11"/>
	<path d="M38.34,15.801H23.09c-0.383,0-0.692,0.621-0.692,1.391v0.109c0,0.77,0.309,1.699,0.692,1.699h15.191
		c0.383,0,0.918-0.082,0.918-1.699v-0.109C39.199,16.004,38.719,15.801,38.34,15.801L38.34,15.801z M38.34,15.801"/>
	<path d="M12.684,31.742c-0.204-0.062-0.383-0.183-0.508-0.418C12.008,31.004,12,30.555,12,29.719v-3.605
		c0-2.171,0.32-2.312,2.562-2.312h4.708c0.566,0,0.972,0,1.246,0.277c0.293,0.293,0.293,0.715,0.285,1.633v4.156
		c0,0.766,0,1.149-0.094,1.422c-0.18,0.524-0.656,0.524-0.887,0.524c-0.078,0-0.168-0.004-0.265-0.004
		c-0.121-0.005-0.262-0.009-0.422-0.009h-4.742c-0.239,0-0.45,0.004-0.637,0.009c-0.07,0-0.137,0-0.199,0
		C13.441,31.805,13.035,31.856,12.684,31.742L12.684,31.742z M12.684,31.742"/>
	<path d="M40.832,23.801H23.168c-0.422,0-0.77,0.621-0.77,1.391v0.109c0,0.77,0.348,1.699,0.77,1.699h17.664
		c0.77,0,0.77-0.929,0.77-1.699v-0.109C41.602,24.422,41.602,23.801,40.832,23.801L40.832,23.801z M40.832,23.801"/>
	<path d="M38.34,28.603H23.09c-0.383,0-0.692,0.621-0.692,1.39v0.11c0,0.765,0.309,1.698,0.692,1.698h15.191
		c0.383,0,0.918-0.082,0.918-1.698v-0.11C39.199,28.805,38.719,28.603,38.34,28.603L38.34,28.603z M38.34,28.603"/>
	<path d="M12.684,44.543c-0.204-0.062-0.383-0.187-0.508-0.418C12.008,43.806,12,43.353,12,42.521v-3.606
		c0-2.172,0.32-2.312,2.562-2.312h4.708c0.566,0,0.972,0,1.246,0.272c0.293,0.297,0.293,0.719,0.285,1.637v4.156
		c0,0.763,0,1.146-0.094,1.422c-0.18,0.523-0.656,0.523-0.887,0.523c-0.078,0-0.168-0.003-0.265-0.007
		c-0.121,0-0.262-0.004-0.422-0.004h-4.742c-0.239,0-0.45,0.004-0.637,0.008c-0.07,0-0.137,0-0.199,0
		C13.441,44.606,13.035,44.656,12.684,44.543L12.684,44.543z M12.684,44.543"/>
	<path d="M40.832,36.603H23.168c-0.422,0-0.77,0.621-0.77,1.39v0.11c0,0.765,0.348,1.698,0.77,1.698h17.664
		c0.77,0,0.77-0.934,0.77-1.698v-0.11C41.602,37.224,41.602,36.603,40.832,36.603L40.832,36.603z M40.832,36.603"/>
	<path d="M38.34,41.399H23.09c-0.383,0-0.692,0.625-0.692,1.39v0.114c0,0.765,0.309,1.699,0.692,1.699h15.191
		c0.383,0,0.918-0.086,0.918-1.699v-0.114C39.199,41.606,38.719,41.399,38.34,41.399L38.34,41.399z M38.34,41.399"/>
</g>
</svg>
