<svg xmlns="http://www.w3.org/2000/svg" xmlns:xlink="http://www.w3.org/1999/xlink" preserveAspectRatio="xMidYMid" width="27" height="27" viewBox="0 0 27 27">
  <defs>
    <style>

      .cls-2 {
        fill: #414141;
      }
    </style>
  </defs>
  <path d="M27.000,1.565 C27.000,1.565 25.435,0.000 25.435,0.000 C25.435,0.000 13.500,11.935 13.500,11.935 C13.500,11.935 1.565,0.000 1.565,0.000 C1.565,0.000 -0.000,1.565 -0.000,1.565 C-0.000,1.565 11.935,13.500 11.935,13.500 C11.935,13.500 -0.000,25.435 -0.000,25.435 C-0.000,25.435 1.565,27.000 1.565,27.000 C1.565,27.000 13.500,15.065 13.500,15.065 C13.500,15.065 25.435,27.000 25.435,27.000 C25.435,27.000 27.000,25.435 27.000,25.435 C27.000,25.435 15.064,13.500 15.064,13.500 C15.064,13.500 27.000,1.565 27.000,1.565 Z" id="path-1" class="cls-2" fill-rule="evenodd"/>
</svg>
