<?xml version="1.0" encoding="utf-8"?>
<!-- Generator: Adobe Illustrator 16.0.0, SVG Export Plug-In . SVG Version: 6.00 Build 0)  -->
<!DOCTYPE svg PUBLIC "-//W3C//DTD SVG 1.0//EN" "http://www.w3.org/TR/2001/REC-SVG-20010904/DTD/svg10.dtd">
<svg version="1.0" id="Layer_1" xmlns="http://www.w3.org/2000/svg" xmlns:xlink="http://www.w3.org/1999/xlink" x="0px" y="0px"
	 width="64.172px" height="59.236px" viewBox="0 0 64.172 59.236" enable-background="new 0 0 64.172 59.236" xml:space="preserve">
<path d="M19.262,22.283v22.716h22.714V31.754l4.261-4.739v19.402c0,1.383-1.449,2.84-2.913,2.84H17.843
	c-1.364,0-2.84-1.452-2.84-2.791V20.861c0-1.369,1.445-2.836,2.911-2.836h19.891l-4.173,4.258H19.262z M29.896,40.438l-6.09,1.525
	l1.519-6.092L29.896,40.438z M30.534,39.324l-4.171-4.448l13.639-14.562l4.316,4.311L30.534,39.324z M46.786,21.975l-1.088,1.185
	l-4.318-4.307l1.236-1.326c1.163-1.231,3.021-1.231,4.17,0C47.939,18.752,47.939,20.75,46.786,21.975z"/>
</svg>
