<svg xmlns="http://www.w3.org/2000/svg" xmlns:xlink="http://www.w3.org/1999/xlink" preserveAspectRatio="xMidYMid" width="19" height="22" viewBox="0 0 19 22">
  <defs>
    <style>

      .cls-2 {
        fill: #9b232c;
      }
    </style>
  </defs>
  <path d="M18.230,11.531 C17.804,11.531 17.460,11.882 17.460,12.316 C17.460,16.790 13.889,20.429 9.500,20.429 C5.111,20.429 1.541,16.790 1.541,12.316 C1.541,8.107 4.701,4.638 8.730,4.242 C8.730,4.242 8.730,6.049 8.730,6.049 C8.730,6.330 8.877,6.589 9.115,6.729 C9.234,6.799 9.367,6.834 9.500,6.834 C9.633,6.834 9.766,6.799 9.885,6.729 C9.885,6.729 14.358,4.097 14.358,4.097 C14.597,3.957 14.743,3.698 14.743,3.417 C14.743,3.136 14.597,2.877 14.358,2.737 C14.358,2.737 9.885,0.104 9.885,0.104 C9.647,-0.036 9.353,-0.036 9.115,0.104 C8.877,0.244 8.730,0.504 8.730,0.784 C8.730,0.784 8.730,2.666 8.730,2.666 C3.851,3.067 -0.000,7.240 -0.000,12.316 C-0.000,17.656 4.262,22.000 9.500,22.000 C14.738,22.000 19.000,17.656 19.000,12.316 C19.000,11.882 18.655,11.531 18.230,11.531 Z" id="path-1" class="cls-2" fill-rule="evenodd"/>
</svg>
