<?xml version="1.0" encoding="utf-8"?>
<!-- Generator: Adobe Illustrator 16.0.0, SVG Export Plug-In . SVG Version: 6.00 Build 0)  -->
<!DOCTYPE svg PUBLIC "-//W3C//DTD SVG 1.0//EN" "http://www.w3.org/TR/2001/REC-SVG-20010904/DTD/svg10.dtd">
<svg version="1.0" id="Layer_1" xmlns="http://www.w3.org/2000/svg" xmlns:xlink="http://www.w3.org/1999/xlink" x="0px" y="0px"
	 width="76.281px" height="76.281px" viewBox="0 0 76.281 76.281" enable-background="new 0 0 76.281 76.281" xml:space="preserve">
<g>
	<path d="M58.029,31.74l-0.91-2.155c3.117-7.046,2.91-7.259,2.306-7.871l-3.985-3.887l-0.396-0.335h-0.463
		c-0.24,0-0.967,0-7.022,2.746l-2.227-0.896C42.45,12.2,42.157,12.2,41.313,12.2h-5.618c-0.845,0-1.171,0-3.84,7.164l-2.22,0.901
		c-4.09-1.725-6.491-2.603-7.138-2.603l-0.532,0.02l-4.283,4.196c-0.651,0.614-0.878,0.831,2.419,7.764l-0.91,2.156
		C11.9,34.613,11.9,34.887,11.9,35.75v5.507c0,0.863,0,1.17,7.32,3.793l0.905,2.145c-3.118,7.042-2.91,7.256-2.302,7.859
		l3.981,3.899l0.396,0.341h0.462c0.24,0,0.958,0,7.022-2.756l2.222,0.905c2.882,7.137,3.18,7.137,4.023,7.137h5.619
		c0.863,0,1.165,0,3.845-7.158l2.23-0.906c4.085,1.73,6.48,2.607,7.122,2.607l0.538-0.015l4.315-4.23
		c0.613-0.616,0.83-0.829-2.447-7.74l0.9-2.149c7.302-2.826,7.302-3.124,7.302-3.962v-5.504
		C65.354,34.655,65.354,34.353,58.029,31.74L58.029,31.74z M38.624,47.555c-5.151,0-9.343-4.112-9.343-9.167
		c0-5.052,4.192-9.161,9.343-9.161s9.339,4.109,9.339,9.161C47.964,43.442,43.775,47.555,38.624,47.555L38.624,47.555z
		 M38.624,47.555"/>
</g>
</svg>
