<?xml version="1.0" encoding="utf-8"?>
<!-- Generator: Adobe Illustrator 16.0.0, SVG Export Plug-In . SVG Version: 6.00 Build 0)  -->
<!DOCTYPE svg PUBLIC "-//W3C//DTD SVG 1.0//EN" "http://www.w3.org/TR/2001/REC-SVG-20010904/DTD/svg10.dtd">
<svg version="1.0" id="Layer_1" xmlns="http://www.w3.org/2000/svg" xmlns:xlink="http://www.w3.org/1999/xlink" x="0px" y="0px"
	 width="76.281px" height="76.281px" viewBox="0 0 76.281 76.281" enable-background="new 0 0 76.281 76.281" xml:space="preserve">
<g>
	<path d="M15.374,23.64c-0.326-0.101-0.612-0.293-0.812-0.661c-0.268-0.519-0.28-1.236-0.28-2.57v-5.747
		c0-3.467,0.51-3.698,4.089-3.698h7.514c0.903,0,1.552,0,1.989,0.444c0.468,0.472,0.468,1.139,0.454,2.604v6.635
		c0,1.22,0,1.832-0.149,2.268c-0.288,0.836-1.047,0.836-1.416,0.836c-0.125,0-0.269,0-0.423-0.007
		c-0.193-0.007-0.418-0.013-0.674-0.013h-7.567c-0.382,0-0.719,0.006-1.017,0.013c-0.112,0.007-0.218,0-0.317,0
		C16.582,23.745,15.934,23.826,15.374,23.64L15.374,23.64z M15.374,23.64"/>
	<path d="M60.298,10.964H32.106c-0.673,0-1.229,0.991-1.229,2.22v0.173c0,1.229,0.556,2.712,1.229,2.712h28.191
		c1.229,0,1.229-1.482,1.229-2.712v-0.173C61.526,11.955,61.526,10.964,60.298,10.964L60.298,10.964z M60.298,10.964"/>
	<path d="M56.32,18.626H31.981c-0.61,0-1.104,0.991-1.104,2.22v0.174c0,1.229,0.494,2.711,1.104,2.711h24.245
		c0.611,0,1.466-0.131,1.466-2.711v-0.174C57.692,18.95,56.925,18.626,56.32,18.626L56.32,18.626z M56.32,18.626"/>
	<path d="M15.374,44.068c-0.326-0.101-0.612-0.292-0.812-0.667c-0.268-0.512-0.28-1.229-0.28-2.562v-5.754
		c0-3.465,0.51-3.69,4.089-3.69h7.514c0.903,0,1.552,0,1.989,0.441c0.468,0.468,0.468,1.141,0.454,2.606v6.634
		c0,1.222,0,1.834-0.149,2.269c-0.288,0.837-1.047,0.837-1.416,0.837c-0.125,0-0.269-0.006-0.423-0.006
		c-0.193-0.008-0.418-0.015-0.674-0.015h-7.567c-0.382,0-0.719,0.007-1.017,0.015c-0.112,0-0.218,0-0.317,0
		C16.582,44.168,15.934,44.251,15.374,44.068L15.374,44.068z M15.374,44.068"/>
	<path d="M60.298,31.395H32.106c-0.673,0-1.229,0.991-1.229,2.22v0.174c0,1.229,0.556,2.711,1.229,2.711h28.191
		c1.229,0,1.229-1.482,1.229-2.711v-0.174C61.526,32.386,61.526,31.395,60.298,31.395L60.298,31.395z M60.298,31.395"/>
	<path d="M56.32,39.057H31.981c-0.61,0-1.104,0.992-1.104,2.219v0.176c0,1.221,0.494,2.71,1.104,2.71h24.245
		c0.611,0,1.466-0.13,1.466-2.71v-0.176C57.692,39.38,56.925,39.057,56.32,39.057L56.32,39.057z M56.32,39.057"/>
	<path d="M15.374,64.498c-0.326-0.098-0.612-0.298-0.812-0.667c-0.268-0.51-0.28-1.232-0.28-2.561v-5.757
		c0-3.465,0.51-3.688,4.089-3.688h7.514c0.903,0,1.552,0,1.989,0.435c0.468,0.474,0.468,1.147,0.454,2.612v6.633
		c0,1.218,0,1.829-0.149,2.27c-0.288,0.836-1.047,0.836-1.416,0.836c-0.125,0-0.269-0.004-0.423-0.011
		c-0.193,0-0.418-0.007-0.674-0.007h-7.567c-0.382,0-0.719,0.007-1.017,0.014c-0.112,0-0.218,0-0.317,0
		C16.582,64.6,15.934,64.679,15.374,64.498L15.374,64.498z M15.374,64.498"/>
	<path d="M60.298,51.825H32.106c-0.673,0-1.229,0.992-1.229,2.218v0.176c0,1.221,0.556,2.71,1.229,2.71h28.191
		c1.229,0,1.229-1.489,1.229-2.71v-0.176C61.526,52.817,61.526,51.825,60.298,51.825L60.298,51.825z M60.298,51.825"/>
	<path d="M56.32,59.481H31.981c-0.61,0-1.104,0.997-1.104,2.218v0.183c0,1.221,0.494,2.711,1.104,2.711h24.245
		c0.611,0,1.466-0.137,1.466-2.711v-0.183C57.692,59.811,56.925,59.481,56.32,59.481L56.32,59.481z M56.32,59.481"/>
</g>
</svg>
