<?xml version="1.0" encoding="utf-8"?>
<!-- Generator: Adobe Illustrator 16.0.0, SVG Export Plug-In . SVG Version: 6.00 Build 0)  -->
<!DOCTYPE svg PUBLIC "-//W3C//DTD SVG 1.0//EN" "http://www.w3.org/TR/2001/REC-SVG-20010904/DTD/svg10.dtd">
<svg version="1.0" id="Layer_1" xmlns="http://www.w3.org/2000/svg" xmlns:xlink="http://www.w3.org/1999/xlink" x="0px" y="0px"
	 width="76.281px" height="76.281px" viewBox="0 0 76.281 76.281" enable-background="new 0 0 76.281 76.281" xml:space="preserve">
<path d="M20.411,41.63c0.126-0.024,0.252-0.024,0.403,0c0.128,0,0.331,0.053,0.457,0.102v0.052c0.556,0.178,1.062,0.607,0.808,1.314
	c-0.403,0.152-0.859-0.151-1.112-0.479C20.058,42.062,20.083,41.731,20.411,41.63z M25.572,34.601
	c0.177,0.025-0.052,0.276-0.304,0.203h-0.052c-0.05,0-0.074-0.076-0.099-0.104C25.341,34.601,25.494,34.601,25.572,34.601z
	 M30.856,32.527c0.682-0.126,2.073,0.38,0.759,1.163c0.43-0.43-0.279-0.279-0.405-0.254C30.378,32.855,30.476,32.601,30.856,32.527z
	 M45.399,28.683c0.556-0.027,1.795,0.556,1.694,1.339c-0.556,0.884-2.051,0.81-1.467-0.504C45.019,28.96,45.07,28.708,45.399,28.683
	z M30.906,22.738c1.694-0.102,1.368,3.619-0.05,4.199c-1.215-1.138,0.406-2.783-0.303-4.097
	C30.703,22.79,30.807,22.738,30.906,22.738z M36.117,19.856c1.038-0.128,2.074,0.302,2.376,1.517
	c0.709,2.884-2.174,4.754-3.236,7.133c-2.657-0.761,0.151-3.668-0.988-5.11C32.652,21.753,34.399,20.083,36.117,19.856z
	 M34.144,19.402c0.126,0,0.203,0.024,0.304,0.049c0.608,0,0.405,0.682,0,0.859c-1.417,1.366-1.795-0.608-0.607-0.859
	C33.941,19.451,34.043,19.402,34.144,19.402z M26.735,15.507c3.465,1.188-1.771,4.88,0.859,6.323c0.254,0,0.481,0.074,0.684,0.151
	c0.074-0.077,0.099-0.025,0.099,0.049c1.19,0.558,1.443,2.228-0.479,2.124c-2.682-0.758-3.744,4.932-1.114,4.223
	c0.961-2.68,3.87-1.541,4.376,0.835c1.568,2.403-1.618,2.378-2.707,3.416c1.089,1.998-1.949,0.96-3.085,1.921
	c-2.176,0.481-2.857,3.793-4.754,3.895c-0.077-3.465-5.843-2.302-4.883,0.859c1.215,0.964,2.86,1.948,2.606,3.972
	c-0.077,4.3,5.184,2.883,7.535,5.159c2.86,1.265,4.732,3.87,7.262,5.564c2.198-0.761,6.701,1.342,4.524,3.972
	c-1.314,0.958-3.969,1.818-3.969,2.376v0.052c-3.465,0.328-2.403,0.581-3.391,0.654c-1.971-0.58-4.021-1.439-5.715-2.477
	c-0.025-0.024-0.099-0.024-0.126-0.053c-0.758-2.249-2.909-3.665-4.349-5.487c-0.734-0.756-0.884-1.591-0.811-2.478
	c0,0-0.049-0.052-0.024-0.052c0.077-1.44,0.583-2.959-0.455-4.297c-1.669-2.732-3.744-5.262-4.807-8.321
	c-0.125-3.161-0.303-6.197,0.759-9.206C17.099,23.901,22.913,18.77,26.735,15.507z M37.179,12.192
	c9.864,0,18.41,5.743,22.458,14.085c0.025,0,0,0.027,0,0.052c0.052,0.304,0.077,0.581,0.052,0.912
	c0.228,0.177,0.455,0.454,0.706,0.758c0.584,1.417,0.986,2.934,1.266,4.478c-0.228,0.227-0.556,0.378-1.038,0.403
	c-2.603-2.023-0.073,2.25,1.341,1.467c0.127,0.936,0.203,1.872,0.203,2.833c0,6.17-2.274,11.786-6.019,16.162
	c0-0.152,0.049-0.355,0.126-0.659c1.722-2.124,1.391-6.271-2.124-5.815c-1.846,1.441-4.401,3.286-6.627,1.162
	c-2.326-2.1-1.24-5.564,0.049-7.916c1.316-1.896,1.747-4.705,4.049-5.666c2.274,0.507,5.083,0.356,5.893-2.428
	c0.734-1.237,0.328-1.642-0.328-1.971l-0.153-0.027c-0.758-0.329-1.72-0.583-1.82-1.694c0.685-1.164-0.759-3.542-1.316-1.391
	c1.163,1.316,1.442,5.311-1.366,3.819c0.988,1.618-3.615,0.58-2.729,2.833c0.731,2.453-4.174,3.818-2.784,0.709
	c0.811-2.302-0.353-5.742,1.67-7.209c0-0.074,0.178-0.378,0.102-0.05l0.202-0.15c1.771-1.243-2.252-4.908-2.022-2.631
	c1.746,0.909,0.782,2.732-0.887,1.82c-1.793-0.886-2.426-5.742,0.024-5.411c1.873,0.252,0.102-1.722-0.73-2.683
	c-0.102,0.455-0.255-0.076-0.178-0.126l-0.154-0.177c0.255-2.908-4.628-0.354-5.436-2.959c-3.085-1.543-6.577-1.618-9.99-1.366
	c1.289-0.43,2.63-0.657,4.021-0.859l0.405-0.049c0.38-0.052,0.761-0.08,1.114-0.153C35.813,12.244,36.498,12.192,37.179,12.192z
	 M37.179,9.359c-15.353,0-27.82,12.47-27.82,27.82C9.359,52.532,21.827,65,37.179,65C52.529,65,65,52.532,65,37.18
	C65,21.83,52.529,9.359,37.179,9.359z"/>
</svg>
