<?xml version="1.0" encoding="utf-8"?>
<!-- Generator: Adobe Illustrator 16.0.0, SVG Export Plug-In . SVG Version: 6.00 Build 0)  -->
<!DOCTYPE svg PUBLIC "-//W3C//DTD SVG 1.0//EN" "http://www.w3.org/TR/2001/REC-SVG-20010904/DTD/svg10.dtd">
<svg version="1.0" id="Layer_1" xmlns="http://www.w3.org/2000/svg" xmlns:xlink="http://www.w3.org/1999/xlink" x="0px" y="0px"
	 width="76.281px" height="76.281px" viewBox="0 0 76.281 76.281" enable-background="new 0 0 76.281 76.281" xml:space="preserve">
<g>
	<g>
		<path fill="#231F20" d="M28.347,23.453l-1.087-0.3l-1.343,1.441l1.725,4.508l0.826,0.204l0.06-1.463l0.555-0.338l0.031-0.563
			l0.579-1.072l-0.405-0.811L28.347,23.453z M45.884,32.968l-0.188-1.217l-0.397-0.583l0.472-0.196v-0.586l-1.215,0.661l0.428,1.097
			l-0.188,0.742L45.884,32.968z M43.73,31.64l-2.034-1.058l-0.623,1.095l0.27,0.503l1.186-0.188l0.855,0.232L43.73,31.64z
			 M65.747,26.74l0.052,1.11l-1.261,1.546l-0.044-1.74l1.635-1.982l-1.012,0.15l-1.306,1.059l-1.598-0.099l-1.208,1.164l0.87,0.631
			l-1.012,2.806l-0.871,0.143l-0.533,0.774l0.241,1.02l-0.624,0.331l-0.194-0.916l-0.534-0.728l-0.728,0.774l0.578,1.643l-0.818,1.5
			l-1.793,0.098l-0.383,0.622l0.818,1.209l-0.871,0.728l-0.893-0.922l-0.03,0.871l0.78,0.87l0.337,1.552l0.968,0.337l1.306,0.535
			l-2.417-0.437l-1.02-0.968l-0.916-1.306l1.253,0.632l-0.578-1.059l-0.12-1.448l-0.555,0.142l-0.675-1.448l-1.891,1.306v0.832
			l-0.675,0.669l-0.863-2.177l-0.966-1.163l-2.328-0.436l-0.675-0.571l-0.338,0.189l0.48,1.164l0.773-0.392l1.02,0.774l-2.994,1.792
			l-1.554-3.046l-0.33,0.062l1.583,3.615l1.545-0.726l-0.48,1.694l-1.546,1.397l0.241,2.078l-0.871,0.675l-1.591,3l-1.598,0.285
			l-1.403-3.382l0.337-1.548l-0.87-2.708l-2.948,0.194l-1.646-1.598l0.288-2.61l1.598-1.936l3.098-0.533l0.195,0.826l1.253,0.816
			l0.48-0.675l1.921,0.497l0.503-0.302l0.218-0.728l-1.33-0.217l-0.426-0.744l-0.315-0.158l-0.27,0.94l-0.593-0.752l0.037-0.623
			l-0.788-0.622l-0.465-0.233l0.037,0.622l0.983,0.667l-0.51,0.586l-0.705-0.938l-0.51-0.593l-1.17,0.593l-0.825,1.292l-1.254-0.196
			l-0.075-1.56l1.598,0.112l-0.503-0.819l-0.315-0.667l1.217-0.398l0.66-0.893l0.548-0.046l-0.112-0.509l0.353-0.464l0.27,0.779
			l1.531,0.037l0.427-1.102l0.593,0.204l-0.203-0.744l0.908-0.292l-0.278-0.331l-0.826,0.225l-0.285-0.697l-0.038-0.009l0.023-0.045
			l-0.12-0.299l0.33-0.233l0.285-0.735l-0.308-0.044l-0.51,0.622l-0.428,0.938l0.473,0.51l-0.473,1.252l-0.706,0.271l-0.39-1.247
			l-0.818,0.467l-0.39-0.235l0.03-1.213l0.712-0.542l0.585-1.446l1.493-0.818l3.714,0.682c4.286-0.45,12.059-1.275,12.059-1.275
			l12.831,1.809l0.488,1.351l-1.748,0.974L65.747,26.74z M44.008,43.142l-0.045,1.568l0.628,0.277l0.632-1.881l-0.165-0.782
			L44.008,43.142z M35.16,26.551v1.413l0.977-0.429l0.279-0.434l-1.059-2.035L34.734,25.5l0.037,0.542l-0.592,0.711l-0.039,0.744
			h0.705L35.16,26.551z M67.487,46.908l0.143,1.351l-1.493,1.405l0.96,0.089l0.87-1.304l0.675-0.917l-0.435-0.043L67.487,46.908z
			 M62.264,29.35h-0.337l-0.053,1.743l-0.87,1.838l-1.111,0.816l-0.045,0.728l2.026-1.208l0.098-1.26l0.675-0.623l-0.532-0.429
			l0.292-1.02L62.264,29.35z M59.893,40.328l1.306,1.351l0.75,0.055l0.315-0.295l1.057,0.678l-0.426-0.917l-1.988-0.968
			L59.893,40.328z M56.021,40.808l1.26,0.24l0.578-1.784l-0.338-0.293l-1.688,1.066L56.021,40.808z M61.89,42.023l-0.158,1.253
			l-1.058-0.39l0.196-0.673l-1.163-0.09l-1.509,1.394l-1.591,0.585l0.383,2.17l-0.143,0.435l0.586,0.336l2.363-0.583l0.924,0.533
			l0.435-0.24l0.285,0.876l1.208,0.339l0.871-0.535l0.487-2.611l-1.313-1.306L61.89,42.023z M26.937,42.686l2.59,1.251l-1.479,3.024
			l-1.477,0.227l-0.227,1.178l-3.024,2.587l-1.402,2.649l1.035,1.113l-1.696-0.445l-0.594-1.477l1.696-6.86l-1.402-1.251
			l-0.66-2.658l0.795-1.298l-0.721,0.115l-1.035-1.33l-0.885-0.441l-2.064-0.736l-1.703-2.657l-1.028-1.921v-2.579l-1.696-2.881
			l-2.146-1.329L8.487,27.7l-2.433,1.186l1.547-1.253l-0.96-0.224l-0.361-1.255l1.103-0.885l-1.103-0.15l0.217-0.81h0.81
			l-0.733-1.103l1.988-1.186l3.617,1.996l1.335-1.252l2.874,1.696l5.531-0.594v2.807l-2.215,0.435l-0.441,1.188l2.146,2.288
			l0.51-0.075l0.368-2.874l1.411-0.075l0.583,1.622l0.736-0.443l1.629,3.616l-2.291,1.028l-1.771,0.96l-1.402,1.921v0.96
			l-0.519,0.075l-0.367-1.035l-1.988,0.292l-0.444,1.255l0.511,0.741l0.735-0.592l0.744,0.067l-0.369,1.058l0.885,0.06l0.292,1.102
			l0.594,0.205l0.443-0.72l2.949,0.291l1.996,1.48L26.937,42.686z"/>
	</g>
</g>
</svg>
