<?xml version="1.0" encoding="utf-8"?>
<!-- Generator: Adobe Illustrator 16.0.0, SVG Export Plug-In . SVG Version: 6.00 Build 0)  -->
<!DOCTYPE svg PUBLIC "-//W3C//DTD SVG 1.0//EN" "http://www.w3.org/TR/2001/REC-SVG-20010904/DTD/svg10.dtd">
<svg version="1.0" id="Layer_1" xmlns="http://www.w3.org/2000/svg" xmlns:xlink="http://www.w3.org/1999/xlink" x="0px" y="0px"
	 width="76.281px" height="76.281px" viewBox="0 0 76.281 76.281" enable-background="new 0 0 76.281 76.281" xml:space="preserve">
<g>
	<path fill="#303237" d="M36.927,62.05c-6.277,0-12.178-2.444-16.617-6.883c-9.163-9.163-9.163-24.072,0-33.234
		c4.438-4.438,10.34-6.882,16.617-6.882s12.178,2.444,16.617,6.882c9.163,9.163,9.163,24.072,0,33.234
		C49.105,59.606,43.204,62.05,36.927,62.05z M36.927,18.051c-5.476,0-10.624,2.132-14.496,6.003c-7.993,7.993-7.993,20.999,0,28.992
		c3.872,3.872,9.02,6.004,14.496,6.004s10.624-2.132,14.496-6.004c7.993-7.993,7.993-20.999,0-28.992
		C47.55,20.183,42.402,18.051,36.927,18.051z"/>
</g>
</svg>
