<?xml version="1.0" standalone="no"?>
<!DOCTYPE svg PUBLIC "-//W3C//DTD SVG 1.1//EN" "http://www.w3.org/Graphics/SVG/1.1/DTD/svg11.dtd" >
<svg xmlns="http://www.w3.org/2000/svg">
<metadata></metadata>
<defs>
<font id="din_otcondensed_light" horiz-adv-x="692" >
<font-face units-per-em="2048" ascent="1565" descent="-483" />
<missing-glyph horiz-adv-x="409" />
<glyph horiz-adv-x="0" />
<glyph horiz-adv-x="0" />
<glyph horiz-adv-x="682" />
<glyph unicode="&#xd;" horiz-adv-x="409" />
<glyph unicode=" "  horiz-adv-x="409" />
<glyph unicode="&#x09;" horiz-adv-x="409" />
<glyph unicode="&#xa0;" horiz-adv-x="409" />
<glyph unicode="!" horiz-adv-x="442" d="M193 0v119h118v-119h-118zM213 373v1085h78v-1085h-78z" />
<glyph unicode="&#x22;" horiz-adv-x="659" d="M119 1098v360h106v-360h-106zM434 1098v360h107v-360h-107z" />
<glyph unicode="#" horiz-adv-x="944" d="M119 492v67h157l46 361h-150v67h158l57 471h70l-58 -471h205l58 471h69l-57 -471h149v-67h-157l-45 -361h151v-67h-160l-59 -492h-70l60 492h-205l-59 -492h-70l59 492h-149zM346 559h205l45 361h-205z" />
<glyph unicode="$" horiz-adv-x="794" d="M88 354h82q0 -96 13.5 -148.5t49.5 -88.5q45 -45 121 -51v657l-67 29q-111 45 -150 121t-39 241q0 189 92 281q68 64 164 73v183h74v-183q104 -9 168 -73q49 -51 65.5 -111.5t16.5 -159.5h-82q0 78 -13.5 127t-47.5 88q-41 44 -107 56v-613l72 -28q56 -22 92 -56 t54.5 -84t25 -105t6.5 -136q0 -117 -21.5 -190.5t-68.5 -123.5q-57 -57 -160 -69v-223h-74v221q-120 6 -182 71q-48 50 -66 112.5t-18 182.5zM180 1116q0 -141 31.5 -199.5t138.5 -101.5l4 -2v582q-64 -9 -102 -47q-72 -69 -72 -232zM428 68q61 8 102 49q39 39 52.5 95.5 t13.5 158.5q0 147 -32.5 213.5t-127.5 105.5l-8 4v-626z" />
<glyph unicode="%" horiz-adv-x="1179" d="M119 897v389q0 84 49.5 136.5t130.5 52.5t130.5 -52.5t49.5 -136.5v-389q0 -84 -49.5 -136t-130.5 -52t-130.5 52t-49.5 136zM190 897q0 -58 28 -91.5t81 -33.5t81 33.5t28 91.5v389q0 58 -28 91.5t-81 33.5t-81 -33.5t-28 -91.5v-389zM301 0l508 1458h70l-508 -1458h-70 zM700 172v389q0 84 50 136.5t131 52.5t130.5 -52.5t49.5 -136.5v-389q0 -84 -49.5 -136t-130.5 -52t-131 52t-50 136zM772 172q0 -58 28 -91.5t81 -33.5t80.5 33.5t27.5 91.5v389q0 58 -27.5 91.5t-80.5 33.5t-81 -33.5t-28 -91.5v-389z" />
<glyph unicode="&#x26;" horiz-adv-x="985" d="M82 328q0 132 60.5 235t205.5 232q-124 176 -159 244.5t-35 150.5q0 52 16 100.5t47 89.5t83.5 65.5t119.5 24.5q128 0 197 -72t69 -192q0 -125 -50.5 -211t-186.5 -211l305 -456q42 67 73 171t37 199h82q-22 -265 -145 -440l172 -258h-96l-125 188q-40 -51 -72 -84 t-74.5 -62.5t-93 -43.5t-113.5 -14q-134 0 -225.5 93t-91.5 251zM164 338q0 -117 64.5 -199t179.5 -82q85 0 154 51t145 148l-318 477q-119 -114 -172 -204.5t-53 -190.5zM236 1192q0 -66 31.5 -128.5t140.5 -217.5q106 100 151 174t45 182q0 87 -51.5 142t-132.5 55 q-91 0 -137.5 -64t-46.5 -143z" />
<glyph unicode="'" horiz-adv-x="344" d="M119 1098v360h106v-360h-106z" />
<glyph unicode="(" horiz-adv-x="421" d="M127 143v1172q0 111 37 184q32 61 123 152l53 -54l-14 -14l-15.5 -15.5t-13.5 -14t-14.5 -15.5t-12.5 -15t-13 -17.5t-10.5 -17t-10.5 -18.5q-31 -61 -31 -167v-1147q0 -107 31 -168q5 -9 10.5 -18.5t10.5 -17t13 -17.5t12.5 -15t14.5 -15.5t13.5 -14l15.5 -15.5l14 -14 l-53 -54q-87 87 -123 152q-37 73 -37 184z" />
<glyph unicode=")" horiz-adv-x="421" d="M82 -139l14 14l15.5 15.5t13.5 14t14.5 15.5t12.5 15t13 17.5t10.5 17t10.5 18.5q31 61 31 168v1147q0 106 -31 167q-5 9 -10.5 18.5t-10.5 17t-13 17.5t-12.5 15t-14.5 15.5t-13.5 14l-15.5 15.5l-14 14l53 54q91 -91 123 -152q37 -73 37 -184v-1172q0 -111 -37 -184 q-36 -65 -123 -152z" />
<glyph unicode="*" horiz-adv-x="720" d="M111 1053l186 102l-186 102l34 62l185 -109l-4 260h69l-4 -260l184 109l35 -62l-186 -102l186 -102l-35 -62l-184 109l4 -260h-69l4 260l-185 -109z" />
<glyph unicode="+" horiz-adv-x="864" d="M102 522v74h293v293h74v-293h293v-74h-293v-293h-74v293h-293z" />
<glyph unicode="," horiz-adv-x="344" d="M119 123h106v-209l-106 -78v287z" />
<glyph unicode="-" horiz-adv-x="620" d="M119 522v74h383v-74h-383z" />
<glyph unicode="." horiz-adv-x="380" d="M131 0v119h119v-119h-119z" />
<glyph unicode="/" horiz-adv-x="464" d="M0 -152l379 1762h86l-379 -1762h-86z" />
<glyph unicode="0" horiz-adv-x="708" d="M119 244v970q0 128 67 195q66 66 168 66t168 -66q68 -68 68 -195v-970q0 -127 -68 -195q-65 -65 -168 -65t-168 65q-67 67 -67 195zM197 240q0 -90 44 -138.5t113 -48.5t113.5 48.5t44.5 138.5v979q0 90 -44.5 138t-113.5 48t-113 -48t-44 -138v-979z" />
<glyph unicode="1" horiz-adv-x="708" d="M125 1182v98l205 178h78v-1458h-78v1366z" />
<glyph unicode="2" horiz-adv-x="708" d="M109 0v63l340 834q73 179 73 322q0 90 -44 138t-113 48t-113.5 -48t-44.5 -138v-107h-78v107q0 122 68 190q66 66 168 66q101 0 167 -66q68 -68 68 -195q0 -143 -84 -346l-326 -798h410v-70h-491z" />
<glyph unicode="3" horiz-adv-x="708" d="M106 242v104h78v-104q0 -90 45.5 -139.5t114.5 -49.5q70 0 109 45q32 37 44.5 97.5t12.5 201.5q0 161 -11 216t-46 92q-42 45 -109 45h-88v69h88q64 0 100 39q30 32 42 86t12 168q0 112 -12 166.5t-40 85.5q-41 41 -102 41q-68 0 -108.5 -48.5t-40.5 -139.5v-105h-78v105 q0 129 65 194q64 64 162 64q100 0 162 -62q39 -39 54 -102t15 -199q0 -114 -8.5 -165.5t-31.5 -88.5q-28 -48 -82 -74q52 -25 79 -63q33 -45 44.5 -103t11.5 -221q0 -159 -15.5 -228.5t-60.5 -117.5q-28 -30 -73.5 -48.5t-94.5 -18.5q-105 0 -168 63q-70 70 -70 195z" />
<glyph unicode="4" horiz-adv-x="708" d="M76 262v70l368 1126h78l-368 -1126h301v463h77v-463h103v-70h-103v-262h-77v262h-379z" />
<glyph unicode="5" horiz-adv-x="708" d="M115 242v104h78v-96q0 -98 44.5 -147.5t116.5 -49.5q70 0 111 56q32 43 43.5 112t11.5 234q0 164 -12.5 234.5t-44.5 113.5q-39 53 -109 53q-69 0 -115 -51t-46 -133v-82h-72v868h457v-69h-385v-562q20 39 65 68q44 29 111 29q95 0 155 -76q44 -54 59 -132.5t15 -260.5 q0 -181 -15.5 -260t-60.5 -134q-28 -35 -73.5 -56t-94.5 -21q-107 0 -168 61q-71 71 -71 197z" />
<glyph unicode="6" horiz-adv-x="708" d="M111 426q0 247 59 408l227 624h76l-233 -641q58 49 131 49q93 0 155 -65q29 -31 43 -64.5t21.5 -106t7.5 -204.5q0 -175 -14.5 -249t-61.5 -126q-61 -67 -168 -67t-168 67q-47 52 -61 125.5t-14 249.5zM188 426q0 -154 11 -223t45 -105q42 -45 110 -45q69 0 111 45 q34 35 44.5 104t10.5 224t-10.5 224t-44.5 104q-42 45 -111 45q-68 0 -110 -45q-34 -36 -45 -105t-11 -223z" />
<glyph unicode="7" horiz-adv-x="708" d="M106 1137v321h498v-61l-389 -1397h-86l393 1389h-338v-252h-78z" />
<glyph unicode="8" horiz-adv-x="708" d="M111 397q0 163 11 221.5t44 102.5q27 37 80 63q-54 26 -82 74q-23 38 -33 90t-10 164q0 134 16 197.5t56 103.5q62 62 161 62q100 0 162 -62q40 -40 56 -103.5t16 -197.5q0 -112 -10 -164t-33 -90q-28 -48 -82 -74q53 -26 80 -63q33 -44 44 -102.5t11 -221.5 q0 -159 -15.5 -228.5t-60.5 -117.5q-28 -30 -73.5 -48.5t-94.5 -18.5t-94.5 18.5t-73.5 48.5q-45 48 -60 117t-15 229zM188 397q0 -140 13 -201t45 -98q39 -45 108 -45q70 0 109 45q32 37 44.5 97.5t12.5 201.5q0 161 -11 216t-46 92q-42 45 -109 45q-66 0 -108 -45 q-35 -37 -46.5 -92.5t-11.5 -215.5zM199 1112q0 -114 12.5 -168t42.5 -86q36 -39 100 -39q65 0 101 39q30 32 42.5 86t12.5 168q0 112 -12.5 166.5t-40.5 85.5q-41 41 -103 41q-61 0 -102 -41q-28 -31 -40.5 -85.5t-12.5 -166.5z" />
<glyph unicode="9" horiz-adv-x="708" d="M111 1032q0 176 14 249.5t61 125.5q62 68 168 68t168 -68q47 -52 61.5 -126t14.5 -249q0 -133 -13.5 -226.5t-45.5 -180.5l-228 -625h-75l233 641q-58 -49 -131 -49q-94 0 -156 65q-42 45 -56.5 114.5t-14.5 260.5zM188 1032q0 -154 11 -222.5t45 -104.5q43 -46 110 -46 q68 0 111 46q34 35 44.5 103.5t10.5 223.5t-10.5 224t-44.5 104q-42 45 -111 45q-68 0 -110 -45q-34 -36 -45 -105t-11 -223z" />
<glyph unicode=":" horiz-adv-x="442" d="M193 0v119h118v-119h-118zM193 715v119h118v-119h-118z" />
<glyph unicode=";" horiz-adv-x="442" d="M193 715v119h118v-119h-118zM199 123h106v-209l-106 -78v287z" />
<glyph unicode="&#x3c;" horiz-adv-x="708" d="M70 535v81l569 330v-90l-487 -281l487 -280v-90z" />
<glyph unicode="=" horiz-adv-x="864" d="M102 369v73h660v-73h-660zM102 635v74h660v-74h-660z" />
<glyph unicode="&#x3e;" horiz-adv-x="708" d="M70 205v90l487 280l-487 281v90l569 -330v-81z" />
<glyph unicode="?" horiz-adv-x="729" d="M119 1176q0 154 74 225q69 69 180 69q118 0 184 -69q41 -42 59.5 -98.5t18.5 -165.5q0 -73 -11 -122.5t-44 -107.5l-119 -200q-43 -71 -43 -158v-176h-78v186q0 90 45 166l119 201q32 54 42.5 99t10.5 112q0 88 -15.5 135.5t-47.5 81.5q-47 47 -121 47q-71 0 -119 -45 q-57 -57 -57 -180h-78zM319 0v119h119v-119h-119z" />
<glyph unicode="@" horiz-adv-x="987" d="M119 190v990q0 132 74 206q72 72 188 72h213q116 0 188 -72q74 -74 74 -206v-1180h-78v84q-14 -32 -53 -61q-55 -39 -123 -39q-91 0 -153 65q-64 64 -64 195v483q0 131 64 195q62 65 153 65q70 0 125 -35q38 -27 51 -59v295q0 99 -51 152t-137 53h-205 q-85 0 -136.5 -53.5t-51.5 -151.5v-1006q0 -97 53 -147l-51 -51q-80 65 -80 206zM463 240q0 -90 44.5 -138.5t113.5 -48.5t113 48.5t44 138.5v491q0 90 -44 138.5t-113 48.5t-113.5 -48.5t-44.5 -138.5v-491z" />
<glyph unicode="A" horiz-adv-x="710" d="M8 0l314 1458h73l307 -1458h-90l-88 438h-340l-86 -438h-90zM201 512h309l-156 778z" />
<glyph unicode="B" horiz-adv-x="811" d="M147 0v1458h226q86 0 139 -18.5t94 -63.5q44 -50 61 -112t17 -177q0 -90 -18 -154t-72 -118q-46 -46 -96 -59q58 -11 108 -58q57 -57 75.5 -130t18.5 -173q0 -131 -20.5 -197.5t-67.5 -115.5q-43 -44 -98.5 -63t-142.5 -19h-224zM229 74h156q57 0 98 14.5t72.5 49.5 t47 99t15.5 158q0 322 -233 322h-156v-643zM229 791h156q217 0 217 296q0 168 -54 232.5t-163 64.5h-156v-593z" />
<glyph unicode="C" horiz-adv-x="782" d="M119 729q0 260 8.5 384t28 183.5t65.5 106.5q69 72 195 72q120 0 192 -72q84 -87 84 -260h-82q0 146 -65 211q-47 47 -129 47q-89 0 -137 -51q-35 -39 -50 -90t-21.5 -166t-6.5 -365t6.5 -365t21.5 -165.5t50 -89.5q49 -52 137 -52q82 0 129 47q65 65 65 211h82 q0 -187 -96 -270q-67 -61 -180 -61q-127 0 -195 71q-46 47 -65.5 106.5t-28 183.5t-8.5 384z" />
<glyph unicode="D" horiz-adv-x="833" d="M147 0v1458h275q123 0 192 -69q46 -47 65.5 -104.5t27.5 -177.5t8 -378t-8 -377.5t-27.5 -177t-65.5 -104.5q-70 -70 -192 -70h-275zM229 74h187q90 0 137 47q37 37 52.5 88.5t21.5 161.5t6 358t-6 358t-21.5 161.5t-52.5 88.5q-47 47 -137 47h-187v-1310z" />
<glyph unicode="E" horiz-adv-x="720" d="M147 0v1458h471v-74h-389v-618h336v-74h-336v-618h389v-74h-471z" />
<glyph unicode="F" horiz-adv-x="712" d="M147 0v1458h471v-74h-389v-618h336v-74h-336v-692h-82z" />
<glyph unicode="G" horiz-adv-x="811" d="M119 729q0 260 8.5 384t28 183.5t65.5 106.5q69 72 195 72q120 0 194 -74q82 -88 82 -258h-82q0 258 -194 258q-89 0 -137 -51q-35 -39 -50 -90t-21.5 -166t-6.5 -365t6.5 -365t21.5 -165.5t50 -89.5q49 -52 137 -52q84 0 139 60.5t55 169.5v405h-194v74h276v-483 q0 -143 -81 -221t-195 -78q-127 0 -195 71q-46 47 -65.5 106.5t-28 183.5t-8.5 384z" />
<glyph unicode="H" horiz-adv-x="847" d="M147 0v1458h82v-680h389v680h82v-1458h-82v705h-389v-705h-82z" />
<glyph unicode="I" horiz-adv-x="376" d="M147 0v1458h82v-1458h-82z" />
<glyph unicode="J" horiz-adv-x="638" d="M20 82l62 51q60 -76 149 -76q86 0 140.5 60.5t54.5 171.5v1169h82v-1169q0 -150 -82 -232q-73 -73 -195 -73q-129 0 -211 98z" />
<glyph unicode="K" horiz-adv-x="792" d="M147 0v1458h82v-831l414 831h90l-299 -600l338 -858h-90l-301 764l-152 -297v-467h-82z" />
<glyph unicode="L" horiz-adv-x="663" d="M147 0v1458h82v-1384h389v-74h-471z" />
<glyph unicode="M" horiz-adv-x="1110" d="M147 0v1458h91l317 -891l317 891h91v-1458h-82v1268l-291 -832h-74l-287 803v-1239h-82z" />
<glyph unicode="N" horiz-adv-x="897" d="M147 0v1458h91l430 -1233v1233h82v-1458h-91l-430 1233v-1233h-82z" />
<glyph unicode="O" horiz-adv-x="831" d="M119 729q0 260 8.5 384t28 183.5t65.5 106.5q69 72 195 72q125 0 194 -72q46 -47 66 -106.5t28 -184t8.5 -383.5t-8 -383.5t-28.5 -184t-66 -106.5q-68 -71 -194 -71q-127 0 -195 71q-46 47 -65.5 106.5t-28 183.5t-8.5 384zM201 729q0 -250 6.5 -365t21.5 -165.5 t50 -89.5q49 -52 137 -52t137 52q35 39 50 89.5t21.5 165.5t6.5 365t-6.5 365t-21.5 166t-50 90q-48 51 -137 51t-137 -51q-35 -39 -50 -90t-21.5 -166t-6.5 -365z" />
<glyph unicode="P" horiz-adv-x="802" d="M147 0v1458h259q40 0 71.5 -5t67.5 -18t62 -41t48 -69.5t33.5 -107.5t11.5 -152q0 -101 -18 -175t-45 -115t-68 -65t-78 -31t-85 -7h-177v-672h-82zM229 745h170q40 0 69 6t59 26t48.5 54t30.5 93t12 141t-12 141t-30.5 93t-48.5 53.5t-59 25.5t-69 6h-170v-639z" />
<glyph unicode="Q" horiz-adv-x="831" d="M119 729q0 260 8.5 384t28 183.5t65.5 106.5q69 72 195 72q125 0 194 -72q46 -47 66 -106.5t28.5 -184t8.5 -383.5q0 -325 -13.5 -449.5t-56.5 -185.5l111 -94l-45 -53l-113 94q-72 -57 -180 -57q-127 0 -195 71q-46 47 -65.5 106.5t-28 183.5t-8.5 384zM201 729 q0 -193 2.5 -293.5t11.5 -171.5t22.5 -99.5t41.5 -58.5q46 -49 137 -49q77 0 121 33l-129 109l45 53l129 -109q31 51 40 162t9 424q0 193 -2.5 293.5t-11.5 171.5t-22.5 99.5t-41.5 58.5q-46 49 -137 49t-137 -49q-28 -30 -41.5 -58.5t-22.5 -99.5t-11.5 -171.5t-2.5 -293.5 z" />
<glyph unicode="R" horiz-adv-x="849" d="M147 0v1458h259q40 0 71.5 -5t67.5 -18t62 -41t48 -69.5t33.5 -107.5t11.5 -152q0 -174 -46.5 -262.5t-137.5 -116.5l232 -686h-91l-219 674h-209v-674h-82zM229 745h183q112 0 159 77.5t47 242.5t-47 242t-159 77h-183v-639z" />
<glyph unicode="S" horiz-adv-x="778" d="M88 354h82q0 -96 13.5 -148.5t49.5 -88.5q54 -54 148 -54q98 0 149 54q39 39 52.5 95.5t13.5 158.5q0 147 -32.5 213.5t-127.5 105.5l-149 62q-111 45 -150 121t-39 241q0 189 92 281q75 75 201 75q130 0 205 -75q49 -51 65.5 -111.5t16.5 -159.5h-82q0 78 -13.5 127 t-47.5 88q-52 58 -146 58q-85 0 -137 -49q-72 -69 -72 -232q0 -141 31.5 -199.5t138.5 -101.5l150 -61q56 -22 92 -56t54.5 -84t25 -105t6.5 -136q0 -117 -21.5 -190.5t-68.5 -123.5q-71 -71 -207 -71q-138 0 -209 71q-48 50 -66 112.5t-18 182.5z" />
<glyph unicode="T" horiz-adv-x="659" d="M45 1384v74h569v-74h-243v-1384h-82v1384h-244z" />
<glyph unicode="U" horiz-adv-x="815" d="M131 283v1175h82v-1184q0 -98 55.5 -157.5t139.5 -59.5t139 59.5t55 157.5v1184h82v-1175q0 -145 -82 -224q-75 -75 -194 -75q-120 0 -195 75q-82 79 -82 224z" />
<glyph unicode="V" horiz-adv-x="708" d="M8 1458h90l256 -1290l256 1290h90l-307 -1458h-78z" />
<glyph unicode="W" horiz-adv-x="1110" d="M8 1458h90l160 -1290l250 1290h94l254 -1290l156 1290h90l-203 -1458h-86l-258 1290l-254 -1290h-86z" />
<glyph unicode="X" horiz-adv-x="718" d="M45 0l264 762l-241 696h90l200 -610l203 610h90l-248 -696l271 -762h-90l-226 670l-223 -670h-90z" />
<glyph unicode="Y" horiz-adv-x="591" d="M8 1458h90l197 -698l199 698h90l-248 -833v-625h-82v625z" />
<glyph unicode="Z" horiz-adv-x="628" d="M61 0v66l422 1318h-391v74h475v-65l-420 -1319h420v-74h-506z" />
<glyph unicode="[" horiz-adv-x="450" d="M135 -152v1762h254v-64h-176v-1634h176v-64h-254z" />
<glyph unicode="\" horiz-adv-x="464" d="M0 1610h86l379 -1762h-86z" />
<glyph unicode="]" horiz-adv-x="450" d="M61 -88h177v1634h-177v64h254v-1762h-254v64z" />
<glyph unicode="^" horiz-adv-x="905" d="M160 901l254 569h78l253 -569h-83l-209 488l-209 -488h-84z" />
<glyph unicode="_" horiz-adv-x="864" d="M0 -195h864v-65h-864v65z" />
<glyph unicode="`" d="M164 1458h96l129 -258h-82z" />
<glyph unicode="a" horiz-adv-x="686" d="M82 279q0 155 84 233q74 68 190 68h127v200q0 197 -157 197q-62 0 -103 -41q-29 -29 -40 -65.5t-11 -96.5h-78q0 137 70 207q63 63 162 63q111 0 170 -59q65 -65 65 -203v-782h-78v96q-15 -37 -53 -69q-53 -43 -127 -43q-90 0 -151 61q-70 74 -70 234zM160 279 q0 -106 38.5 -166t118.5 -60q75 0 120.5 58.5t45.5 146.5v256h-131q-79 0 -131 -49q-61 -58 -61 -186z" />
<glyph unicode="b" horiz-adv-x="716" d="M135 0v1458h78v-512q18 35 53 62q48 36 121 36q91 0 154 -69q46 -51 61.5 -149t15.5 -312t-15.5 -312t-61.5 -149q-63 -69 -154 -69q-73 0 -121 36q-35 27 -53 62v-82h-78zM213 254q0 -107 53 -160q44 -41 109 -41q62 0 106 47q38 42 49 129t11 285t-11 285t-49 129 q-44 47 -106 47q-65 0 -109 -41q-53 -53 -53 -160v-520z" />
<glyph unicode="c" horiz-adv-x="663" d="M98 514q0 206 16.5 307.5t61.5 151.5q64 71 170 71q111 0 170 -59q40 -40 53 -92.5t13 -124.5h-76q0 37 -2 60t-12.5 53t-30.5 51q-40 43 -113 43q-68 0 -112 -47q-38 -42 -49 -129t-11 -285t11 -285t49 -129q44 -47 112 -47t109 41q49 49 49 166h76q0 -75 -15 -125.5 t-51 -87.5q-63 -63 -170 -63q-106 0 -170 71q-45 50 -61.5 151.5t-16.5 307.5z" />
<glyph unicode="d" horiz-adv-x="716" d="M98 514q0 206 16.5 308.5t61.5 152.5q62 69 152 69q75 0 123 -34q32 -21 53 -62v510h78v-1458h-78v84q-14 -32 -53 -61q-51 -39 -123 -39q-89 0 -152 69q-45 50 -61.5 152.5t-16.5 308.5zM176 514q0 -198 11 -285t49 -129q44 -47 106 -47q65 0 109 41q53 53 53 160v520 q0 107 -53 160q-44 41 -109 41q-62 0 -106 -47q-38 -42 -49 -129t-11 -285z" />
<glyph unicode="e" horiz-adv-x="681" d="M98 514q0 206 16.5 307.5t61.5 151.5q64 71 170 71t170 -71q45 -50 61.5 -151.5t16.5 -307.5h-418q0 -195 12 -283.5t50 -130.5q44 -47 112 -47q72 0 113 41q53 50 53 166h76q0 -75 -17 -123.5t-55 -87.5q-65 -65 -170 -65q-108 0 -172 71q-45 50 -62.5 152.5 t-17.5 306.5zM176 580h340q-2 162 -13 236t-46 112q-44 47 -111 47q-66 0 -110 -47q-35 -38 -46.5 -113t-13.5 -235z" />
<glyph unicode="f" horiz-adv-x="460" d="M31 965v63h133v170q0 128 67 195q65 65 199 65v-69q-188 0 -188 -187v-174h188v-63h-188v-965h-78v965h-133z" />
<glyph unicode="g" horiz-adv-x="716" d="M98 514q0 213 16 311.5t62 149.5q63 69 154 69q73 0 121 -36q35 -27 53 -62v82h78v-1063q0 -141 -15 -207.5t-59 -115.5q-65 -72 -168 -72q-109 0 -172 63q-36 37 -51 87.5t-15 125.5h76q0 -58 10 -97t39 -68q41 -41 111 -41q67 0 111 47q31 34 43 97.5t12 182.5v115 q-18 -35 -53 -62q-48 -36 -121 -36q-91 0 -154 69q-46 51 -62 149.5t-16 311.5zM176 514q0 -198 11 -285t49 -129q44 -47 106 -47q65 0 109 41q53 53 53 160v520q0 107 -53 160q-44 41 -109 41q-62 0 -106 -47q-38 -42 -49 -129t-11 -285z" />
<glyph unicode="h" horiz-adv-x="731" d="M135 0v1458h78v-514q14 33 53 62q50 38 123 38q92 0 154 -65q63 -63 63 -195v-784h-78v786q0 90 -44 138.5t-113 48.5t-113.5 -48.5t-44.5 -138.5v-786h-78z" />
<glyph unicode="i" horiz-adv-x="348" d="M117 1305v114h114v-114h-114zM135 0v1028h78v-1028h-78z" />
<glyph unicode="j" horiz-adv-x="348" d="M-43 -360q86 0 132 43.5t46 142.5v1202h78v-1198q0 -127 -68 -195q-65 -65 -188 -65v70zM117 1305v114h114v-114h-114z" />
<glyph unicode="k" horiz-adv-x="733" d="M135 0v1458h78v-1007l350 577h88l-237 -389l278 -639h-86l-241 575l-152 -243v-332h-78z" />
<glyph unicode="l" horiz-adv-x="409" d="M123 260v1198h78v-1202q0 -186 178 -186v-70q-123 0 -189 66q-67 67 -67 194z" />
<glyph unicode="m" horiz-adv-x="1124" d="M135 0v1028h78v-84q14 33 53 62q53 38 123 38q54 0 106.5 -30.5t82.5 -77.5q24 43 63 70q53 38 129 38q104 0 166 -65q63 -63 63 -195v-784h-77v786q0 90 -44.5 138.5t-113.5 48.5t-113.5 -48.5t-44.5 -138.5v-786h-78v786q0 90 -44 138.5t-113 48.5t-113.5 -48.5 t-44.5 -138.5v-786h-78z" />
<glyph unicode="n" horiz-adv-x="731" d="M135 0v1028h78v-84q14 33 53 62q50 38 123 38q92 0 154 -65q63 -63 63 -195v-784h-78v786q0 90 -44 138.5t-113 48.5t-113.5 -48.5t-44.5 -138.5v-786h-78z" />
<glyph unicode="o" d="M98 514q0 206 16.5 307.5t61.5 151.5q64 71 170 71t170 -71q45 -50 61.5 -151.5t16.5 -307.5t-16.5 -307.5t-61.5 -151.5q-64 -71 -170 -71t-170 71q-45 50 -61.5 151.5t-16.5 307.5zM176 514q0 -198 11 -285t49 -129q44 -47 110 -47q67 0 111 47q38 42 48.5 128 t10.5 286t-10.5 286t-48.5 128q-44 47 -111 47q-66 0 -110 -47q-38 -42 -49 -129t-11 -285z" />
<glyph unicode="p" horiz-adv-x="716" d="M135 -430v1458h78v-84q14 33 53 62q49 38 123 38q89 0 152 -69q45 -50 61 -152t16 -309t-16 -309t-61 -152q-62 -69 -152 -69q-75 0 -123 34q-32 21 -53 62v-510h-78zM213 254q0 -107 53 -160q44 -41 109 -41q62 0 106 47q38 42 49 129t11 285t-11 285t-49 129 q-44 47 -106 47q-65 0 -109 -41q-53 -53 -53 -160v-520z" />
<glyph unicode="q" horiz-adv-x="716" d="M98 514q0 206 16.5 308.5t61.5 152.5q63 69 152 69q74 0 123 -38q39 -29 53 -62v84h78v-1458h-78v510q-21 -41 -53 -62q-48 -34 -123 -34q-90 0 -152 69q-45 50 -61.5 152.5t-16.5 308.5zM176 514q0 -198 11 -285t49 -129q44 -47 106 -47q65 0 109 41q53 53 53 160v520 q0 107 -53 160q-44 41 -109 41q-62 0 -106 -47q-38 -42 -49 -129t-11 -285z" />
<glyph unicode="r" horiz-adv-x="460" d="M135 0v1028h78v-108q11 33 35 57q62 67 182 67v-69h-8q-98 0 -153.5 -56t-55.5 -153v-766h-78z" />
<glyph unicode="s" horiz-adv-x="655" d="M72 272h78q0 -115 59 -174q45 -45 113 -45q80 0 131 51q53 56 53 146q0 75 -31 125q-27 46 -113 98l-124 76q-95 59 -127 121q-27 50 -27 127q0 109 76 182q68 65 170 65q107 0 172 -65q69 -69 69 -219h-77q0 65 -12 102.5t-40 67.5q-42 45 -112 45q-74 0 -117 -43 q-51 -48 -51 -135q0 -61 22 -101q21 -35 101 -86l125 -75q98 -61 135 -125q39 -63 39 -160q0 -115 -76 -191q-75 -75 -186 -75q-106 0 -175 69q-75 75 -75 219z" />
<glyph unicode="t" horiz-adv-x="481" d="M31 965v63h133v315h78v-315h188v-63h-188v-709q0 -97 50 -141.5t148 -44.5v-70q-69 0 -119.5 13.5t-89.5 52.5q-67 67 -67 194v705h-133z" />
<glyph unicode="u" horiz-adv-x="731" d="M125 244v784h78v-786q0 -90 44 -138.5t113 -48.5t113.5 48.5t44.5 138.5v786h78v-1028h-78v84q-14 -32 -53 -61q-51 -39 -123 -39q-92 0 -154 65q-63 63 -63 195z" />
<glyph unicode="v" horiz-adv-x="569" d="M8 1028h86l191 -907l190 907h86l-235 -1028h-82z" />
<glyph unicode="w" horiz-adv-x="894" d="M8 1028h94l136 -907l157 907h90l168 -907l140 907h94l-189 -1028h-90l-168 907l-157 -907h-90z" />
<glyph unicode="x" horiz-adv-x="606" d="M41 0l221 524l-209 504h86l164 -444l164 444h86l-213 -504l225 -524h-86l-176 463l-176 -463h-86z" />
<glyph unicode="y" horiz-adv-x="575" d="M2 -360q157 0 191 141l55 223l-240 1024h86l191 -905l190 905h86l-293 -1253q-48 -205 -266 -205v70z" />
<glyph unicode="z" horiz-adv-x="530" d="M41 0v63l367 895h-347v70h428v-63l-366 -895h366v-70h-448z" />
<glyph unicode="{" horiz-adv-x="552" d="M61 694v70h21q69 0 111.5 48t42.5 138v400q0 127 67 194q66 66 168 66h21v-70h-21q-69 0 -113.5 -48t-44.5 -138v-400q0 -131 -63 -194q-17 -17 -45 -31q21 -7 45 -31q63 -63 63 -194v-400q0 -90 44.5 -138t113.5 -48h21v-70h-21q-102 0 -168 66q-67 67 -67 195v399 q0 90 -42.5 138t-111.5 48h-21z" />
<glyph unicode="|" horiz-adv-x="454" d="M188 -152v1762h78v-1762h-78z" />
<glyph unicode="}" horiz-adv-x="552" d="M61 -82h21q69 0 113.5 48t44.5 138v400q0 131 63 194q17 17 45 31q-21 7 -45 31q-63 63 -63 194v400q0 90 -44.5 138t-113.5 48h-21v70h21q102 0 168 -66q67 -67 67 -194v-400q0 -90 42.5 -138t111.5 -48h21v-70h-21q-69 0 -111.5 -48t-42.5 -138v-399q0 -128 -67 -195 q-66 -66 -168 -66h-21v70z" />
<glyph unicode="~" horiz-adv-x="864" d="M113 539q61 61 98 80.5t84 19.5q31 0 63 -10.5t97 -38.5q10 -4 30.5 -13t31 -13t26.5 -7.5t30 -3.5q34 0 60.5 13.5t71.5 58.5l47 -47q-61 -61 -98.5 -81t-84.5 -20q-32 0 -65.5 11t-93.5 38q-84 37 -119 37t-60.5 -13t-70.5 -58z" />
<glyph unicode="&#xa1;" horiz-adv-x="442" d="M131 909v119h119v-119h-119zM152 -430v1085h77v-1085h-77z" />
<glyph unicode="&#xa2;" horiz-adv-x="663" d="M98 727q0 197 16.5 293t61.5 145q53 56 137 68v225h66v-225q85 -6 137 -55q40 -39 53 -88t13 -119h-76q0 35 -2 56.5t-12.5 50t-30.5 48.5q-33 33 -82 39v-876q48 7 78 37q29 27 39 64t10 93h76q0 -139 -66 -202q-51 -51 -137 -60v-221h-66v221q-84 12 -137 68 q-45 49 -61.5 145t-16.5 293zM176 727q0 -190 11 -272t49 -123q29 -32 77 -41v872q-48 -9 -77 -41q-38 -41 -49 -123t-11 -272z" />
<glyph unicode="&#xa3;" horiz-adv-x="755" d="M74 739v64h133v373q0 143 81 221t195 78q129 0 211 -97l-61 -51q-55 74 -150 74q-84 0 -139 -59.5t-55 -157.5v-381h192v-64h-192v-665h405v-74h-487v739h-133z" />
<glyph unicode="&#xa4;" horiz-adv-x="958" d="M98 211l117 117q-76 92 -76 215q0 125 76 217l-117 114l49 50l117 -115q90 74 215 74t215 -74l117 115l49 -50l-117 -114q76 -92 76 -217q0 -123 -76 -215l117 -117l-49 -49l-117 117q-92 -76 -215 -76t-215 76l-117 -117zM215 543q0 -110 77 -187t187 -77t187 77t77 187 t-77 187t-187 77t-187 -77t-77 -187z" />
<glyph unicode="&#xa5;" horiz-adv-x="591" d="M8 1458h90l197 -698l199 698h90l-189 -635h101v-63h-119l-41 -135v-82h160v-64h-160v-479h-82v479h-160v64h160v82l-39 135h-121v63h101z" />
<glyph unicode="&#xa6;" horiz-adv-x="454" d="M188 -152v717h78v-717h-78zM188 893v717h78v-717h-78z" />
<glyph unicode="&#xa7;" horiz-adv-x="765" d="M131 557q0 145 16 211t60 111q44 47 131 63q-113 63 -154 135q-30 62 -30 144q0 106 71 174q63 63 164 63t162 -61q70 -70 70 -191h-78q0 86 -49 140q-40 43 -105 43q-67 0 -108 -41q-50 -47 -50 -127q0 -72 25 -117q26 -46 94 -88l131 -78q52 -31 78 -57q50 -50 63 -112 t13 -212q0 -145 -16.5 -211.5t-59.5 -109.5q-49 -49 -131 -64q7 -5 28.5 -18.5t29.5 -18.5t24.5 -17t25.5 -21t21 -23t21 -29q38 -59 38 -158q0 -116 -65 -184q-69 -72 -174 -72q-100 0 -168 68q-34 34 -51 85.5t-17 102.5h78q0 -86 51 -143q37 -43 107 -43q73 0 117 47 q45 48 45 139q0 78 -29 125q-13 20 -31.5 38t-33.5 28.5t-42 27.5l-129 78q-41 23 -67 49q-46 46 -61 113.5t-15 210.5zM209 557q0 -125 12 -183.5t45 -94.5q48 -48 117 -48q72 0 119 50q33 36 44 92t11 184q0 131 -10.5 185.5t-44.5 91.5q-46 49 -119 49q-70 0 -117 -47 q-32 -34 -44.5 -90t-12.5 -189z" />
<glyph unicode="&#xa8;" d="M168 1247v103h102v-103h-102zM422 1247v103h102v-103h-102z" />
<glyph unicode="&#xa9;" horiz-adv-x="1777" d="M147 729q0 202 99.5 372.5t270 269.5t372.5 99q151 0 288.5 -58.5t236.5 -157.5t157.5 -236.5t58.5 -288.5t-58.5 -288.5t-157.5 -236.5t-236.5 -157.5t-288.5 -58.5q-202 0 -372.5 99t-270 269.5t-99.5 372.5zM221 729q0 -135 53 -260t142.5 -216t213.5 -145.5 t259 -54.5q180 0 334 92t243.5 247.5t89.5 336.5t-89.5 336.5t-243.5 247.5t-334 92q-135 0 -259 -54.5t-213.5 -145.5t-142.5 -216t-53 -260zM692 729q0 165 13 245t49 120q50 57 135 57t133 -51q53 -56 53 -174h-71q0 94 -35 129q-28 32 -80 32q-50 0 -82 -36 q-28 -32 -35.5 -99t-7.5 -223q0 -155 7.5 -222t35.5 -99q33 -37 82 -37q52 0 80 32q35 35 35 129h71q0 -118 -53 -174q-48 -51 -133 -51q-84 0 -135 58q-36 40 -49 119.5t-13 244.5z" />
<glyph unicode="&#xaa;" horiz-adv-x="581" d="M74 887q0 109 78 180q55 49 151 49h100v144q0 65 -32 106t-95 41q-51 0 -86 -35q-38 -40 -38 -127h-68q0 115 57 170q51 51 135 51q87 0 140 -53q55 -55 55 -158v-581h-63v67q-11 -21 -46 -49q-42 -30 -104 -30q-71 0 -125 51q-59 59 -59 174zM141 889q0 -71 31 -119.5 t100 -48.5q58 0 94.5 49t36.5 121v168h-106q-60 0 -100 -35q-56 -53 -56 -135z" />
<glyph unicode="&#xab;" horiz-adv-x="727" d="M61 543l261 401v-149l-166 -252l166 -252v-150zM348 543l260 401v-149l-166 -252l166 -252v-150z" />
<glyph unicode="&#xac;" horiz-adv-x="864" d="M102 522v74h660v-281h-74v207h-586z" />
<glyph unicode="&#xad;" horiz-adv-x="620" d="M119 522v74h383v-74h-383z" />
<glyph unicode="&#xae;" horiz-adv-x="1777" d="M147 729q0 202 99.5 372.5t270 269.5t372.5 99q151 0 288.5 -58.5t236.5 -157.5t157.5 -236.5t58.5 -288.5t-58.5 -288.5t-157.5 -236.5t-236.5 -157.5t-288.5 -58.5q-202 0 -372.5 99t-270 269.5t-99.5 372.5zM221 729q0 -135 53 -260t142.5 -216t213.5 -145.5 t259 -54.5q180 0 334 92t243.5 247.5t89.5 336.5t-89.5 336.5t-243.5 247.5t-334 92q-135 0 -259 -54.5t-213.5 -145.5t-142.5 -216t-53 -260zM713 319v822h196q80 0 125 -45q32 -31 42.5 -71t10.5 -112q0 -77 -11.5 -114t-43.5 -68q-21 -21 -43 -29l123 -383h-76l-114 369 h-138v-369h-71zM784 752h127q44 0 72 28q21 22 27 49t6 84t-6 84.5t-27 49.5q-28 28 -72 28h-127v-323z" />
<glyph unicode="&#xaf;" d="M141 1257v72h410v-72h-410z" />
<glyph unicode="&#xb0;" horiz-adv-x="761" d="M123 1212q0 107 75.5 182.5t182.5 75.5t182.5 -75.5t75.5 -182.5t-75.5 -182.5t-182.5 -75.5t-182.5 75.5t-75.5 182.5zM193 1212q0 -83 53 -137.5t135 -54.5t135 54.5t53 137.5q0 82 -53.5 137.5t-134.5 55.5q-82 0 -135 -55t-53 -138z" />
<glyph unicode="&#xb1;" horiz-adv-x="864" d="M102 90v74h660v-74h-660zM102 563v74h293v293h74v-293h293v-74h-293v-293h-74v293h-293z" />
<glyph unicode="&#xb2;" horiz-adv-x="534" d="M72 584v53l282 465q27 44 38 80.5t11 87.5q0 61 -36.5 99t-98.5 38q-131 0 -131 -162v-26h-65v26q0 62 11.5 101t39.5 67q55 55 145 55q86 0 144 -49q57 -48 57 -149q0 -103 -61 -203l-258 -428h319v-55h-397z" />
<glyph unicode="&#xb3;" horiz-adv-x="534" d="M72 807v20h67v-20q0 -61 7.5 -90t29.5 -49q38 -33 94 -33q62 0 95 33q43 43 43 145q0 62 -8.5 93.5t-28.5 54.5q-37 43 -101 43h-61v61h61q52 0 90 35q20 18 30 45.5t11.5 46.5t1.5 53q0 93 -43 131q-31 31 -90 31q-61 0 -96 -35t-35 -127v-20h-67v20q0 119 49 168 q55 55 149 55q93 0 146 -53q53 -56 53 -170q0 -102 -41 -151q-38 -44 -84 -60q55 -12 92 -65q37 -49 37 -156q0 -76 -12.5 -115t-44.5 -71q-51 -54 -146 -54t-151 56q-25 27 -36 65t-11 113z" />
<glyph unicode="&#xb4;" d="M303 1200l129 258h96l-143 -258h-82z" />
<glyph unicode="&#xb5;" horiz-adv-x="741" d="M135 -432v1460h78v-788q0 -90 44.5 -138.5t113.5 -48.5t113 48.5t44 138.5v788h78v-1028h-78v84q-14 -32 -53 -61q-55 -39 -123 -39q-45 0 -84.5 16.5t-54.5 36.5v-469h-78z" />
<glyph unicode="&#xb6;" horiz-adv-x="1054" d="M102 1051q0 407 283 407h535v-1890h-78v1821h-262v-1821h-78v1075h-117q-283 0 -283 408z" />
<glyph unicode="&#xb7;" horiz-adv-x="520" d="M147 518v225h226v-225h-226z" />
<glyph unicode="&#xb8;" d="M221 -332l103 258h77l-88 -258h-92z" />
<glyph unicode="&#xb9;" horiz-adv-x="534" d="M121 1284v76l137 98h64v-874h-66v796z" />
<glyph unicode="&#xba;" horiz-adv-x="581" d="M92 1063q0 155 14 232.5t50 115.5q50 53 135 53t135 -53q36 -37 49.5 -114.5t13.5 -233.5t-13.5 -233.5t-49.5 -114.5q-50 -53 -135 -53t-135 53q-36 38 -50 115.5t-14 232.5zM160 1063q0 -146 9 -210.5t38 -96.5q31 -35 84 -35t84 35q29 32 38 96.5t9 210.5t-9 210.5 t-38 96.5q-31 35 -84 35t-84 -35q-29 -32 -38 -96.5t-9 -210.5z" />
<glyph unicode="&#xbb;" horiz-adv-x="727" d="M119 141v150l166 252l-166 252v149l260 -401zM406 141v150l165 252l-165 252v149l260 -401z" />
<glyph unicode="&#xbc;" horiz-adv-x="1359" d="M121 1284v76l137 98h64v-874h-66v796zM391 0l508 1458h70l-508 -1458h-70zM883 131v62l268 681h66l-269 -681h240v235h65v-235h62v-62h-62v-131h-65v131h-305z" />
<glyph unicode="&#xbd;" horiz-adv-x="1359" d="M121 1284v76l137 98h64v-874h-66v796zM391 0l508 1458h70l-508 -1458h-70zM897 0v53l283 465q27 44 38 80.5t11 87.5q0 61 -36.5 99t-98.5 38q-131 0 -131 -161v-27h-66v27q0 62 11 100t40 67q56 56 146 56q49 0 80.5 -11.5t62.5 -37.5q57 -48 57 -150q0 -103 -61 -203 l-258 -428h319v-55h-397z" />
<glyph unicode="&#xbe;" horiz-adv-x="1359" d="M72 807v20h67v-20q0 -61 7.5 -90t29.5 -49q38 -33 94 -33q62 0 95 33q43 43 43 145q0 62 -8.5 93.5t-28.5 54.5q-37 43 -101 43h-61v61h61q52 0 90 35q20 18 30 45.5t11.5 46.5t1.5 53q0 93 -43 131q-31 31 -90 31q-61 0 -96 -35t-35 -127v-20h-67v20q0 119 49 168 q55 55 149 55q93 0 146 -53q53 -56 53 -170q0 -102 -41 -151q-38 -44 -84 -60q55 -12 92 -65q37 -49 37 -156q0 -76 -12.5 -115t-44.5 -71q-51 -54 -146 -54t-151 56q-25 27 -36 65t-11 113zM391 0l508 1458h70l-508 -1458h-70zM883 131v62l268 681h66l-269 -681h240v235h65 v-235h62v-62h-62v-131h-65v131h-305z" />
<glyph unicode="&#xbf;" horiz-adv-x="729" d="M94 -109q0 72 11 121.5t45 108.5l118 201q43 71 43 157v176h78v-186q0 -90 -45 -166l-119 -201q-32 -54 -42.5 -99t-10.5 -112q0 -88 16 -135.5t48 -81.5q47 -47 120 -47q71 0 119 45q57 57 57 181h78q0 -156 -73 -226q-69 -69 -181 -69q-118 0 -184 69 q-41 42 -59.5 98.5t-18.5 165.5zM291 909v119h119v-119h-119z" />
<glyph unicode="&#xc0;" horiz-adv-x="710" d="M8 0l314 1458h73l307 -1458h-90l-88 438h-340l-86 -438h-90zM176 1827h96l129 -258h-82zM201 512h309l-156 778z" />
<glyph unicode="&#xc1;" horiz-adv-x="710" d="M8 0l314 1458h73l307 -1458h-90l-88 438h-340l-86 -438h-90zM201 512h309l-156 778zM315 1569l129 258h97l-144 -258h-82z" />
<glyph unicode="&#xc2;" horiz-adv-x="710" d="M8 0l314 1458h73l307 -1458h-90l-88 438h-340l-86 -438h-90zM152 1569l167 258h78l168 -258h-84l-123 194l-122 -194h-84zM201 512h309l-156 778z" />
<glyph unicode="&#xc3;" horiz-adv-x="710" d="M8 0l314 1458h73l307 -1458h-90l-88 438h-340l-86 -438h-90zM131 1657q46 46 74 59t57 13q52 0 105 -35q51 -33 84 -33q37 0 86 49l45 -45q-72 -72 -131 -72q-41 0 -105 35q-3 2 -16 9.5t-18 9.5t-15 6.5t-18 6t-17 1.5q-21 0 -37 -8t-49 -41zM201 512h309l-156 778z" />
<glyph unicode="&#xc4;" horiz-adv-x="710" d="M8 0l314 1458h73l307 -1458h-90l-88 438h-340l-86 -438h-90zM180 1616v102h103v-102h-103zM201 512h309l-156 778zM434 1616v102h103v-102h-103z" />
<glyph unicode="&#xc5;" horiz-adv-x="710" d="M8 0l314 1458h73l307 -1458h-90l-88 438h-340l-86 -438h-90zM182 1712q0 72 52 124t124 52t124.5 -52t52.5 -124t-52.5 -124t-124.5 -52t-124 52t-52 124zM201 512h309l-156 778zM246 1712q0 -46 33 -79.5t79 -33.5t79.5 33.5t33.5 79.5t-33.5 79.5t-79.5 33.5t-79 -33.5 t-33 -79.5z" />
<glyph unicode="&#xc6;" horiz-adv-x="1185" d="M10 0l545 1458h528v-74h-389v-618h336v-74h-336v-618h389v-74h-471v438h-352l-162 -438h-88zM289 512h323v874z" />
<glyph unicode="&#xc7;" horiz-adv-x="782" d="M119 729q0 260 8.5 384t28 183.5t65.5 106.5q69 72 195 72q120 0 192 -72q84 -87 84 -260h-82q0 146 -65 211q-47 47 -129 47q-89 0 -137 -51q-35 -39 -50 -90t-21.5 -166t-6.5 -365t6.5 -365t21.5 -165.5t50 -89.5q49 -52 137 -52q82 0 129 47q65 65 65 211h82 q0 -187 -96 -270q-67 -61 -180 -61q-127 0 -195 71q-46 47 -65.5 106.5t-28 183.5t-8.5 384zM281 -332l102 258h78l-88 -258h-92z" />
<glyph unicode="&#xc8;" horiz-adv-x="720" d="M147 0v1458h471v-74h-389v-618h336v-74h-336v-618h389v-74h-471zM209 1827h96l129 -258h-82z" />
<glyph unicode="&#xc9;" horiz-adv-x="720" d="M147 0v1458h471v-74h-389v-618h336v-74h-336v-618h389v-74h-471zM348 1569l129 258h96l-143 -258h-82z" />
<glyph unicode="&#xca;" horiz-adv-x="720" d="M147 0v1458h471v-74h-389v-618h336v-74h-336v-618h389v-74h-471zM184 1569l168 258h78l168 -258h-84l-123 194l-123 -194h-84z" />
<glyph unicode="&#xcb;" horiz-adv-x="720" d="M147 0v1458h471v-74h-389v-618h336v-74h-336v-618h389v-74h-471zM213 1616v102h102v-102h-102zM467 1616v102h102v-102h-102z" />
<glyph unicode="&#xcc;" horiz-adv-x="376" d="M6 1827h96l129 -258h-81zM147 0v1458h82v-1458h-82z" />
<glyph unicode="&#xcd;" horiz-adv-x="376" d="M145 1569l129 258h97l-144 -258h-82zM147 0v1458h82v-1458h-82z" />
<glyph unicode="&#xce;" horiz-adv-x="376" d="M-18 1569l168 258h77l168 -258h-84l-123 194l-122 -194h-84zM147 0v1458h82v-1458h-82z" />
<glyph unicode="&#xcf;" horiz-adv-x="376" d="M10 1616v102h103v-102h-103zM147 0v1458h82v-1458h-82zM264 1616v102h103v-102h-103z" />
<glyph unicode="&#xd0;" horiz-adv-x="884" d="M88 692v74h111v692h274q124 0 193 -69q46 -47 65 -105t27 -177t8 -378t-8 -378t-27 -176.5t-65 -104.5q-70 -70 -193 -70h-274v692h-111zM281 74h186q90 0 137 47q37 37 52.5 88.5t21.5 161.5t6 358t-6 358t-21.5 161.5t-52.5 88.5q-47 47 -137 47h-186v-618h200v-74 h-200v-618z" />
<glyph unicode="&#xd1;" horiz-adv-x="897" d="M147 0v1458h91l430 -1233v1233h82v-1458h-91l-430 1233v-1233h-82zM221 1657q46 46 74 59t57 13q52 0 105 -35q51 -33 84 -33q37 0 86 49l45 -45q-72 -72 -131 -72q-41 0 -105 35q-3 2 -16 9.5t-18 9.5t-15 6.5t-18 6t-17 1.5q-21 0 -37 -8t-49 -41z" />
<glyph unicode="&#xd2;" horiz-adv-x="831" d="M119 729q0 260 8.5 384t28 183.5t65.5 106.5q69 72 195 72q125 0 194 -72q46 -47 66 -106.5t28.5 -184t8.5 -383.5t-8.5 -383.5t-28.5 -184t-66 -106.5q-68 -71 -194 -71q-127 0 -195 71q-46 47 -65.5 106.5t-28 183.5t-8.5 384zM201 729q0 -250 6.5 -365t21.5 -165.5 t50 -89.5q49 -52 137 -52t137 52q35 39 50 89.5t21.5 165.5t6.5 365t-6.5 365t-21.5 166t-50 90q-48 51 -137 51t-137 -51q-35 -39 -50 -90t-21.5 -166t-6.5 -365zM233 1827h97l129 -258h-82z" />
<glyph unicode="&#xd3;" horiz-adv-x="831" d="M119 729q0 260 8.5 384t28 183.5t65.5 106.5q69 72 195 72q125 0 194 -72q46 -47 66 -106.5t28.5 -184t8.5 -383.5t-8.5 -383.5t-28.5 -184t-66 -106.5q-68 -71 -194 -71q-127 0 -195 71q-46 47 -65.5 106.5t-28 183.5t-8.5 384zM201 729q0 -250 6.5 -365t21.5 -165.5 t50 -89.5q49 -52 137 -52t137 52q35 39 50 89.5t21.5 165.5t6.5 365t-6.5 365t-21.5 166t-50 90q-48 51 -137 51t-137 -51q-35 -39 -50 -90t-21.5 -166t-6.5 -365zM373 1569l129 258h96l-143 -258h-82z" />
<glyph unicode="&#xd4;" horiz-adv-x="831" d="M119 729q0 260 8.5 384t28 183.5t65.5 106.5q69 72 195 72q125 0 194 -72q46 -47 66 -106.5t28.5 -184t8.5 -383.5t-8.5 -383.5t-28.5 -184t-66 -106.5q-68 -71 -194 -71q-127 0 -195 71q-46 47 -65.5 106.5t-28 183.5t-8.5 384zM201 729q0 -250 6.5 -365t21.5 -165.5 t50 -89.5q49 -52 137 -52t137 52q35 39 50 89.5t21.5 165.5t6.5 365t-6.5 365t-21.5 166t-50 90q-48 51 -137 51t-137 -51q-35 -39 -50 -90t-21.5 -166t-6.5 -365zM209 1569l168 258h78l168 -258h-84l-123 194l-123 -194h-84z" />
<glyph unicode="&#xd5;" horiz-adv-x="831" d="M119 729q0 260 8.5 384t28 183.5t65.5 106.5q69 72 195 72q125 0 194 -72q46 -47 66 -106.5t28.5 -184t8.5 -383.5t-8.5 -383.5t-28.5 -184t-66 -106.5q-68 -71 -194 -71q-127 0 -195 71q-46 47 -65.5 106.5t-28 183.5t-8.5 384zM188 1657q46 46 74 59t57 13 q52 0 105 -35q51 -33 84 -33q37 0 86 49l45 -45q-72 -72 -131 -72q-41 0 -105 35q-3 2 -16 9.5t-18 9.5t-15 6.5t-18 6t-17 1.5q-21 0 -37 -8t-49 -41zM201 729q0 -250 6.5 -365t21.5 -165.5t50 -89.5q49 -52 137 -52t137 52q35 39 50 89.5t21.5 165.5t6.5 365t-6.5 365 t-21.5 166t-50 90q-48 51 -137 51t-137 -51q-35 -39 -50 -90t-21.5 -166t-6.5 -365z" />
<glyph unicode="&#xd6;" horiz-adv-x="831" d="M119 729q0 260 8.5 384t28 183.5t65.5 106.5q69 72 195 72q125 0 194 -72q46 -47 66 -106.5t28.5 -184t8.5 -383.5t-8.5 -383.5t-28.5 -184t-66 -106.5q-68 -71 -194 -71q-127 0 -195 71q-46 47 -65.5 106.5t-28 183.5t-8.5 384zM201 729q0 -250 6.5 -365t21.5 -165.5 t50 -89.5q49 -52 137 -52t137 52q35 39 50 89.5t21.5 165.5t6.5 365t-6.5 365t-21.5 166t-50 90q-48 51 -137 51t-137 -51q-35 -39 -50 -90t-21.5 -166t-6.5 -365zM238 1616v102h102v-102h-102zM492 1616v102h102v-102h-102z" />
<glyph unicode="&#xd7;" horiz-adv-x="864" d="M139 297l242 242l-242 241l51 51l242 -241l242 241l51 -51l-242 -241l242 -242l-51 -51l-242 241l-242 -241z" />
<glyph unicode="&#xd8;" horiz-adv-x="790" d="M119 729q0 260 8.5 384t28 183.5t65.5 106.5q69 72 195 72q93 0 157 -43l33 116h84l-51 -178q46 -61 60 -185t14 -456q0 -259 -8.5 -383.5t-28.5 -184t-66 -106.5q-68 -71 -194 -71q-94 0 -158 43l-33 -117h-84l54 176q-47 61 -61.5 184t-14.5 459zM201 729 q0 -253 5.5 -367t22.5 -169l322 1159q-46 49 -135 49t-137 -51q-35 -39 -50 -90t-21.5 -166t-6.5 -365zM281 106q46 -49 135 -49q88 0 137 52q35 39 50 89.5t21.5 165.5t6.5 365q0 428 -27 533z" />
<glyph unicode="&#xd9;" horiz-adv-x="815" d="M131 283v1175h82v-1184q0 -98 55.5 -157.5t139.5 -59.5t139 59.5t55 157.5v1184h82v-1175q0 -145 -82 -224q-75 -75 -194 -75q-120 0 -195 75q-82 79 -82 224zM225 1827h97l129 -258h-82z" />
<glyph unicode="&#xda;" horiz-adv-x="815" d="M131 283v1175h82v-1184q0 -98 55.5 -157.5t139.5 -59.5t139 59.5t55 157.5v1184h82v-1175q0 -145 -82 -224q-75 -75 -194 -75q-120 0 -195 75q-82 79 -82 224zM365 1569l129 258h96l-144 -258h-81z" />
<glyph unicode="&#xdb;" horiz-adv-x="815" d="M131 283v1175h82v-1184q0 -98 55.5 -157.5t139.5 -59.5t139 59.5t55 157.5v1184h82v-1175q0 -145 -82 -224q-75 -75 -194 -75q-120 0 -195 75q-82 79 -82 224zM201 1569l168 258h77l168 -258h-84l-122 194l-123 -194h-84z" />
<glyph unicode="&#xdc;" horiz-adv-x="815" d="M131 283v1175h82v-1184q0 -98 55.5 -157.5t139.5 -59.5t139 59.5t55 157.5v1184h82v-1175q0 -145 -82 -224q-75 -75 -194 -75q-120 0 -195 75q-82 79 -82 224zM229 1616v102h103v-102h-103zM483 1616v102h103v-102h-103z" />
<glyph unicode="&#xdd;" horiz-adv-x="591" d="M8 1458h90l197 -698l199 698h90l-248 -833v-625h-82v625zM258 1569l129 258h96l-143 -258h-82z" />
<glyph unicode="&#xde;" horiz-adv-x="800" d="M147 0v1458h82v-330h177q40 0 71.5 -5t67.5 -18t62 -41t48 -69.5t33.5 -107.5t11.5 -152q0 -101 -18 -175t-45 -115t-68 -65t-78 -31t-85 -7h-177v-342h-82zM229 416h170q40 0 69 6t59 25.5t48.5 53.5t30.5 93t12 141t-12 141t-30.5 93t-48.5 54t-59 26t-69 6h-170v-639z " />
<glyph unicode="&#xdf;" horiz-adv-x="731" d="M135 0v1214q0 127 68 195q66 66 168 66t168 -66q42 -42 56.5 -91t14.5 -142q0 -134 -41 -203q-24 -42 -67 -68q28 -12 55 -39q44 -44 60 -123t16 -276q0 -184 -13 -267.5t-63 -133.5q-66 -66 -186 -66v70q85 0 129 47q32 34 43.5 106t11.5 244q0 160 -11.5 237.5 t-43.5 112.5q-42 45 -111 45h-18v70h14q54 0 92 41q34 37 44.5 86t10.5 117q0 70 -11.5 111.5t-39.5 72.5q-42 45 -110 45q-69 0 -113.5 -48t-44.5 -138v-1219h-78z" />
<glyph unicode="&#xe0;" horiz-adv-x="686" d="M82 279q0 155 84 233q74 68 190 68h127v200q0 197 -157 197q-62 0 -103 -41q-29 -29 -40 -65.5t-11 -96.5h-78q0 137 70 207q63 63 162 63q111 0 170 -59q65 -65 65 -203v-782h-78v96q-15 -37 -53 -69q-53 -43 -127 -43q-90 0 -151 61q-70 74 -70 234zM158 1458h96 l129 -258h-82zM160 279q0 -106 38.5 -166t118.5 -60q75 0 120.5 58.5t45.5 146.5v256h-131q-79 0 -131 -49q-61 -58 -61 -186z" />
<glyph unicode="&#xe1;" horiz-adv-x="686" d="M82 279q0 155 84 233q74 68 190 68h127v200q0 197 -157 197q-62 0 -103 -41q-29 -29 -40 -65.5t-11 -96.5h-78q0 137 70 207q63 63 162 63q111 0 170 -59q65 -65 65 -203v-782h-78v96q-15 -37 -53 -69q-53 -43 -127 -43q-90 0 -151 61q-70 74 -70 234zM160 279 q0 -106 38.5 -166t118.5 -60q75 0 120.5 58.5t45.5 146.5v256h-131q-79 0 -131 -49q-61 -58 -61 -186zM291 1200l129 258h96l-143 -258h-82z" />
<glyph unicode="&#xe2;" horiz-adv-x="686" d="M82 279q0 155 84 233q74 68 190 68h127v200q0 197 -157 197q-62 0 -103 -41q-29 -29 -40 -65.5t-11 -96.5h-78q0 137 70 207q63 63 162 63q111 0 170 -59q65 -65 65 -203v-782h-78v96q-15 -37 -53 -69q-53 -43 -127 -43q-90 0 -151 61q-70 74 -70 234zM127 1200l168 258 h78l168 -258h-84l-123 195l-123 -195h-84zM160 279q0 -106 38.5 -166t118.5 -60q75 0 120.5 58.5t45.5 146.5v256h-131q-79 0 -131 -49q-61 -58 -61 -186z" />
<glyph unicode="&#xe3;" horiz-adv-x="686" d="M82 279q0 155 84 233q74 68 190 68h127v200q0 197 -157 197q-62 0 -103 -41q-29 -29 -40 -65.5t-11 -96.5h-78q0 137 70 207q63 63 162 63q111 0 170 -59q65 -65 65 -203v-782h-78v96q-15 -37 -53 -69q-53 -43 -127 -43q-90 0 -151 61q-70 74 -70 234zM109 1288 q46 46 74 59t57 13q51 0 104 -35q51 -33 84 -33q37 0 86 49l45 -45q-32 -32 -59 -48.5t-40.5 -19.5t-31.5 -3q-40 0 -104 35q-2 1 -13.5 7.5t-14.5 8t-12.5 6t-15 6t-13 3t-15.5 1.5q-21 0 -37 -8t-49 -41zM160 279q0 -106 38.5 -166t118.5 -60q75 0 120.5 58.5t45.5 146.5 v256h-131q-79 0 -131 -49q-61 -58 -61 -186z" />
<glyph unicode="&#xe4;" horiz-adv-x="686" d="M82 279q0 155 84 233q74 68 190 68h127v200q0 197 -157 197q-62 0 -103 -41q-29 -29 -40 -65.5t-11 -96.5h-78q0 137 70 207q63 63 162 63q111 0 170 -59q65 -65 65 -203v-782h-78v96q-15 -37 -53 -69q-53 -43 -127 -43q-90 0 -151 61q-70 74 -70 234zM156 1247v103h102 v-103h-102zM160 279q0 -106 38.5 -166t118.5 -60q75 0 120.5 58.5t45.5 146.5v256h-131q-79 0 -131 -49q-61 -58 -61 -186zM410 1247v103h102v-103h-102z" />
<glyph unicode="&#xe5;" horiz-adv-x="686" d="M82 279q0 155 84 233q74 68 190 68h127v200q0 197 -157 197q-62 0 -103 -41q-29 -29 -40 -65.5t-11 -96.5h-78q0 137 70 207q63 63 162 63q111 0 170 -59q65 -65 65 -203v-782h-78v96q-15 -37 -53 -69q-53 -43 -127 -43q-90 0 -151 61q-70 74 -70 234zM158 1364 q0 72 52 124t124 52t124 -52t52 -124t-52 -124t-124 -52t-124 52t-52 124zM160 279q0 -106 38.5 -166t118.5 -60q75 0 120.5 58.5t45.5 146.5v256h-131q-79 0 -131 -49q-61 -58 -61 -186zM221 1364q0 -46 33.5 -79.5t79.5 -33.5t79 33.5t33 79.5t-33 79.5t-79 33.5 t-79.5 -33.5t-33.5 -79.5z" />
<glyph unicode="&#xe6;" horiz-adv-x="1071" d="M82 279q0 155 84 233q74 68 190 68h127v200q0 197 -157 197q-62 0 -103 -41q-29 -29 -40 -65.5t-11 -96.5h-78q0 137 70 207q63 63 162 63q111 0 170 -59q22 -25 36 -53q8 16 29 41q64 71 170 71t170 -71q45 -50 61.5 -151.5t16.5 -307.5h-418q0 -195 12 -283.5 t50 -130.5q44 -47 112 -47q72 0 113 41q53 50 53 166h76q0 -75 -17 -123.5t-55 -87.5q-65 -65 -170 -65q-101 0 -164 63q-39 42 -55 92q-22 -68 -70 -106q-64 -49 -143 -49q-90 0 -151 61q-70 74 -70 234zM160 279q0 -106 38.5 -166t118.5 -60q75 0 120.5 58.5t45.5 146.5 v256h-131q-79 0 -131 -49q-61 -58 -61 -186zM561 580h340q-2 162 -13 236t-46 112q-44 47 -111 47q-66 0 -110 -47q-35 -38 -46.5 -113t-13.5 -235z" />
<glyph unicode="&#xe7;" horiz-adv-x="663" d="M98 514q0 206 16.5 307.5t61.5 151.5q64 71 170 71q111 0 170 -59q40 -40 53 -92.5t13 -124.5h-76q0 37 -2 60t-12.5 53t-30.5 51q-40 43 -113 43q-68 0 -112 -47q-38 -42 -49 -129t-11 -285t11 -285t49 -129q44 -47 112 -47t109 41q49 49 49 166h76q0 -75 -15 -125.5 t-51 -87.5q-63 -63 -170 -63q-106 0 -170 71q-45 50 -61.5 151.5t-16.5 307.5zM221 -332l103 258h77l-88 -258h-92z" />
<glyph unicode="&#xe8;" horiz-adv-x="681" d="M98 514q0 206 16.5 307.5t61.5 151.5q64 71 170 71t170 -71q45 -50 61.5 -151.5t16.5 -307.5h-418q0 -195 12 -283.5t50 -130.5q44 -47 112 -47q72 0 113 41q53 50 53 166h76q0 -75 -17 -123.5t-55 -87.5q-65 -65 -170 -65q-108 0 -172 71q-45 50 -62.5 152.5 t-17.5 306.5zM170 1458h96l129 -258h-82zM176 580h340q-2 162 -13 236t-46 112q-44 47 -111 47q-66 0 -110 -47q-35 -38 -46.5 -113t-13.5 -235z" />
<glyph unicode="&#xe9;" horiz-adv-x="681" d="M98 514q0 206 16.5 307.5t61.5 151.5q64 71 170 71t170 -71q45 -50 61.5 -151.5t16.5 -307.5h-418q0 -195 12 -283.5t50 -130.5q44 -47 112 -47q72 0 113 41q53 50 53 166h76q0 -75 -17 -123.5t-55 -87.5q-65 -65 -170 -65q-108 0 -172 71q-45 50 -62.5 152.5 t-17.5 306.5zM176 580h340q-2 162 -13 236t-46 112q-44 47 -111 47q-66 0 -110 -47q-35 -38 -46.5 -113t-13.5 -235zM303 1200l129 258h96l-143 -258h-82z" />
<glyph unicode="&#xea;" horiz-adv-x="681" d="M98 514q0 206 16.5 307.5t61.5 151.5q64 71 170 71t170 -71q45 -50 61.5 -151.5t16.5 -307.5h-418q0 -195 12 -283.5t50 -130.5q44 -47 112 -47q72 0 113 41q53 50 53 166h76q0 -75 -17 -123.5t-55 -87.5q-65 -65 -170 -65q-108 0 -172 71q-45 50 -62.5 152.5 t-17.5 306.5zM139 1200l168 258h78l168 -258h-84l-123 195l-123 -195h-84zM176 580h340q-2 162 -13 236t-46 112q-44 47 -111 47q-66 0 -110 -47q-35 -38 -46.5 -113t-13.5 -235z" />
<glyph unicode="&#xeb;" horiz-adv-x="681" d="M98 514q0 206 16.5 307.5t61.5 151.5q64 71 170 71t170 -71q45 -50 61.5 -151.5t16.5 -307.5h-418q0 -195 12 -283.5t50 -130.5q44 -47 112 -47q72 0 113 41q53 50 53 166h76q0 -75 -17 -123.5t-55 -87.5q-65 -65 -170 -65q-108 0 -172 71q-45 50 -62.5 152.5 t-17.5 306.5zM168 1247v103h102v-103h-102zM176 580h340q-2 162 -13 236t-46 112q-44 47 -111 47q-66 0 -110 -47q-35 -38 -46.5 -113t-13.5 -235zM422 1247v103h102v-103h-102z" />
<glyph unicode="&#xec;" horiz-adv-x="348" d="M-8 1458h96l129 -258h-82zM135 0v1028h78v-1028h-78z" />
<glyph unicode="&#xed;" horiz-adv-x="348" d="M131 1200l129 258h96l-143 -258h-82zM135 0v1028h78v-1028h-78z" />
<glyph unicode="&#xee;" horiz-adv-x="348" d="M-33 1200l168 258h78l168 -258h-84l-123 195l-123 -195h-84zM135 0v1028h78v-1028h-78z" />
<glyph unicode="&#xef;" horiz-adv-x="348" d="M-4 1247v103h102v-103h-102zM135 0v1028h78v-1028h-78zM250 1247v103h102v-103h-102z" />
<glyph unicode="&#xf0;" d="M98 514q0 206 16.5 307.5t61.5 151.5q62 69 166 69q63 0 111 -26l-68 184h-172v66h147l-75 192h82l73 -192h148v-66h-123l84 -246q24 -73 34.5 -166.5t10.5 -273.5q0 -206 -16.5 -307.5t-61.5 -151.5q-64 -71 -170 -71t-170 71q-45 50 -61.5 151.5t-16.5 307.5zM176 514 q0 -198 11 -285t49 -129q44 -47 110 -47q67 0 111 47q38 42 48.5 128t10.5 286t-10.5 286t-48.5 128q-44 47 -111 47q-66 0 -110 -47q-38 -42 -49 -129t-11 -285z" />
<glyph unicode="&#xf1;" horiz-adv-x="731" d="M135 0v1028h78v-84q14 33 53 62q50 38 123 38q92 0 154 -65q63 -63 63 -195v-784h-78v786q0 90 -44 138.5t-113 48.5t-113.5 -48.5t-44.5 -138.5v-786h-78zM147 1288q46 46 74.5 59t57.5 13q51 0 104 -35q51 -33 84 -33q37 0 86 49l45 -45q-32 -32 -59 -48.5t-40.5 -19.5 t-31.5 -3q-41 0 -105 35q-4 2 -14 7.5t-14 8t-12.5 6.5t-14 5.5t-13.5 3t-15 1.5q-21 0 -37 -8t-49 -41z" />
<glyph unicode="&#xf2;" d="M98 514q0 206 16.5 307.5t61.5 151.5q64 71 170 71t170 -71q45 -50 61.5 -151.5t16.5 -307.5t-16.5 -307.5t-61.5 -151.5q-64 -71 -170 -71t-170 71q-45 50 -61.5 151.5t-16.5 307.5zM170 1458h96l129 -258h-82zM176 514q0 -198 11 -285t49 -129q44 -47 110 -47 q67 0 111 47q38 42 48.5 128t10.5 286t-10.5 286t-48.5 128q-44 47 -111 47q-66 0 -110 -47q-38 -42 -49 -129t-11 -285z" />
<glyph unicode="&#xf3;" d="M98 514q0 206 16.5 307.5t61.5 151.5q64 71 170 71t170 -71q45 -50 61.5 -151.5t16.5 -307.5t-16.5 -307.5t-61.5 -151.5q-64 -71 -170 -71t-170 71q-45 50 -61.5 151.5t-16.5 307.5zM176 514q0 -198 11 -285t49 -129q44 -47 110 -47q67 0 111 47q38 42 48.5 128 t10.5 286t-10.5 286t-48.5 128q-44 47 -111 47q-66 0 -110 -47q-38 -42 -49 -129t-11 -285zM303 1200l129 258h96l-143 -258h-82z" />
<glyph unicode="&#xf4;" d="M98 514q0 206 16.5 307.5t61.5 151.5q64 71 170 71t170 -71q45 -50 61.5 -151.5t16.5 -307.5t-16.5 -307.5t-61.5 -151.5q-64 -71 -170 -71t-170 71q-45 50 -61.5 151.5t-16.5 307.5zM139 1200l168 258h78l168 -258h-84l-123 195l-123 -195h-84zM176 514q0 -198 11 -285 t49 -129q44 -47 110 -47q67 0 111 47q38 42 48.5 128t10.5 286t-10.5 286t-48.5 128q-44 47 -111 47q-66 0 -110 -47q-38 -42 -49 -129t-11 -285z" />
<glyph unicode="&#xf5;" d="M98 514q0 206 16.5 307.5t61.5 151.5q64 71 170 71t170 -71q45 -50 61.5 -151.5t16.5 -307.5t-16.5 -307.5t-61.5 -151.5q-64 -71 -170 -71t-170 71q-45 50 -61.5 151.5t-16.5 307.5zM121 1288q46 46 74 59t57 13q51 0 104 -35q51 -33 84 -33q37 0 86 49l45 -45 q-32 -32 -59 -48.5t-40.5 -19.5t-31.5 -3q-40 0 -104 35q-2 1 -13.5 7.5t-14.5 8t-12.5 6t-15 6t-13 3t-15.5 1.5q-21 0 -37 -8t-49 -41zM176 514q0 -198 11 -285t49 -129q44 -47 110 -47q67 0 111 47q38 42 48.5 128t10.5 286t-10.5 286t-48.5 128q-44 47 -111 47 q-66 0 -110 -47q-38 -42 -49 -129t-11 -285z" />
<glyph unicode="&#xf6;" d="M98 514q0 206 16.5 307.5t61.5 151.5q64 71 170 71t170 -71q45 -50 61.5 -151.5t16.5 -307.5t-16.5 -307.5t-61.5 -151.5q-64 -71 -170 -71t-170 71q-45 50 -61.5 151.5t-16.5 307.5zM168 1247v103h102v-103h-102zM176 514q0 -198 11 -285t49 -129q44 -47 110 -47 q67 0 111 47q38 42 48.5 128t10.5 286t-10.5 286t-48.5 128q-44 47 -111 47q-66 0 -110 -47q-38 -42 -49 -129t-11 -285zM422 1247v103h102v-103h-102z" />
<glyph unicode="&#xf7;" horiz-adv-x="864" d="M102 522v74h660v-74h-660zM375 225v119h119v-119h-119zM375 772v119h119v-119h-119z" />
<glyph unicode="&#xf8;" horiz-adv-x="675" d="M96 -90l60 172q-33 54 -45.5 151.5t-12.5 280.5q0 206 16.5 307.5t61.5 151.5q64 71 170 71q83 0 135 -40l39 114h76l-59 -172q33 -52 45 -149.5t12 -282.5q0 -206 -16.5 -307.5t-61.5 -151.5q-64 -71 -170 -71q-82 0 -135 41l-39 -115h-76zM176 514q0 -255 21 -334 l258 750q-42 45 -109 45q-66 0 -110 -47q-38 -42 -49 -129t-11 -285zM238 98q42 -45 108 -45q67 0 111 47q38 42 48.5 128t10.5 286q0 258 -20 336z" />
<glyph unicode="&#xf9;" horiz-adv-x="731" d="M125 244v784h78v-786q0 -90 44 -138.5t113 -48.5t113.5 48.5t44.5 138.5v786h78v-1028h-78v84q-14 -32 -53 -61q-51 -39 -123 -39q-92 0 -154 65q-63 63 -63 195zM184 1458h97l129 -258h-82z" />
<glyph unicode="&#xfa;" horiz-adv-x="731" d="M125 244v784h78v-786q0 -90 44 -138.5t113 -48.5t113.5 48.5t44.5 138.5v786h78v-1028h-78v84q-14 -32 -53 -61q-51 -39 -123 -39q-92 0 -154 65q-63 63 -63 195zM317 1200l129 258h97l-144 -258h-82z" />
<glyph unicode="&#xfb;" horiz-adv-x="731" d="M125 244v784h78v-786q0 -90 44 -138.5t113 -48.5t113.5 48.5t44.5 138.5v786h78v-1028h-78v84q-14 -32 -53 -61q-51 -39 -123 -39q-92 0 -154 65q-63 63 -63 195zM154 1200l168 258h77l168 -258h-84l-123 195l-122 -195h-84z" />
<glyph unicode="&#xfc;" horiz-adv-x="731" d="M125 244v784h78v-786q0 -90 44 -138.5t113 -48.5t113.5 48.5t44.5 138.5v786h78v-1028h-78v84q-14 -32 -53 -61q-51 -39 -123 -39q-92 0 -154 65q-63 63 -63 195zM182 1247v103h103v-103h-103zM436 1247v103h103v-103h-103z" />
<glyph unicode="&#xfd;" horiz-adv-x="575" d="M2 -360q157 0 191 141l55 223l-240 1024h86l191 -905l190 905h86l-293 -1253q-48 -205 -266 -205v70zM254 1200l129 258h96l-143 -258h-82z" />
<glyph unicode="&#xfe;" horiz-adv-x="716" d="M135 -430v1888h78v-514q14 33 53 62q49 38 123 38q89 0 152 -69q45 -50 61 -152t16 -309t-16 -309t-61 -152q-62 -69 -152 -69q-75 0 -123 34q-32 21 -53 62v-510h-78zM213 254q0 -107 53 -160q44 -41 109 -41q62 0 106 47q38 42 49 129t11 285t-11 285t-49 129 q-44 47 -106 47q-65 0 -109 -41q-53 -53 -53 -160v-520z" />
<glyph unicode="&#xff;" horiz-adv-x="575" d="M2 -360q157 0 191 141l55 223l-240 1024h86l191 -905l190 905h86l-293 -1253q-48 -205 -266 -205v70zM119 1247v103h102v-103h-102zM373 1247v103h102v-103h-102z" />
<glyph unicode="&#x152;" horiz-adv-x="1204" d="M119 729q0 260 8.5 384t28 183.5t65.5 106.5q69 72 195 72q148 0 215 -107v90h471v-74h-389v-618h336v-74h-336v-618h389v-74h-471v90q-66 -106 -215 -106q-127 0 -195 71q-46 47 -65.5 106.5t-28 183.5t-8.5 384zM201 729q0 -250 6.5 -365t21.5 -165.5t50 -89.5 q49 -52 137 -52t137 52q35 39 50 89.5t21.5 165.5t6.5 365t-6.5 365t-21.5 166t-50 90q-48 51 -137 51t-137 -51q-35 -39 -50 -90t-21.5 -166t-6.5 -365z" />
<glyph unicode="&#x153;" horiz-adv-x="1103" d="M98 514q0 206 16.5 307.5t61.5 151.5q64 71 170 71t170 -71q25 -28 39 -66q14 38 39 66q64 71 170 71t170 -71q45 -50 61.5 -151.5t16.5 -307.5h-418q0 -197 11.5 -284.5t49.5 -129.5q44 -47 113 -47q72 0 113 41q53 50 53 166h76q0 -75 -17 -123.5t-55 -87.5 q-65 -65 -170 -65q-108 0 -172 71q-24 27 -41 68q-14 -39 -39 -68q-64 -71 -170 -71t-170 71q-45 50 -61.5 151.5t-16.5 307.5zM176 514q0 -198 11 -285t49 -129q44 -47 110 -47q67 0 111 47q38 42 48.5 128t10.5 286t-10.5 286t-48.5 128q-44 47 -111 47q-66 0 -110 -47 q-38 -42 -49 -129t-11 -285zM594 580h340q-2 160 -13.5 235t-46.5 113q-44 47 -110 47q-67 0 -111 -47q-35 -38 -46 -112t-13 -236z" />
<glyph unicode="&#x178;" horiz-adv-x="591" d="M8 1458h90l197 -698l199 698h90l-248 -833v-625h-82v625zM117 1616v102h102v-102h-102zM371 1616v102h102v-102h-102z" />
<glyph unicode="&#x2c6;" d="M139 1200l168 258h78l168 -258h-84l-123 195l-123 -195h-84z" />
<glyph unicode="&#x2dc;" d="M121 1288q46 46 74 59t57 13q51 0 104 -35q51 -33 84 -33q37 0 86 49l45 -45q-32 -32 -59 -48.5t-40.5 -19.5t-31.5 -3q-40 0 -104 35q-2 1 -13.5 7.5t-14.5 8t-12.5 6t-15 6t-13 3t-15.5 1.5q-21 0 -37 -8t-49 -41z" />
<glyph unicode="&#x2000;" horiz-adv-x="944" />
<glyph unicode="&#x2001;" horiz-adv-x="1888" />
<glyph unicode="&#x2002;" horiz-adv-x="944" />
<glyph unicode="&#x2003;" horiz-adv-x="1888" />
<glyph unicode="&#x2004;" horiz-adv-x="629" />
<glyph unicode="&#x2005;" horiz-adv-x="472" />
<glyph unicode="&#x2006;" horiz-adv-x="314" />
<glyph unicode="&#x2007;" horiz-adv-x="314" />
<glyph unicode="&#x2008;" horiz-adv-x="236" />
<glyph unicode="&#x2009;" horiz-adv-x="377" />
<glyph unicode="&#x200a;" horiz-adv-x="104" />
<glyph unicode="&#x2010;" horiz-adv-x="620" d="M119 522v74h383v-74h-383z" />
<glyph unicode="&#x2011;" horiz-adv-x="620" d="M119 522v74h383v-74h-383z" />
<glyph unicode="&#x2012;" horiz-adv-x="620" d="M119 522v74h383v-74h-383z" />
<glyph unicode="&#x2013;" horiz-adv-x="864" d="M102 522v74h660v-74h-660z" />
<glyph unicode="&#x2014;" horiz-adv-x="1343" d="M119 522v74h1106v-74h-1106z" />
<glyph unicode="&#x2018;" horiz-adv-x="344" d="M119 1294v164l106 78v-242h-106z" />
<glyph unicode="&#x2019;" horiz-adv-x="344" d="M119 1217v241h106v-164z" />
<glyph unicode="&#x201a;" horiz-adv-x="344" d="M119 -78v242h106v-164z" />
<glyph unicode="&#x201c;" horiz-adv-x="606" d="M119 1294v164l106 78v-242h-106zM381 1294v164l106 78v-242h-106z" />
<glyph unicode="&#x201d;" horiz-adv-x="606" d="M119 1217v241h106v-164zM381 1217v241h106v-164z" />
<glyph unicode="&#x201e;" horiz-adv-x="606" d="M119 -119v242h106v-164zM381 -119v242h106v-164z" />
<glyph unicode="&#x2022;" horiz-adv-x="962" d="M147 684q0 138 98 236t236 98t236 -98t98 -236t-98 -236t-236 -98t-236 98t-98 236z" />
<glyph unicode="&#x2026;" horiz-adv-x="1044" d="M131 0v119h119v-119h-119zM463 0v119h119v-119h-119zM795 0v119h118v-119h-118z" />
<glyph unicode="&#x202f;" horiz-adv-x="377" />
<glyph unicode="&#x2039;" horiz-adv-x="440" d="M61 543l261 401v-149l-166 -252l166 -252v-150z" />
<glyph unicode="&#x203a;" horiz-adv-x="440" d="M119 141v150l166 252l-166 252v149l260 -401z" />
<glyph unicode="&#x205f;" horiz-adv-x="472" />
<glyph unicode="&#x20ac;" horiz-adv-x="880" d="M74 557v64h133v217h-133v63h133q4 258 23.5 350t78.5 152q69 72 195 72q120 0 192 -72q84 -87 84 -260h-82q0 258 -194 258q-89 0 -137 -51q-45 -48 -60 -129t-18 -320h293v-63h-293v-217h293v-64h-293q3 -239 18 -319.5t60 -128.5q49 -52 137 -52q194 0 194 258h82 q0 -187 -96 -270q-67 -61 -180 -61q-127 0 -195 71q-59 60 -78.5 152t-23.5 350h-133z" />
<glyph unicode="&#x2122;" horiz-adv-x="1210" d="M74 1397v61h370v-61h-151v-813h-68v813h-151zM567 584v874h70l190 -506l191 506h69v-874h-67v704l-164 -446h-57l-164 430v-688h-68z" />
<glyph unicode="&#xfb01;" horiz-adv-x="770" d="M31 965v63h133v170q0 128 67 195q65 65 199 65v-69q-188 0 -188 -187v-174h188v-63h-188v-965h-78v965h-133zM539 1305v114h114v-114h-114zM557 0v1028h78v-1028h-78z" />
<glyph unicode="&#xfb02;" horiz-adv-x="843" d="M31 965v63h133v170q0 128 67 195q65 65 199 65v-69q-188 0 -188 -187v-174h188v-63h-188v-965h-78v965h-133zM557 260v1198h78v-1202q0 -186 178 -186v-70q-122 0 -188 66q-68 68 -68 194z" />
</font>
</defs>
</svg>
