<?xml version="1.0" standalone="no"?>
<!DOCTYPE svg PUBLIC "-//W3C//DTD SVG 1.1//EN" "http://www.w3.org/Graphics/SVG/1.1/DTD/svg11.dtd" >
<svg xmlns="http://www.w3.org/2000/svg">
<metadata></metadata>
<defs>
<font id="din_otcondensed_black" horiz-adv-x="868" >
<font-face units-per-em="2048" ascent="1565" descent="-483" />
<missing-glyph horiz-adv-x="348" />
<glyph horiz-adv-x="0" />
<glyph horiz-adv-x="0" />
<glyph horiz-adv-x="682" />
<glyph unicode="&#xd;" horiz-adv-x="348" />
<glyph unicode=" "  horiz-adv-x="348" />
<glyph unicode="&#x09;" horiz-adv-x="348" />
<glyph unicode="&#xa0;" horiz-adv-x="348" />
<glyph unicode="!" horiz-adv-x="561" d="M147 0v307h308v-307h-308zM164 424v1034h274v-1034h-274z" />
<glyph unicode="&#x22;" horiz-adv-x="991" d="M160 1026v432h250v-432h-250zM582 1026v432h247v-432h-247z" />
<glyph unicode="#" horiz-adv-x="1368" d="M86 379v262h178l35 219h-145v262h186l53 336h291l-53 -336h225l53 336h291l-53 -336h135v-262h-176l-35 -219h143v-262h-186l-59 -379h-291l59 379h-225l-59 -379h-291l59 379h-135zM555 641h225l35 219h-225z" />
<glyph unicode="$" horiz-adv-x="970" d="M74 414h291q0 -99 30 -133q31 -35 90 -35q66 0 93 37q28 35 28 123q0 101 -23 137t-104 69l-184 76q-77 32 -120.5 72.5t-66 111.5t-22.5 183q0 210 131 323q62 53 139 76v197h258v-193q91 -19 158 -80q113 -105 113 -338h-291q0 34 -1 51t-6.5 41t-17.5 39 q-26 37 -84 37q-57 0 -84 -39q-24 -33 -24 -104q0 -70 18.5 -99t81.5 -55l182 -73q96 -40 145 -86.5t71 -124t22 -211.5q0 -119 -20 -195t-74 -129q-66 -66 -189 -94v-231h-258v229q-115 23 -186 94q-52 52 -74 129.5t-22 194.5z" />
<glyph unicode="%" horiz-adv-x="1630" d="M86 981v223q0 131 84.5 201t208.5 70t208.5 -70t84.5 -201v-223q0 -131 -84.5 -200.5t-208.5 -69.5t-208.5 69.5t-84.5 200.5zM307 987q0 -41 19.5 -60.5t52.5 -19.5t52.5 19.5t19.5 60.5v211q0 41 -19.5 60.5t-52.5 19.5t-52.5 -19.5t-19.5 -60.5v-211zM459 0l508 1458 h209l-508 -1458h-209zM958 254v223q0 131 84.5 201t208.5 70t208.5 -70t84.5 -201v-223q0 -131 -84.5 -200.5t-208.5 -69.5t-208.5 69.5t-84.5 200.5zM1180 260q0 -80 71 -80q33 0 52.5 19.5t19.5 60.5v211q0 41 -19.5 60.5t-52.5 19.5q-71 0 -71 -80v-211z" />
<glyph unicode="&#x26;" horiz-adv-x="1036" d="M63 369q0 218 199 430q-137 181 -137 331q0 90 25.5 158.5t68.5 108t95.5 59t111.5 19.5q150 0 228.5 -92t78.5 -232q0 -119 -44 -211.5t-122 -181.5l121 -191q26 71 37 226h229q-3 -117 -36 -246t-80 -223l198 -324h-280l-64 102q-115 -118 -276 -118q-159 0 -256 103.5 t-97 281.5zM317 387q0 -73 35.5 -115.5t85.5 -42.5q69 0 123 82l-166 267q-78 -87 -78 -191zM367 1139q0 -36 21 -86t44 -76q32 42 46 79.5t14 90.5q0 37 -18.5 59.5t-45.5 22.5q-61 0 -61 -90z" />
<glyph unicode="'" horiz-adv-x="571" d="M160 1026v432h252v-432h-252z" />
<glyph unicode="(" horiz-adv-x="593" d="M86 289v880q0 171 55 267q32 54 74.5 102.5t108.5 112.5l184 -185q-57 -57 -79 -82.5t-40 -56.5q-29 -51 -29 -170v-856q0 -119 29 -170q18 -31 40 -56.5t79 -82.5l-184 -185q-131 127 -183 216q-55 96 -55 266z" />
<glyph unicode=")" horiz-adv-x="593" d="M86 -8q57 57 79 82.5t40 56.5q28 49 28 170v856q0 121 -28 170q-18 31 -40 56.5t-79 82.5l184 185q66 -64 108.5 -112.5t74.5 -102.5q55 -96 55 -267v-880q0 -170 -55 -266q-52 -89 -183 -216z" />
<glyph unicode="*" horiz-adv-x="909" d="M80 950l205 107l-205 106l92 164l197 -125l-11 256h193l-10 -256l194 125l94 -164l-206 -106l206 -107l-94 -162l-194 123l10 -256h-193l11 256l-197 -123z" />
<glyph unicode="+" horiz-adv-x="966" d="M86 473v262h266v266h262v-266h267v-262h-267v-266h-262v266h-266z" />
<glyph unicode="," horiz-adv-x="520" d="M115 307h291v-459l-291 -215v674z" />
<glyph unicode="-" horiz-adv-x="598" d="M86 473v262h426v-262h-426z" />
<glyph unicode="." horiz-adv-x="520" d="M106 0v307h308v-307h-308z" />
<glyph unicode="/" horiz-adv-x="669" d="M18 -152l379 1762h254l-379 -1762h-254z" />
<glyph unicode="0" d="M74 340v778q0 92 24.5 153.5t75.5 108.5q100 95 260 95t260 -95q52 -48 76.5 -109t24.5 -153v-778q0 -92 -24.5 -153t-76.5 -109q-98 -94 -260 -94t-260 94q-51 47 -75.5 108.5t-24.5 153.5zM348 330q0 -49 24 -75t62 -26t62 26t24 75v798q0 49 -24 75t-62 26t-62 -26 t-24 -75v-798z" />
<glyph unicode="1" d="M152 977v307l223 174h274v-1458h-274v1137z" />
<glyph unicode="2" d="M74 1040v78q0 92 24.5 153.5t75.5 108.5q100 95 262 95q156 0 250 -84q109 -99 109 -275q0 -77 -21.5 -160.5t-58.5 -146.5l-330 -563h410v-246h-705v233l375 658q55 94 55 235q0 50 -23 76.5t-61 26.5q-39 0 -63.5 -26t-24.5 -75v-88h-274z" />
<glyph unicode="3" d="M74 340v78h274v-88q0 -49 24.5 -75t63.5 -26q42 0 64 31q26 33 26 164q0 96 -4.5 134t-17.5 58q-23 35 -70 35h-65v230h65q41 0 58 24q16 22 20 52.5t4 101.5q0 66 -3.5 94t-16.5 47q-22 29 -60 29q-34 0 -56 -23t-22 -65v-101h-274v82q0 168 100 260q97 93 252 93 q159 0 250 -91q105 -102 105 -305q0 -147 -35 -221q-26 -53 -80 -92q60 -47 86 -98q18 -35 27 -81.5t10.5 -77t1.5 -85.5q0 -136 -18.5 -210t-86.5 -138q-100 -92 -260 -92q-164 0 -262 94q-51 47 -75.5 108.5t-24.5 153.5z" />
<glyph unicode="4" d="M39 213v246l377 999h264l-358 -999h133v176h274v-176h100v-246h-100v-213h-274v213h-416z" />
<glyph unicode="5" d="M74 340v57h274v-67q0 -49 24.5 -75t63.5 -26q42 0 64 31q14 18 20 64t6 157q0 109 -3 152.5t-15 64.5q-24 43 -74 43q-39 0 -62.5 -25.5t-23.5 -74.5v-10h-262v827h698v-246h-448v-321q44 51 80 70q50 26 104 26q75 0 124.5 -23t88.5 -69q37 -44 52.5 -134.5t15.5 -279.5 q0 -78 -2 -120t-11.5 -101t-32.5 -102.5t-61 -79.5q-102 -94 -260 -94q-162 0 -260 94q-51 47 -75.5 108.5t-24.5 153.5z" />
<glyph unicode="6" d="M70 449q0 167 59 317l268 692h287l-242 -567q23 14 72 14q135 0 209 -102q41 -56 58.5 -134t17.5 -220q0 -126 -17.5 -200t-52.5 -128q-88 -137 -297 -137q-203 0 -291 137q-39 64 -55 138t-16 190zM344 455q0 -155 25 -193q20 -33 65 -33q46 0 66 33q24 37 24 193 q0 155 -24 192q-20 33 -66 33q-45 0 -65 -33q-25 -38 -25 -192z" />
<glyph unicode="7" d="M51 1040v418h756v-229l-381 -1229h-270l376 1212h-217v-172h-264z" />
<glyph unicode="8" d="M70 418q0 151 39 231q28 57 88 105q-52 43 -78 96q-39 83 -39 217q0 103 22.5 179.5t81.5 135.5q93 93 248 93q159 0 252 -93q59 -59 81.5 -135.5t22.5 -179.5q0 -136 -38 -217q-26 -53 -78 -96q60 -48 88 -105q39 -80 39 -231q0 -121 -19.5 -198.5t-85.5 -141.5 q-98 -94 -260 -94t-260 94q-66 64 -85 141t-19 199zM344 434q0 -51 1 -76t6.5 -53.5t17.5 -44.5q22 -31 65 -31q44 0 66 31q12 16 17.5 45.5t6 52t0.5 76.5t-0.5 76.5t-6 52t-17.5 45.5q-22 31 -66 31q-43 0 -65 -31q-12 -16 -17.5 -44.5t-6.5 -53.5t-1 -76zM354 1049 q0 -81 6.5 -113.5t22.5 -48.5q19 -19 51 -19t51 19q16 16 22.5 48.5t6.5 113.5t-6.5 113t-22.5 48q-19 19 -51 19t-51 -19q-16 -16 -22.5 -48t-6.5 -113z" />
<glyph unicode="9" d="M70 1010q0 126 17 199.5t52 127.5q89 138 297 138q203 0 291 -138q40 -64 56 -137.5t16 -189.5q0 -165 -60 -318l-268 -692h-287l242 567q-23 -14 -72 -14q-135 0 -209 102q-41 55 -58 133.5t-17 221.5zM344 1004q0 -155 25 -193q20 -33 65 -33q46 0 66 33q24 37 24 193 q0 155 -24 192q-20 33 -66 33q-45 0 -65 -33q-25 -38 -25 -192z" />
<glyph unicode=":" horiz-adv-x="561" d="M147 0v307h308v-307h-308zM147 610v308h308v-308h-308z" />
<glyph unicode=";" horiz-adv-x="561" d="M147 610v308h308v-308h-308zM156 307h290v-459l-290 -215v674z" />
<glyph unicode="&#x3c;" d="M70 516v180l729 426v-299l-387 -217l387 -217v-299z" />
<glyph unicode="=" horiz-adv-x="966" d="M86 266v262h795v-262h-795zM86 680v262h795v-262h-795z" />
<glyph unicode="&#x3e;" d="M70 90v299l387 217l-387 217v299l729 -426v-180z" />
<glyph unicode="?" horiz-adv-x="931" d="M113 1038q0 228 106 326q113 106 273 106q174 0 276 -102q58 -58 82 -135t24 -186q0 -176 -75 -263l-121 -143q-49 -58 -49 -123v-94h-275v125q0 97 72 180l121 143q32 37 42.5 78t10.5 105q0 33 -1 51t-8.5 43t-21.5 41q-30 35 -75 35q-44 0 -74 -35q-15 -17 -23 -45.5 t-9 -49t-1 -57.5h-274zM338 0v307h307v-307h-307z" />
<glyph unicode="@" horiz-adv-x="1351" d="M86 301v797q0 170 104 266q98 94 265 94h426q166 0 264 -94q104 -96 104 -266v-1098h-262v80q-44 -51 -80 -70q-50 -26 -104 -26q-74 0 -123 22t-90 70q-33 41 -47.5 95.5t-14.5 154.5v344q0 100 14.5 154.5t47.5 95.5q41 48 90 70t123 22q52 0 104 -27q39 -22 68 -55 v119q0 88 -39.5 131t-122.5 43h-291q-83 0 -122.5 -43t-39.5 -131v-732q0 -53 14 -83t50 -66l-201 -199q-75 75 -106 145.5t-31 186.5zM803 330q0 -49 24 -75t62 -26t62 26t24 75v336q0 49 -23.5 74.5t-62.5 25.5t-62.5 -25.5t-23.5 -74.5v-336z" />
<glyph unicode="A" horiz-adv-x="1060" d="M12 0l375 1458h287l375 -1458h-304l-47 227h-336l-47 -227h-303zM418 489h225l-113 541z" />
<glyph unicode="B" horiz-adv-x="1030" d="M113 0v1458h422q208 0 305 -94q53 -52 74.5 -118t21.5 -185q0 -166 -80 -246q-31 -31 -68 -49q42 -22 68 -51q45 -46 62.5 -111.5t17.5 -175.5q0 -127 -21.5 -201.5t-76.5 -130.5q-93 -96 -303 -96h-422zM403 262h93q85 0 117 43t32 146q0 102 -33 145t-116 43h-93v-377z M403 885h97q82 0 113.5 36t31.5 119t-31 119.5t-114 36.5h-97v-311z" />
<glyph unicode="C" horiz-adv-x="970" d="M70 729q0 248 19 380t89 218q119 148 320 148q169 0 280 -105q58 -55 92.5 -139t38.5 -187h-291q-4 78 -22 113q-25 55 -98 55q-71 0 -99 -57q-39 -76 -39 -426t39 -426q28 -57 99 -57q72 0 98 57q18 35 22 113h291q-4 -103 -38.5 -188t-92.5 -140q-110 -104 -280 -104 q-202 0 -320 147q-70 86 -89 218t-19 380z" />
<glyph unicode="D" horiz-adv-x="1021" d="M113 0v1458h411q113 0 188 -37.5t132 -103.5q37 -42 59.5 -99.5t32.5 -140t13 -154.5t3 -192q0 -242 -19.5 -376t-88.5 -214q-57 -66 -132 -103.5t-188 -37.5h-411zM403 262h115q78 0 109 64q16 32 24.5 105.5t9.5 132t1 167.5t-1 167t-9.5 130.5t-24.5 104.5 q-31 63 -109 63h-115v-934z" />
<glyph unicode="E" horiz-adv-x="849" d="M113 0v1458h671v-262h-381v-330h328v-262h-328v-342h381v-262h-671z" />
<glyph unicode="F" horiz-adv-x="833" d="M113 0v1458h671v-262h-381v-330h328v-262h-328v-604h-290z" />
<glyph unicode="G" horiz-adv-x="983" d="M70 729q0 248 19 380t89 218q119 148 320 148q174 0 286 -109q116 -116 125 -326h-291q-1 20 -2 34.5t-5 37t-12 38t-20.5 31t-33 23.5t-47.5 8q-71 0 -99 -57q-39 -76 -39 -426t39 -426q28 -57 99 -57q34 0 59 15t37.5 40.5t18 53.5t5.5 61v151h-120v236h411v-371 q0 -215 -110 -331.5t-301 -116.5q-202 0 -320 147q-70 86 -89 218t-19 380z" />
<glyph unicode="H" horiz-adv-x="1048" d="M113 0v1458h290v-586h242v586h291v-1458h-291v610h-242v-610h-290z" />
<glyph unicode="I" horiz-adv-x="516" d="M113 0v1458h290v-1458h-290z" />
<glyph unicode="J" horiz-adv-x="862" d="M0 109l201 196q16 -23 49.5 -41t68.5 -18q68 0 109 45.5t41 128.5v1038h291v-1038q0 -196 -107 -309q-121 -127 -334 -127q-194 0 -319 125z" />
<glyph unicode="K" horiz-adv-x="1030" d="M113 0v1458h290v-627l277 627h291l-291 -606l338 -852h-311l-209 532l-95 -196v-336h-290z" />
<glyph unicode="L" horiz-adv-x="833" d="M113 0v1458h290v-1196h381v-262h-671z" />
<glyph unicode="M" horiz-adv-x="1271" d="M113 0v1458h256l266 -715l266 715h258v-1458h-291v760l-159 -500h-150l-156 498v-758h-290z" />
<glyph unicode="N" horiz-adv-x="1073" d="M113 0v1458h254l303 -713v713h291v-1458h-248l-310 713v-713h-290z" />
<glyph unicode="O" horiz-adv-x="995" d="M70 729q0 248 19 380t89 218q119 148 320 148q200 0 319 -148q70 -86 89.5 -218.5t19.5 -379.5t-19.5 -379.5t-89.5 -218.5q-118 -147 -319 -147q-202 0 -320 147q-70 86 -89 218t-19 380zM360 729q0 -350 39 -426q28 -57 99 -57q70 0 98 57q39 76 39 426t-39 426 q-28 57 -98 57q-71 0 -99 -57q-39 -76 -39 -426z" />
<glyph unicode="P" horiz-adv-x="997" d="M113 0v1458h411q116 0 196.5 -32t127 -94.5t66.5 -145t20 -193.5t-20 -193.5t-66.5 -145t-127 -94.5t-196.5 -32h-121v-528h-290zM403 791h113q35 0 60 13t38 30.5t19.5 48.5t8 53t1.5 57t-1.5 57.5t-8 53t-19.5 48.5t-38 31t-60 13h-113v-405z" />
<glyph unicode="Q" horiz-adv-x="995" d="M70 729q0 248 19 380t89 218q119 148 320 148q200 0 319 -148q70 -86 89.5 -218.5t19.5 -379.5q0 -216 -11.5 -325t-44.5 -187l125 -104l-131 -158l-121 102q-100 -73 -245 -73q-202 0 -320 147q-70 86 -89 218t-19 380zM360 729q0 -350 39 -426q28 -57 99 -57q12 0 18 2 l-53 45l131 158l31 -27q10 108 10 305q0 350 -39 426q-28 57 -98 57q-71 0 -99 -57q-39 -76 -39 -426z" />
<glyph unicode="R" horiz-adv-x="1032" d="M113 0v1458h415q117 0 197 -29.5t125.5 -89t64.5 -138t19 -187.5q0 -135 -34.5 -228.5t-131.5 -154.5l213 -631h-303l-178 567h-97v-567h-290zM403 829h123q32 0 54.5 12t34.5 28.5t18.5 44t8 48.5t1.5 52t-1.5 52t-8 48t-18.5 43t-34.5 27.5t-54.5 11.5h-123v-367z" />
<glyph unicode="S" horiz-adv-x="958" d="M66 414h290q0 -97 31 -133q31 -35 90 -35q65 0 92 37q29 36 29 123q0 101 -23 137t-104 69l-184 76q-77 32 -120.5 72.5t-66 111.5t-22.5 183q0 210 131 323q109 92 268 92q189 0 287 -92q113 -105 113 -338h-291q0 34 -1 51t-6.5 41t-17.5 39q-26 37 -84 37 q-57 0 -84 -39q-24 -33 -24 -104q0 -70 18.5 -99t81.5 -55l182 -73q96 -40 145 -86.5t71 -124t22 -211.5q0 -119 -20 -195t-74 -129q-52 -49 -134 -78.5t-184 -29.5q-209 0 -315 106q-52 52 -74 129.5t-22 194.5z" />
<glyph unicode="T" horiz-adv-x="864" d="M41 1196v262h782v-262h-245v-1196h-291v1196h-246z" />
<glyph unicode="U" horiz-adv-x="1028" d="M102 391v1067h291v-1081q0 -67 33.5 -99t87.5 -32t87.5 32t33.5 99v1081h291v-1067q0 -175 -109 -287q-117 -120 -303 -120t-303 120q-109 112 -109 287z" />
<glyph unicode="V" horiz-adv-x="972" d="M8 1458h320l157 -1030l160 1030h320l-328 -1458h-303z" />
<glyph unicode="W" horiz-adv-x="1609" d="M8 1458h320l137 -1030l180 1030h320l180 -1030l137 1030h320l-306 -1458h-303l-188 1032l-189 -1032h-303z" />
<glyph unicode="X" horiz-adv-x="954" d="M12 0l299 754l-276 704h319l123 -436l123 436h320l-285 -704l307 -754h-319l-146 465l-145 -465h-320z" />
<glyph unicode="Y" horiz-adv-x="880" d="M-2 1458h319l123 -528l123 528h320l-297 -909v-549h-291v549z" />
<glyph unicode="Z" horiz-adv-x="819" d="M66 0v215l385 981h-365v262h668v-215l-385 -981h385v-262h-688z" />
<glyph unicode="[" horiz-adv-x="628" d="M98 -152v1762h473v-246h-198v-1270h198v-246h-473z" />
<glyph unicode="\" horiz-adv-x="669" d="M18 1610h254l379 -1762h-254z" />
<glyph unicode="]" horiz-adv-x="628" d="M57 94h199v1270h-199v246h473v-1762h-473v246z" />
<glyph unicode="^" horiz-adv-x="966" d="M66 885l299 581h237l299 -581h-264l-154 309l-153 -309h-264z" />
<glyph unicode="_" horiz-adv-x="966" d="M0 -139h967v-197h-967v197z" />
<glyph unicode="`" horiz-adv-x="860" d="M170 1499h219l156 -297h-180z" />
<glyph unicode="a" horiz-adv-x="870" d="M45 330q0 155 107 245q91 78 270 78h84v127q0 46 -22 71.5t-60 25.5q-35 0 -59 -27q-25 -31 -25 -76h-274q0 143 100 246q42 42 113.5 70t142.5 28q164 0 254 -90q104 -104 104 -274v-754h-256v90q-3 -3 -16 -19t-18 -21.5t-16 -15.5t-21 -16q-49 -34 -121 -34 q-77 0 -128 23.5t-95 78.5q-64 78 -64 244zM319 342q0 -58 25.5 -88.5t69.5 -30.5q39 0 65.5 31.5t26.5 87.5v121h-47q-28 0 -42 -1t-31.5 -7t-31.5 -19q-16 -14 -25.5 -42t-9.5 -52z" />
<glyph unicode="b" horiz-adv-x="884" d="M94 0v1458h275v-422q31 36 67 56q50 26 105 26q70 0 117.5 -20t86.5 -70q27 -34 43.5 -79t23 -116.5t7.5 -123.5t1.5 -158t-1 -158t-8 -123.5t-23 -116.5t-43.5 -79q-39 -50 -86.5 -70t-117.5 -20q-55 0 -105 26q-20 11 -45.5 33.5t-34.5 36.5v-80h-262zM369 330 q0 -52 24 -76q22 -25 60 -25q46 0 69 39q25 40 25 283t-25 283q-23 38 -69 38q-39 0 -60 -24q-24 -24 -24 -76v-442z" />
<glyph unicode="c" horiz-adv-x="837" d="M63 551q0 145 14.5 256t61.5 180q50 74 121.5 102.5t169.5 28.5q79 0 139 -19t111 -67q98 -92 108 -270h-272q-4 50 -20 76q-20 34 -66 34q-53 0 -72 -43q-9 -21 -14 -68.5t-5.5 -88t-0.5 -121.5q0 -234 20 -279q19 -43 72 -43q46 0 68 37q14 25 18 74h272 q-5 -80 -31.5 -152t-72.5 -118q-86 -86 -254 -86q-98 0 -169.5 28.5t-121.5 102.5q-47 69 -61.5 180t-14.5 256z" />
<glyph unicode="d" horiz-adv-x="884" d="M63 551q0 106 1.5 158t8 123.5t23 116.5t43.5 79q39 50 87 70t118 20q55 0 105 -26q36 -20 67 -56v422h275v-1458h-263v80q-9 -15 -34.5 -37t-44.5 -33q-50 -26 -105 -26q-70 0 -118 20t-87 70q-27 34 -43.5 79t-23 116.5t-8 123.5t-1.5 158zM338 551q0 -140 5 -200.5 t19 -82.5q23 -39 70 -39q38 0 60 25q24 24 24 76v442q0 52 -24 76q-21 24 -60 24q-47 0 -70 -38q-14 -22 -19 -82.5t-5 -200.5z" />
<glyph unicode="e" horiz-adv-x="858" d="M63 551q0 103 5.5 176.5t31 161t72.5 135.5q54 55 116 74.5t142 19.5q82 0 142 -19t114 -75q48 -49 73 -139t31.5 -182.5t6.5 -239.5h-459q0 -152 20 -191q21 -43 72 -43t72 41q14 25 14 70h275q-7 -160 -101 -262q-84 -94 -260 -94q-85 0 -144 20t-114 76 q-47 48 -72.5 134.5t-31 160t-5.5 176.5zM338 662h184q0 131 -20 169q-21 41 -72 41t-72 -41q-20 -38 -20 -169z" />
<glyph unicode="f" horiz-adv-x="593" d="M41 852v207h102v61q0 197 127 287q56 40 122.5 54t160.5 14v-246q-135 0 -135 -127v-43h135v-207h-135v-852h-275v852h-102z" />
<glyph unicode="g" horiz-adv-x="884" d="M63 608q0 169 19.5 265.5t71.5 158.5q38 46 83.5 66t112.5 20q64 0 109 -26q32 -19 69 -56v66h263v-1116q0 -164 -101 -265q-45 -44 -116 -69t-144 -25q-162 0 -260 94q-100 95 -100 248h274q0 -48 21 -78q22 -28 65 -28q41 0 66 28q20 23 20 72v217q-31 -35 -63 -55 q-44 -27 -103 -27q-124 0 -196 86q-52 62 -71.5 158.5t-19.5 265.5zM338 604q0 -112 5 -159.5t19 -69.5q25 -39 70 -39q39 0 60 24q24 24 24 76v336q0 52 -24 76q-21 24 -60 24q-46 0 -70 -38q-14 -22 -19 -70t-5 -160z" />
<glyph unicode="h" horiz-adv-x="905" d="M94 0v1458h275v-422q31 36 67 56q50 26 105 26q74 0 123 -22t90 -70q33 -41 47 -95.5t14 -154.5v-776h-274v772q0 49 -23.5 74.5t-62.5 25.5t-62.5 -25.5t-23.5 -74.5v-772h-275z" />
<glyph unicode="i" horiz-adv-x="462" d="M86 1180v290h291v-290h-291zM94 0v1059h275v-1059h-275z" />
<glyph unicode="j" horiz-adv-x="462" d="M-41 -111q72 0 103.5 28t31.5 99v1043h275v-1061q0 -197 -127 -287q-56 -40 -122 -53.5t-161 -13.5v245zM86 1180v290h291v-290h-291z" />
<glyph unicode="k" horiz-adv-x="901" d="M94 0v1458h275v-770l241 414h285l-283 -447l285 -655h-303l-158 406l-67 -107v-299h-275z" />
<glyph unicode="l" horiz-adv-x="536" d="M90 354v1104h275v-1085q0 -127 135 -127v-246q-94 0 -160.5 14t-122.5 54q-127 90 -127 286z" />
<glyph unicode="m" horiz-adv-x="1351" d="M94 0v1102h262v-80q44 51 80 70q50 26 105 26q68 0 125 -29.5t94 -82.5q56 60 110 86q50 26 109 26q80 0 130 -21.5t91 -70.5q33 -41 47.5 -95.5t14.5 -154.5v-776h-275v772q0 49 -23.5 74.5t-62.5 25.5t-62.5 -25.5t-23.5 -74.5v-772h-274v772q0 49 -23.5 74.5 t-62.5 25.5t-62.5 -25.5t-23.5 -74.5v-772h-275z" />
<glyph unicode="n" horiz-adv-x="905" d="M94 0v1102h262v-80q44 51 80 70q50 26 105 26q74 0 123 -22t90 -70q33 -41 47 -95.5t14 -154.5v-776h-274v772q0 49 -23.5 74.5t-62.5 25.5t-62.5 -25.5t-23.5 -74.5v-772h-275z" />
<glyph unicode="o" horiz-adv-x="860" d="M63 551q0 145 14.5 256t61.5 180q50 74 121.5 102.5t169.5 28.5t169.5 -28.5t121.5 -102.5q47 -69 61.5 -180t14.5 -256t-14.5 -256t-61.5 -180q-50 -74 -121.5 -102.5t-169.5 -28.5t-169.5 28.5t-121.5 102.5q-47 69 -61.5 180t-14.5 256zM338 551q0 -234 20 -279 q19 -43 72 -43t72 43q20 45 20 279q0 81 -0.5 121.5t-5.5 88t-14 68.5q-19 43 -72 43t-72 -43q-9 -21 -14 -68.5t-5.5 -88t-0.5 -121.5z" />
<glyph unicode="p" horiz-adv-x="884" d="M94 -356v1458h262v-80q9 14 34.5 36.5t45.5 33.5q50 26 105 26q70 0 117.5 -20t86.5 -70q27 -34 43.5 -79t23 -116.5t8 -123.5t1.5 -158t-1.5 -158t-8 -123.5t-23 -116.5t-43.5 -79q-39 -50 -86.5 -70t-117.5 -20q-55 0 -105 26q-36 20 -67 56v-422h-275zM369 330 q0 -52 24 -76q22 -25 60 -25q46 0 69 39q25 40 25 283t-25 283q-23 38 -69 38q-39 0 -60 -24q-24 -24 -24 -76v-442z" />
<glyph unicode="q" horiz-adv-x="884" d="M63 551q0 106 1.5 158t8 123.5t23 116.5t43.5 79q39 50 87 70t118 20q55 0 105 -26q19 -11 44.5 -33t34.5 -37v80h263v-1458h-275v422q-31 -36 -67 -56q-50 -26 -105 -26q-70 0 -118 20t-87 70q-27 34 -43.5 79t-23 116.5t-8 123.5t-1.5 158zM338 551q0 -140 5 -200.5 t19 -82.5q23 -39 70 -39q38 0 60 25q24 24 24 76v442q0 52 -24 76q-21 24 -60 24q-47 0 -70 -38q-14 -22 -19 -82.5t-5 -200.5z" />
<glyph unicode="r" horiz-adv-x="675" d="M94 0v1102h262v-119q48 61 121 98q76 37 162 37v-270h-100q-72 0 -121 -47.5t-49 -128.5v-672h-275z" />
<glyph unicode="s" horiz-adv-x="831" d="M49 332h270q3 -46 29 -72q26 -29 68 -29q39 0 65 23q23 20 23 61q0 35 -19 62q-23 28 -71 47l-154 59q-119 47 -170 127q-37 61 -37 154q0 84 25.5 143.5t75.5 110.5q97 100 260 100q72 0 138 -23.5t112 -66.5q102 -99 102 -248h-268q0 44 -23 70q-27 27 -61 27 q-39 0 -64 -25q-22 -19 -22 -61q0 -30 14 -50q18 -30 70 -49l151 -57q114 -45 166 -117q49 -66 49 -180q0 -154 -104 -262q-92 -92 -258 -92q-76 0 -147 25t-115 71q-51 55 -77.5 114t-27.5 138z" />
<glyph unicode="t" horiz-adv-x="593" d="M41 852v207h102v301h275v-301h135v-207h-135v-479q0 -127 135 -127v-246q-94 0 -160.5 14t-122.5 54q-127 90 -127 286v498h-102z" />
<glyph unicode="u" horiz-adv-x="905" d="M90 326v776h275v-772q0 -49 24 -75t62 -26t62 26t24 75v772h274v-1102h-262v80q-44 -51 -80 -70q-50 -26 -104 -26q-74 0 -123 22t-90 70q-33 41 -47.5 95.5t-14.5 154.5z" />
<glyph unicode="v" d="M8 1102h303l123 -666l123 666h303l-280 -1102h-291z" />
<glyph unicode="w" horiz-adv-x="1300" d="M8 1102h303l103 -666l123 666h225l123 -666l102 666h305l-264 -1102h-266l-113 616l-114 -616h-267z" />
<glyph unicode="x" horiz-adv-x="880" d="M8 0l268 559l-253 543h303l114 -281l115 281h305l-260 -543l272 -559h-305l-127 285l-127 -285h-305z" />
<glyph unicode="y" d="M8 1102h303l123 -666l123 666h303l-307 -1202q-13 -52 -34.5 -92t-45.5 -67t-60 -45.5t-66.5 -28.5t-79 -15.5t-83.5 -6.5t-92 -1v239q102 3 139 23t58 94z" />
<glyph unicode="z" horiz-adv-x="720" d="M57 0v205l295 651h-268v246h580v-205l-295 -651h295v-246h-607z" />
<glyph unicode="{" horiz-adv-x="741" d="M57 606v246h105q31 0 51 22.5t20 51.5v387q0 139 80 219q78 78 205 78h166v-246h-104q-31 0 -51.5 -22.5t-20.5 -51.5v-356q0 -97 -53 -154q-34 -34 -97 -51q62 -16 97 -51q53 -53 53 -154v-356q0 -29 20.5 -51.5t51.5 -22.5h104v-246h-166q-127 0 -205 78 q-80 80 -80 219v387q0 29 -20 51.5t-51 22.5h-105z" />
<glyph unicode="|" horiz-adv-x="765" d="M246 -152v1762h274v-1762h-274z" />
<glyph unicode="}" horiz-adv-x="741" d="M57 94h105q31 0 51 22.5t20 51.5v356q0 100 54 154q35 35 96 51q-62 17 -96 51q-54 58 -54 154v356q0 29 -20 51.5t-51 22.5h-105v246h166q127 0 205 -78q80 -80 80 -219v-387q0 -29 20.5 -51.5t51.5 -22.5h104v-246h-104q-31 0 -51.5 -22.5t-20.5 -51.5v-387 q0 -139 -80 -219q-78 -78 -205 -78h-166v246z" />
<glyph unicode="~" horiz-adv-x="966" d="M20 637q78 78 146 113.5t143 35.5q99 0 191 -53q71 -41 141 -41q71 0 137 66l168 -166q-78 -78 -146 -114t-143 -36q-97 0 -190 54q-71 41 -141 41q-72 0 -138 -66z" />
<glyph unicode="&#xa1;" horiz-adv-x="561" d="M106 795v307h308v-307h-308zM123 -356v1034h274v-1034h-274z" />
<glyph unicode="&#xa2;" horiz-adv-x="860" d="M78 750q0 139 14.5 243t61.5 170q66 94 188 117v178h209v-178q80 -15 143 -72q98 -86 109 -258h-273q-4 50 -20 72q-22 33 -66 33q-51 0 -71 -41q-21 -45 -21 -264q0 -220 21 -265q20 -41 71 -41q47 0 68 35q14 25 18 70h273q-5 -75 -32 -144t-73 -112q-56 -54 -147 -72 v-221h-209v219q-122 23 -188 117q-47 66 -61.5 170.5t-14.5 243.5z" />
<glyph unicode="&#xa3;" horiz-adv-x="1019" d="M61 633v207h127v198q0 193 124 315t317 122q194 0 319 -125l-196 -197q-23 28 -50 43.5t-73 15.5q-63 0 -106.5 -46.5t-43.5 -127.5v-198h152v-207h-152v-371h469v-262h-760v633h-127z" />
<glyph unicode="&#xa4;" horiz-adv-x="1064" d="M78 319l115 115q-41 84 -41 170t41 170l-115 115l170 170l114 -115q84 41 170 41t170 -41l115 115l170 -170l-115 -115q41 -84 41 -170t-41 -170l115 -115l-170 -169l-115 114q-84 -41 -170 -41t-170 41l-114 -114zM383 604q0 -62 43.5 -105.5t105.5 -43.5t106 44t44 105 q0 62 -44 106t-106 44q-61 0 -105 -44t-44 -106z" />
<glyph unicode="&#xa5;" horiz-adv-x="880" d="M23 1458h301l116 -528l117 528h301l-190 -620h129v-207h-195l-24 -82v-82h219v-207h-219v-260h-275v260h-219v207h219v82l-24 82h-195v207h129z" />
<glyph unicode="&#xa6;" horiz-adv-x="765" d="M246 -145v704h274v-704h-274zM246 899v705h274v-705h-274z" />
<glyph unicode="&#xa7;" horiz-adv-x="925" d="M76 551q0 110 21 174t93 121l23 16q-55 36 -84 84q-39 59 -39 158q0 151 103 254q48 49 119 74.5t149 25.5q141 0 239 -76q120 -90 123 -262h-274q0 45 -25 70q-27 27 -63 27q-35 0 -64 -25q-24 -21 -24 -62q0 -33 14 -53q21 -31 72 -49l155 -57q88 -30 140 -82 q58 -61 77 -128.5t19 -209.5q0 -114 -20 -181.5t-91 -123.5l-22 -17q54 -36 80 -86q39 -68 39 -155q0 -86 -27 -147.5t-82 -116.5q-93 -93 -270 -93q-77 0 -147 26t-117 73q-53 55 -80.5 113t-28.5 137h278q0 -45 27 -72q29 -29 68 -29q48 0 71 23q25 25 25 61q0 31 -18 55 q-24 30 -76 50l-158 59q-67 25 -117 72q-32 30 -53 64.5t-32 62.5t-16.5 72.5t-6 70.5t-0.5 82zM350 551q0 -84 10.5 -122t34.5 -56q30 -23 68 -23q37 0 67 23q24 18 34.5 56t10.5 122q0 85 -9.5 122t-35.5 56q-30 23 -67 23q-38 0 -68 -23q-26 -19 -35.5 -56t-9.5 -122z " />
<glyph unicode="&#xa8;" d="M111 1212v246h245v-246h-245zM512 1212v246h246v-246h-246z" />
<glyph unicode="&#xa9;" horiz-adv-x="1708" d="M113 729q0 151 58.5 288.5t157.5 236.5t236.5 157.5t288.5 58.5t288.5 -58.5t236.5 -157.5t157.5 -236.5t58.5 -288.5t-58.5 -288.5t-157.5 -236.5t-236.5 -157.5t-288.5 -58.5t-288.5 58.5t-236.5 157.5t-157.5 236.5t-58.5 288.5zM289 729q0 -167 73.5 -300t202.5 -206 t289 -73t289 73t202.5 206t73.5 300t-73.5 300t-202.5 206.5t-289 73.5t-289 -73.5t-202.5 -206.5t-73.5 -300zM635 727q0 139 11 213.5t46 118.5q35 42 73.5 60t94.5 18q92 0 150 -58q63 -60 69 -182h-155q0 46 -17 70q-16 22 -47 22q-35 0 -49 -28q-20 -41 -20 -234 q0 -192 20 -233q15 -29 49 -29q31 0 47 22q17 24 17 70h155q-6 -122 -69 -182q-58 -58 -150 -58q-56 0 -94.5 18t-73.5 60q-35 44 -46 118.5t-11 213.5z" />
<glyph unicode="&#xaa;" horiz-adv-x="718" d="M41 838q0 124 86 198q75 62 223 62h66v98q0 36 -17.5 56t-48.5 20q-30 0 -51 -25q-17 -17 -14 -57h-228q0 120 82 199q34 34 93 56.5t118 22.5q134 0 207 -73q86 -83 86 -219v-603h-213v68q-27 -32 -61 -53q-44 -21 -93 -21q-65 0 -106.5 16.5t-77.5 59.5q-51 59 -51 195 zM268 848q0 -45 19.5 -68.5t54.5 -23.5q31 0 52.5 24t21.5 68v94h-37q-61 0 -84 -20q-12 -12 -19.5 -34t-7.5 -40z" />
<glyph unicode="&#xab;" horiz-adv-x="897" d="M45 573l356 553v-395l-106 -158l106 -159v-396zM455 573l356 553v-395l-111 -158l111 -159v-396z" />
<glyph unicode="&#xac;" horiz-adv-x="966" d="M104 514v262h758v-495h-262v233h-496z" />
<glyph unicode="&#xad;" horiz-adv-x="598" d="M86 473v262h426v-262h-426z" />
<glyph unicode="&#xae;" horiz-adv-x="1708" d="M113 729q0 151 58.5 288.5t157.5 236.5t236.5 157.5t288.5 58.5t288.5 -58.5t236.5 -157.5t157.5 -236.5t58.5 -288.5t-58.5 -288.5t-157.5 -236.5t-236.5 -157.5t-288.5 -58.5t-288.5 58.5t-236.5 157.5t-157.5 236.5t-58.5 288.5zM289 729q0 -167 73.5 -300t202.5 -206 t289 -73t289 73t202.5 206t73.5 300t-73.5 300t-202.5 206.5t-289 73.5t-289 -73.5t-202.5 -206.5t-73.5 -300zM655 326v802h222q106 0 159 -53q56 -59 56 -192q0 -124 -52 -181q-15 -15 -36 -30l112 -346h-164l-92 311h-47v-311h-158zM813 784h61q27 0 44 17q16 21 16 82 q0 59 -16 80q-18 18 -44 18h-61v-197z" />
<glyph unicode="&#xaf;" horiz-adv-x="860" d="M160 1229v174h540v-174h-540z" />
<glyph unicode="&#xb0;" horiz-adv-x="872" d="M74 1133q0 151 105.5 256.5t256.5 105.5t257 -105.5t106 -256.5t-106 -257t-257 -106t-256.5 106t-105.5 257zM315 1133q0 -51 35 -86t86 -35t86 35t35 86t-35 85.5t-86 34.5t-86 -34.5t-35 -85.5z" />
<glyph unicode="&#xb1;" horiz-adv-x="966" d="M86 0v262h795v-262h-795zM86 682v262h266v266h262v-266h267v-262h-267v-266h-262v266h-266z" />
<glyph unicode="&#xb2;" horiz-adv-x="708" d="M96 1188v67q0 101 72 158q70 55 186 55q113 0 178 -49q80 -62 80 -166q0 -44 -17.5 -96.5t-41.5 -87.5l-236 -338h295v-147h-503v141l268 395q39 55 39 140q0 30 -17 45.5t-45 15.5t-45.5 -15t-17.5 -44v-74h-195z" />
<glyph unicode="&#xb3;" horiz-adv-x="708" d="M102 788v46h195v-52q0 -27 16 -43q18 -18 47 -18q32 0 48 20q18 24 18 109q0 83 -16 104q-18 21 -52 21h-47v139h47q29 0 41 12q19 19 19 103q0 61 -15 76q-16 16 -43 16t-43 -16q-12 -12 -12 -37v-60h-194v49q0 102 69 156q70 55 180 55q117 0 179 -53q73 -62 73 -184 q0 -88 -24 -131q-18 -35 -56 -56q41 -27 60 -59q29 -51 29 -147q0 -55 -3 -84t-20 -64t-51 -61q-71 -56 -187 -56q-112 0 -186 58q-72 57 -72 157z" />
<glyph unicode="&#xb4;" horiz-adv-x="860" d="M315 1202l156 297h219l-194 -297h-181z" />
<glyph unicode="&#xb5;" horiz-adv-x="911" d="M90 -356v1458h275v-772q0 -49 24 -75t62 -26t62 26t24 75v772h274v-1102h-262v80q-44 -51 -80 -70q-54 -26 -111 -26h-6v-340h-262z" />
<glyph unicode="&#xb6;" horiz-adv-x="1306" d="M61 1010q0 234 80 341t232 107h835v-1814h-274v1552h-184v-1552h-275v917h-102q-152 0 -232 107.5t-80 341.5z" />
<glyph unicode="&#xb7;" horiz-adv-x="573" d="M102 426v369h369v-369h-369z" />
<glyph unicode="&#xb8;" horiz-adv-x="860" d="M238 -424l135 340h164l-117 -340h-182z" />
<glyph unicode="&#xb9;" horiz-adv-x="710" d="M158 1169v187l159 102h195v-874h-195v682z" />
<glyph unicode="&#xba;" horiz-adv-x="712" d="M55 1014q0 259 62 348q41 60 100 83t139 23q168 0 238 -106q63 -91 63 -348q0 -255 -63 -348q-40 -60 -99 -82.5t-139 -22.5q-81 0 -139.5 22.5t-99.5 82.5q-62 91 -62 348zM283 1014q0 -188 16 -221t57 -33q40 0 56 33q18 37 18 221t-18 221q-16 33 -56 33 q-41 0 -57 -33t-16 -221z" />
<glyph unicode="&#xbb;" horiz-adv-x="897" d="M86 18v396l111 159l-111 158v395l356 -553zM496 18v396l106 159l-106 158v395l356 -553z" />
<glyph unicode="&#xbc;" horiz-adv-x="1845" d="M158 1169v187l159 102h195v-874h-195v682zM567 0l502 1458h209l-502 -1458h-209zM1194 129v147l205 598h184l-194 -598h102v105h195v-105h71v-147h-71v-129h-195v129h-297z" />
<glyph unicode="&#xbd;" horiz-adv-x="1843" d="M158 1169v187l159 102h195v-874h-195v682zM567 0l502 1458h209l-502 -1458h-209zM1231 604v68q0 100 72 157q71 56 186 56q113 0 178 -49q80 -62 80 -166q0 -44 -17.5 -97t-41.5 -88l-236 -338h295v-147h-504v141l268 396q39 55 39 139q0 30 -17 45.5t-44 15.5 q-28 0 -46 -15t-18 -44v-74h-194z" />
<glyph unicode="&#xbe;" horiz-adv-x="1843" d="M102 788v46h195v-52q0 -27 16 -43q18 -18 47 -18q32 0 48 20q18 24 18 109q0 83 -16 104q-18 21 -52 21h-47v139h47q29 0 41 12q19 19 19 103q0 61 -15 76q-16 16 -43 16t-43 -16q-12 -12 -12 -37v-60h-194v49q0 102 69 156q70 55 180 55q117 0 179 -53q73 -62 73 -184 q0 -88 -24 -131q-18 -35 -56 -56q41 -27 60 -59q29 -51 29 -147q0 -55 -3 -84t-20 -64t-51 -61q-71 -56 -187 -56q-112 0 -186 58q-72 57 -72 157zM565 0l502 1458h209l-502 -1458h-209zM1192 129v147l205 598h184l-195 -598h103v105h194v-105h72v-147h-72v-129h-194v129 h-297z" />
<glyph unicode="&#xbf;" horiz-adv-x="931" d="M57 55q0 174 76 262l121 144q49 58 49 123v94h275v-125q0 -97 -72 -180l-121 -144q-32 -37 -42.5 -77.5t-10.5 -104.5q0 -35 1 -51.5t8 -42t21 -41.5q30 -35 76 -35q44 0 74 35q15 17 23 45t9 48.5t1 57.5h274q0 -227 -106 -325q-115 -107 -273 -107q-173 0 -276 103 q-58 58 -82.5 135.5t-24.5 185.5zM287 795v307h307v-307h-307z" />
<glyph unicode="&#xc0;" horiz-adv-x="1060" d="M12 0l375 1458h287l375 -1458h-304l-47 227h-336l-47 -227h-303zM272 1847h220l155 -297h-180zM418 489h225l-113 541z" />
<glyph unicode="&#xc1;" horiz-adv-x="1060" d="M12 0l375 1458h287l375 -1458h-304l-47 227h-336l-47 -227h-303zM418 489h225l-113 541zM418 1550l155 297h220l-195 -297h-180z" />
<glyph unicode="&#xc2;" horiz-adv-x="1060" d="M12 0l375 1458h287l375 -1458h-304l-47 227h-336l-47 -227h-303zM211 1550l217 297h209l217 -297h-201l-121 158l-120 -158h-201zM418 489h225l-113 541z" />
<glyph unicode="&#xc3;" horiz-adv-x="1060" d="M12 0l375 1458h287l375 -1458h-304l-47 227h-336l-47 -227h-303zM221 1698q57 57 102 81.5t101 24.5q72 0 135 -37q48 -28 92 -28q27 0 48 8.5t49 36.5l116 -115q-56 -56 -102 -80t-103 -24q-78 0 -135 34q-50 29 -92 29q-27 0 -48.5 -8.5t-49.5 -36.5zM418 489h225 l-113 541z" />
<glyph unicode="&#xc4;" horiz-adv-x="1060" d="M12 0l375 1458h287l375 -1458h-304l-47 227h-336l-47 -227h-303zM209 1561v245h246v-245h-246zM418 489h225l-113 541zM610 1561v245h246v-245h-246z" />
<glyph unicode="&#xc5;" horiz-adv-x="1060" d="M12 0l375 1458h287l375 -1458h-304l-47 227h-336l-47 -227h-303zM303 1776q0 95 67 162t162 67q96 0 163 -66.5t67 -162.5q0 -95 -67.5 -162.5t-162.5 -67.5t-162 67.5t-67 162.5zM418 489h225l-113 541zM446 1776q0 -35 25.5 -60.5t60.5 -25.5t60.5 25.5t25.5 60.5 t-25.5 60.5t-60.5 25.5t-60.5 -25.5t-25.5 -60.5z" />
<glyph unicode="&#xc6;" horiz-adv-x="1464" d="M12 0l531 1458h856v-262h-381v-330h328v-262h-328v-342h381v-262h-672v248h-311l-82 -248h-322zM502 510h225v686z" />
<glyph unicode="&#xc7;" horiz-adv-x="970" d="M70 729q0 248 19 380t89 218q119 148 320 148q169 0 280 -105q58 -55 92.5 -139t38.5 -187h-291q-4 78 -22 113q-25 55 -98 55q-71 0 -99 -57q-39 -76 -39 -426t39 -426q28 -57 99 -57q72 0 98 57q18 35 22 113h291q-4 -103 -38.5 -188t-92.5 -140q-110 -104 -280 -104 q-202 0 -320 147q-70 86 -89 218t-19 380zM283 -424l135 340h164l-117 -340h-182z" />
<glyph unicode="&#xc8;" horiz-adv-x="849" d="M113 0v1458h671v-262h-381v-330h328v-262h-328v-342h381v-262h-671zM195 1847h219l155 -297h-180z" />
<glyph unicode="&#xc9;" horiz-adv-x="849" d="M113 0v1458h671v-262h-381v-330h328v-262h-328v-342h381v-262h-671zM340 1550l156 297h219l-195 -297h-180z" />
<glyph unicode="&#xca;" horiz-adv-x="849" d="M113 0v1458h671v-262h-381v-330h328v-262h-328v-342h381v-262h-671zM133 1550l217 297h209l217 -297h-201l-120 158l-121 -158h-201z" />
<glyph unicode="&#xcb;" horiz-adv-x="849" d="M113 0v1458h671v-262h-381v-330h328v-262h-328v-342h381v-262h-671zM131 1561v245h246v-245h-246zM532 1561v245h246v-245h-246z" />
<glyph unicode="&#xcc;" horiz-adv-x="516" d="M-2 1847h219l156 -297h-180zM113 0v1458h290v-1458h-290z" />
<glyph unicode="&#xcd;" horiz-adv-x="516" d="M113 0v1458h290v-1458h-290zM143 1550l156 297h219l-194 -297h-181z" />
<glyph unicode="&#xce;" horiz-adv-x="516" d="M-63 1550l217 297h208l218 -297h-201l-121 158l-121 -158h-200zM113 0v1458h290v-1458h-290z" />
<glyph unicode="&#xcf;" horiz-adv-x="516" d="M-66 1561v245h246v-245h-246zM113 0v1458h290v-1458h-290zM336 1561v245h246v-245h-246z" />
<glyph unicode="&#xd0;" horiz-adv-x="1120" d="M109 623v225h102v610h412q113 0 187.5 -37.5t131.5 -103.5q37 -42 60 -100t33 -140.5t13 -155.5t3 -192q0 -116 -3 -191t-13.5 -156.5t-33.5 -140t-59 -100.5q-57 -66 -131.5 -103.5t-187.5 -37.5h-412v623h-102zM502 262h114q78 0 109 64q16 32 24.5 105.5t9.5 132 t1 167.5t-1 167t-9.5 130.5t-24.5 104.5q-31 63 -109 63h-114v-348h121v-225h-121v-361z" />
<glyph unicode="&#xd1;" horiz-adv-x="1073" d="M113 0v1458h254l303 -713v713h291v-1458h-248l-310 713v-713h-290zM227 1698q57 57 102 81.5t101 24.5q72 0 135 -37q48 -28 92 -28q27 0 48 8.5t49 36.5l116 -115q-56 -56 -101.5 -80t-102.5 -24q-79 0 -136 34q-50 29 -92 29q-27 0 -48.5 -8.5t-49.5 -36.5z" />
<glyph unicode="&#xd2;" horiz-adv-x="995" d="M70 729q0 248 19 380t89 218q119 148 320 148q200 0 319 -148q70 -86 89.5 -218.5t19.5 -379.5t-19.5 -379.5t-89.5 -218.5q-118 -147 -319 -147q-202 0 -320 147q-70 86 -89 218t-19 380zM238 1847h219l155 -297h-180zM360 729q0 -350 39 -426q28 -57 99 -57q70 0 98 57 q39 76 39 426t-39 426q-28 57 -98 57q-71 0 -99 -57q-39 -76 -39 -426z" />
<glyph unicode="&#xd3;" horiz-adv-x="995" d="M70 729q0 248 19 380t89 218q119 148 320 148q200 0 319 -148q70 -86 89.5 -218.5t19.5 -379.5t-19.5 -379.5t-89.5 -218.5q-118 -147 -319 -147q-202 0 -320 147q-70 86 -89 218t-19 380zM360 729q0 -350 39 -426q28 -57 99 -57q70 0 98 57q39 76 39 426t-39 426 q-28 57 -98 57q-71 0 -99 -57q-39 -76 -39 -426zM383 1550l156 297h219l-195 -297h-180z" />
<glyph unicode="&#xd4;" horiz-adv-x="995" d="M70 729q0 248 19 380t89 218q119 148 320 148q200 0 319 -148q70 -86 89.5 -218.5t19.5 -379.5t-19.5 -379.5t-89.5 -218.5q-118 -147 -319 -147q-202 0 -320 147q-70 86 -89 218t-19 380zM176 1550l217 297h209l217 -297h-201l-120 158l-121 -158h-201zM360 729 q0 -350 39 -426q28 -57 99 -57q70 0 98 57q39 76 39 426t-39 426q-28 57 -98 57q-71 0 -99 -57q-39 -76 -39 -426z" />
<glyph unicode="&#xd5;" horiz-adv-x="995" d="M70 729q0 248 19 380t89 218q119 148 320 148q200 0 319 -148q70 -86 89.5 -218.5t19.5 -379.5t-19.5 -379.5t-89.5 -218.5q-118 -147 -319 -147q-202 0 -320 147q-70 86 -89 218t-19 380zM186 1698q57 57 102 81.5t101 24.5q72 0 135 -37q48 -28 92 -28q27 0 48 8.5 t49 36.5l116 -115q-56 -56 -101.5 -80t-102.5 -24q-79 0 -136 34q-50 29 -92 29q-27 0 -48.5 -8.5t-49.5 -36.5zM360 729q0 -350 39 -426q28 -57 99 -57q70 0 98 57q39 76 39 426t-39 426q-28 57 -98 57q-71 0 -99 -57q-39 -76 -39 -426z" />
<glyph unicode="&#xd6;" horiz-adv-x="995" d="M70 729q0 248 19 380t89 218q119 148 320 148q200 0 319 -148q70 -86 89.5 -218.5t19.5 -379.5t-19.5 -379.5t-89.5 -218.5q-118 -147 -319 -147q-202 0 -320 147q-70 86 -89 218t-19 380zM174 1561v245h246v-245h-246zM360 729q0 -350 39 -426q28 -57 99 -57q70 0 98 57 q39 76 39 426t-39 426q-28 57 -98 57q-71 0 -99 -57q-39 -76 -39 -426zM575 1561v245h246v-245h-246z" />
<glyph unicode="&#xd7;" horiz-adv-x="966" d="M72 371l235 235l-235 236l176 176l235 -236l236 236l176 -176l-236 -236l236 -235l-176 -176l-236 235l-235 -235z" />
<glyph unicode="&#xd8;" horiz-adv-x="995" d="M70 729q0 248 19 380t89 218q119 148 320 148q106 0 186 -39l43 112h180l-86 -223q67 -87 86 -220t19 -376q0 -247 -19.5 -379.5t-89.5 -218.5q-118 -147 -319 -147q-107 0 -187 36l-43 -110h-180l86 223q-67 87 -85.5 218.5t-18.5 377.5zM360 729q0 -96 2 -145l224 590 q-27 38 -88 38q-71 0 -99 -57q-39 -76 -39 -426zM410 285q27 -39 88 -39q70 0 98 57q39 76 39 426q0 100 -2 145z" />
<glyph unicode="&#xd9;" horiz-adv-x="1028" d="M102 391v1067h291v-1081q0 -67 33.5 -99t87.5 -32t87.5 32t33.5 99v1081h291v-1067q0 -175 -109 -287q-117 -120 -303 -120t-303 120q-109 112 -109 287zM254 1847h219l156 -297h-180z" />
<glyph unicode="&#xda;" horiz-adv-x="1028" d="M102 391v1067h291v-1081q0 -67 33.5 -99t87.5 -32t87.5 32t33.5 99v1081h291v-1067q0 -175 -109 -287q-117 -120 -303 -120t-303 120q-109 112 -109 287zM399 1550l156 297h219l-194 -297h-181z" />
<glyph unicode="&#xdb;" horiz-adv-x="1028" d="M102 391v1067h291v-1081q0 -67 33.5 -99t87.5 -32t87.5 32t33.5 99v1081h291v-1067q0 -175 -109 -287q-117 -120 -303 -120t-303 120q-109 112 -109 287zM193 1550l217 297h208l218 -297h-201l-121 158l-121 -158h-200z" />
<glyph unicode="&#xdc;" horiz-adv-x="1028" d="M102 391v1067h291v-1081q0 -67 33.5 -99t87.5 -32t87.5 32t33.5 99v1081h291v-1067q0 -175 -109 -287q-117 -120 -303 -120t-303 120q-109 112 -109 287zM190 1561v245h246v-245h-246zM592 1561v245h246v-245h-246z" />
<glyph unicode="&#xdd;" horiz-adv-x="880" d="M-2 1458h319l123 -528l123 528h320l-297 -909v-549h-291v549zM328 1550l155 297h219l-194 -297h-180z" />
<glyph unicode="&#xde;" horiz-adv-x="999" d="M113 0v1458h290v-254h121q116 0 196.5 -31.5t127 -94t66.5 -144.5t20 -193q0 -112 -20 -195t-66.5 -146.5t-127 -95.5t-196.5 -32h-121v-272h-290zM403 535h123q39 0 64.5 17.5t36 51.5t13.5 63t3 72t-3 72t-13.5 62.5t-36 51t-64.5 17.5h-123v-407z" />
<glyph unicode="&#xdf;" horiz-adv-x="901" d="M94 0v1114q0 93 25.5 153.5t77.5 110.5q102 97 262 97q173 0 266 -93q63 -63 83.5 -138t20.5 -173q0 -50 -1 -74t-8.5 -63.5t-22.5 -71.5q-27 -56 -82 -96q64 -44 92 -102q16 -35 24.5 -79.5t9.5 -73.5t1 -83q0 -76 -4 -121.5t-29 -108.5t-74 -110q-90 -88 -274 -88v246 q57 0 78 28q14 18 20 47t7 52t1 82q0 119 -22 159q-19 37 -70 37h-14v230h16q41 0 60 30q12 20 15 44.5t3 88.5q0 71 -5 98.5t-18 51.5q-19 35 -71 35q-41 0 -66.5 -28.5t-25.5 -80.5v-1120h-275z" />
<glyph unicode="&#xe0;" horiz-adv-x="870" d="M45 330q0 155 107 245q91 78 270 78h84v127q0 46 -22 71.5t-60 25.5q-35 0 -59 -27q-25 -31 -25 -76h-274q0 143 100 246q42 42 113.5 70t142.5 28q164 0 254 -90q104 -104 104 -274v-754h-256v90q-3 -3 -16 -19t-18 -21.5t-16 -15.5t-21 -16q-49 -34 -121 -34 q-77 0 -128 23.5t-95 78.5q-64 78 -64 244zM166 1499h219l156 -297h-181zM319 342q0 -58 25.5 -88.5t69.5 -30.5q39 0 65.5 31.5t26.5 87.5v121h-47q-28 0 -42 -1t-31.5 -7t-31.5 -19q-16 -14 -25.5 -42t-9.5 -52z" />
<glyph unicode="&#xe1;" horiz-adv-x="870" d="M45 330q0 155 107 245q91 78 270 78h84v127q0 46 -22 71.5t-60 25.5q-35 0 -59 -27q-25 -31 -25 -76h-274q0 143 100 246q42 42 113.5 70t142.5 28q164 0 254 -90q104 -104 104 -274v-754h-256v90q-3 -3 -16 -19t-18 -21.5t-16 -15.5t-21 -16q-49 -34 -121 -34 q-77 0 -128 23.5t-95 78.5q-64 78 -64 244zM315 1202l156 297h219l-194 -297h-181zM319 342q0 -58 25.5 -88.5t69.5 -30.5q39 0 65.5 31.5t26.5 87.5v121h-47q-28 0 -42 -1t-31.5 -7t-31.5 -19q-16 -14 -25.5 -42t-9.5 -52z" />
<glyph unicode="&#xe2;" horiz-adv-x="870" d="M45 330q0 155 107 245q91 78 270 78h84v127q0 46 -22 71.5t-60 25.5q-35 0 -59 -27q-25 -31 -25 -76h-274q0 143 100 246q42 42 113.5 70t142.5 28q164 0 254 -90q104 -104 104 -274v-754h-256v90q-3 -3 -16 -19t-18 -21.5t-16 -15.5t-21 -16q-49 -34 -121 -34 q-77 0 -128 23.5t-95 78.5q-64 78 -64 244zM104 1202l218 297h208l218 -297h-201l-121 158l-121 -158h-201zM319 342q0 -58 25.5 -88.5t69.5 -30.5q39 0 65.5 31.5t26.5 87.5v121h-47q-28 0 -42 -1t-31.5 -7t-31.5 -19q-16 -14 -25.5 -42t-9.5 -52z" />
<glyph unicode="&#xe3;" horiz-adv-x="870" d="M45 330q0 155 107 245q91 78 270 78h84v127q0 46 -22 71.5t-60 25.5q-35 0 -59 -27q-25 -31 -25 -76h-274q0 143 100 246q42 42 113.5 70t142.5 28q164 0 254 -90q104 -104 104 -274v-754h-256v90q-3 -3 -16 -19t-18 -21.5t-16 -15.5t-21 -16q-49 -34 -121 -34 q-77 0 -128 23.5t-95 78.5q-64 78 -64 244zM115 1350q57 57 101.5 81.5t100.5 24.5q73 0 136 -37q48 -28 92 -28q27 0 47.5 8.5t48.5 36.5l117 -115q-56 -56 -102 -80t-103 -24q-78 0 -135 34q-50 29 -92 29q-27 0 -49 -8.5t-50 -36.5zM319 342q0 -58 25.5 -88.5t69.5 -30.5 q39 0 65.5 31.5t26.5 87.5v121h-47q-28 0 -42 -1t-31.5 -7t-31.5 -19q-16 -14 -25.5 -42t-9.5 -52z" />
<glyph unicode="&#xe4;" horiz-adv-x="870" d="M45 330q0 155 107 245q91 78 270 78h84v127q0 46 -22 71.5t-60 25.5q-35 0 -59 -27q-25 -31 -25 -76h-274q0 143 100 246q42 42 113.5 70t142.5 28q164 0 254 -90q104 -104 104 -274v-754h-256v90q-3 -3 -16 -19t-18 -21.5t-16 -15.5t-21 -16q-49 -34 -121 -34 q-77 0 -128 23.5t-95 78.5q-64 78 -64 244zM102 1212v246h246v-246h-246zM319 342q0 -58 25.5 -88.5t69.5 -30.5q39 0 65.5 31.5t26.5 87.5v121h-47q-28 0 -42 -1t-31.5 -7t-31.5 -19q-16 -14 -25.5 -42t-9.5 -52zM504 1212v246h246v-246h-246z" />
<glyph unicode="&#xe5;" horiz-adv-x="870" d="M45 330q0 155 107 245q91 78 270 78h84v127q0 46 -22 71.5t-60 25.5q-35 0 -59 -27q-25 -31 -25 -76h-274q0 143 100 246q42 42 113.5 70t142.5 28q164 0 254 -90q104 -104 104 -274v-754h-256v90q-3 -3 -16 -19t-18 -21.5t-16 -15.5t-21 -16q-49 -34 -121 -34 q-77 0 -128 23.5t-95 78.5q-64 78 -64 244zM197 1432q0 95 67 162t162 67q96 0 162.5 -66.5t66.5 -162.5q0 -95 -67 -162.5t-162 -67.5t-162 67.5t-67 162.5zM319 342q0 -58 25.5 -88.5t69.5 -30.5q39 0 65.5 31.5t26.5 87.5v121h-47q-28 0 -42 -1t-31.5 -7t-31.5 -19 q-16 -14 -25.5 -42t-9.5 -52zM340 1432q0 -35 25.5 -60.5t60.5 -25.5t60.5 25.5t25.5 60.5t-25.5 60.5t-60.5 25.5t-60.5 -25.5t-25.5 -60.5z" />
<glyph unicode="&#xe6;" horiz-adv-x="1300" d="M45 330q0 155 107 245q91 78 270 78h84v129q0 44 -23.5 69.5t-58.5 25.5q-43 0 -64 -31q-20 -26 -20 -72h-274q0 143 100 246q42 42 113.5 70t142.5 28q109 0 182 -47q24 -17 41 -37q14 17 35 31q79 53 192 53q82 0 142 -19t114 -75q48 -49 73 -139t31.5 -182.5 t6.5 -239.5h-459q0 -150 21 -191q24 -43 71 -43q43 0 72 43q14 25 14 68h273q-12 -165 -98 -262q-84 -94 -261 -94q-115 0 -192 49q-56 35 -94 90q-56 -69 -94 -96q-61 -43 -160 -43q-77 0 -128 23.5t-95 78.5q-64 78 -64 244zM319 342q0 -58 25.5 -88.5t69.5 -30.5 q39 0 65.5 31.5t26.5 87.5v121h-47q-28 0 -42 -1t-31.5 -7t-31.5 -19q-16 -14 -25.5 -42t-9.5 -52zM778 662h185q0 129 -21 169q-21 41 -72 41q-50 0 -71 -41q-21 -40 -21 -169z" />
<glyph unicode="&#xe7;" horiz-adv-x="837" d="M63 551q0 145 14.5 256t61.5 180q50 74 121.5 102.5t169.5 28.5q79 0 139 -19t111 -67q98 -92 108 -270h-272q-4 50 -20 76q-20 34 -66 34q-53 0 -72 -43q-9 -21 -14 -68.5t-5.5 -88t-0.5 -121.5q0 -234 20 -279q19 -43 72 -43q46 0 68 37q14 25 18 74h272 q-5 -80 -31.5 -152t-72.5 -118q-86 -86 -254 -86q-98 0 -169.5 28.5t-121.5 102.5q-47 69 -61.5 180t-14.5 256zM238 -424l135 340h164l-117 -340h-182z" />
<glyph unicode="&#xe8;" horiz-adv-x="858" d="M63 551q0 103 5.5 176.5t31 161t72.5 135.5q54 55 116 74.5t142 19.5q82 0 142 -19t114 -75q48 -49 73 -139t31.5 -182.5t6.5 -239.5h-459q0 -152 20 -191q21 -43 72 -43t72 41q14 25 14 70h275q-7 -160 -101 -262q-84 -94 -260 -94q-85 0 -144 20t-114 76 q-47 48 -72.5 134.5t-31 160t-5.5 176.5zM170 1499h219l156 -297h-180zM338 662h184q0 131 -20 169q-21 41 -72 41t-72 -41q-20 -38 -20 -169z" />
<glyph unicode="&#xe9;" horiz-adv-x="858" d="M63 551q0 103 5.5 176.5t31 161t72.5 135.5q54 55 116 74.5t142 19.5q82 0 142 -19t114 -75q48 -49 73 -139t31.5 -182.5t6.5 -239.5h-459q0 -152 20 -191q21 -43 72 -43t72 41q14 25 14 70h275q-7 -160 -101 -262q-84 -94 -260 -94q-85 0 -144 20t-114 76 q-47 48 -72.5 134.5t-31 160t-5.5 176.5zM319 1202l156 297h219l-194 -297h-181zM338 662h184q0 131 -20 169q-21 41 -72 41t-72 -41q-20 -38 -20 -169z" />
<glyph unicode="&#xea;" horiz-adv-x="858" d="M63 551q0 103 5.5 176.5t31 161t72.5 135.5q54 55 116 74.5t142 19.5q82 0 142 -19t114 -75q48 -49 73 -139t31.5 -182.5t6.5 -239.5h-459q0 -152 20 -191q21 -43 72 -43t72 41q14 25 14 70h275q-7 -160 -101 -262q-84 -94 -260 -94q-85 0 -144 20t-114 76 q-47 48 -72.5 134.5t-31 160t-5.5 176.5zM109 1202l217 297h209l217 -297h-201l-121 158l-121 -158h-200zM338 662h184q0 131 -20 169q-21 41 -72 41t-72 -41q-20 -38 -20 -169z" />
<glyph unicode="&#xeb;" horiz-adv-x="858" d="M63 551q0 103 5.5 176.5t31 161t72.5 135.5q54 55 116 74.5t142 19.5q82 0 142 -19t114 -75q48 -49 73 -139t31.5 -182.5t6.5 -239.5h-459q0 -152 20 -191q21 -43 72 -43t72 41q14 25 14 70h275q-7 -160 -101 -262q-84 -94 -260 -94q-85 0 -144 20t-114 76 q-47 48 -72.5 134.5t-31 160t-5.5 176.5zM106 1212v246h246v-246h-246zM338 662h184q0 131 -20 169q-21 41 -72 41t-72 -41q-20 -38 -20 -169zM508 1212v246h246v-246h-246z" />
<glyph unicode="&#xec;" horiz-adv-x="462" d="M-29 1499h219l156 -297h-180zM94 0v1059h275v-1059h-275z" />
<glyph unicode="&#xed;" horiz-adv-x="462" d="M94 0v1059h275v-1059h-275zM100 1202l156 297h219l-194 -297h-181z" />
<glyph unicode="&#xee;" horiz-adv-x="462" d="M-90 1202l217 297h209l217 -297h-201l-121 158l-120 -158h-201zM94 0v1059h275v-1059h-275z" />
<glyph unicode="&#xef;" horiz-adv-x="462" d="M-88 1212v246h246v-246h-246zM94 0v1059h275v-1059h-275zM313 1212v246h246v-246h-246z" />
<glyph unicode="&#xf0;" horiz-adv-x="872" d="M68 492q0 98 1 142t7.5 109t23 105.5t43.5 71.5q39 43 87 61t118 18q32 0 69 -10t60 -28l-59 190h-148v199h86l-32 108h274l33 -108h143v-199h-86l55 -190q31 -106 44.5 -211.5t13.5 -257.5q0 -283 -80 -390q-51 -66 -121 -92t-166 -26t-166 26t-121 92q-79 106 -79 390z M342 498q0 -68 0.5 -101.5t5.5 -72.5t14 -56q20 -39 72 -39t72 39q9 17 14 56t5.5 72.5t0.5 101.5t-0.5 101t-5.5 72t-14 56q-20 39 -72 39t-72 -39q-9 -17 -14 -56t-5.5 -72t-0.5 -101z" />
<glyph unicode="&#xf1;" horiz-adv-x="905" d="M94 0v1102h262v-80q44 51 80 70q50 26 105 26q74 0 123 -22t90 -70q33 -41 47 -95.5t14 -154.5v-776h-274v772q0 49 -23.5 74.5t-62.5 25.5t-62.5 -25.5t-23.5 -74.5v-772h-275zM147 1350q57 57 102 81.5t101 24.5q72 0 135 -37q48 -28 93 -28q27 0 47.5 8.5t48.5 36.5 l117 -115q-56 -56 -102 -80t-103 -24q-78 0 -135 34q-50 29 -93 29q-27 0 -48.5 -8.5t-49.5 -36.5z" />
<glyph unicode="&#xf2;" horiz-adv-x="860" d="M63 551q0 145 14.5 256t61.5 180q50 74 121.5 102.5t169.5 28.5t169.5 -28.5t121.5 -102.5q47 -69 61.5 -180t14.5 -256t-14.5 -256t-61.5 -180q-50 -74 -121.5 -102.5t-169.5 -28.5t-169.5 28.5t-121.5 102.5q-47 69 -61.5 180t-14.5 256zM170 1499h219l156 -297h-180z M338 551q0 -234 20 -279q19 -43 72 -43t72 43q20 45 20 279q0 81 -0.5 121.5t-5.5 88t-14 68.5q-19 43 -72 43t-72 -43q-9 -21 -14 -68.5t-5.5 -88t-0.5 -121.5z" />
<glyph unicode="&#xf3;" horiz-adv-x="860" d="M63 551q0 145 14.5 256t61.5 180q50 74 121.5 102.5t169.5 28.5t169.5 -28.5t121.5 -102.5q47 -69 61.5 -180t14.5 -256t-14.5 -256t-61.5 -180q-50 -74 -121.5 -102.5t-169.5 -28.5t-169.5 28.5t-121.5 102.5q-47 69 -61.5 180t-14.5 256zM319 1202l156 297h219 l-194 -297h-181zM338 551q0 -234 20 -279q19 -43 72 -43t72 43q20 45 20 279q0 81 -0.5 121.5t-5.5 88t-14 68.5q-19 43 -72 43t-72 -43q-9 -21 -14 -68.5t-5.5 -88t-0.5 -121.5z" />
<glyph unicode="&#xf4;" horiz-adv-x="860" d="M63 551q0 145 14.5 256t61.5 180q50 74 121.5 102.5t169.5 28.5t169.5 -28.5t121.5 -102.5q47 -69 61.5 -180t14.5 -256t-14.5 -256t-61.5 -180q-50 -74 -121.5 -102.5t-169.5 -28.5t-169.5 28.5t-121.5 102.5q-47 69 -61.5 180t-14.5 256zM109 1202l217 297h209 l217 -297h-201l-121 158l-121 -158h-200zM338 551q0 -234 20 -279q19 -43 72 -43t72 43q20 45 20 279q0 81 -0.5 121.5t-5.5 88t-14 68.5q-19 43 -72 43t-72 -43q-9 -21 -14 -68.5t-5.5 -88t-0.5 -121.5z" />
<glyph unicode="&#xf5;" horiz-adv-x="860" d="M63 551q0 145 14.5 256t61.5 180q50 74 121.5 102.5t169.5 28.5t169.5 -28.5t121.5 -102.5q47 -69 61.5 -180t14.5 -256t-14.5 -256t-61.5 -180q-50 -74 -121.5 -102.5t-169.5 -28.5t-169.5 28.5t-121.5 102.5q-47 69 -61.5 180t-14.5 256zM119 1350q57 57 102 81.5 t101 24.5q72 0 135 -37q48 -28 92 -28q27 0 47.5 8.5t48.5 36.5l117 -115q-56 -56 -102 -80t-103 -24q-78 0 -135 34q-50 29 -92 29q-27 0 -49 -8.5t-50 -36.5zM338 551q0 -234 20 -279q19 -43 72 -43t72 43q20 45 20 279q0 81 -0.5 121.5t-5.5 88t-14 68.5q-19 43 -72 43 t-72 -43q-9 -21 -14 -68.5t-5.5 -88t-0.5 -121.5z" />
<glyph unicode="&#xf6;" horiz-adv-x="860" d="M63 551q0 145 14.5 256t61.5 180q50 74 121.5 102.5t169.5 28.5t169.5 -28.5t121.5 -102.5q47 -69 61.5 -180t14.5 -256t-14.5 -256t-61.5 -180q-50 -74 -121.5 -102.5t-169.5 -28.5t-169.5 28.5t-121.5 102.5q-47 69 -61.5 180t-14.5 256zM106 1212v246h246v-246h-246z M338 551q0 -234 20 -279q19 -43 72 -43t72 43q20 45 20 279q0 81 -0.5 121.5t-5.5 88t-14 68.5q-19 43 -72 43t-72 -43q-9 -21 -14 -68.5t-5.5 -88t-0.5 -121.5zM508 1212v246h246v-246h-246z" />
<glyph unicode="&#xf7;" horiz-adv-x="966" d="M86 446v263h795v-263h-795zM330 0v307h307v-307h-307zM330 848v307h307v-307h-307z" />
<glyph unicode="&#xf8;" horiz-adv-x="860" d="M45 -90l94 205q-47 69 -61.5 180t-14.5 256t14.5 256t61.5 180q50 74 121.5 102.5t169.5 28.5q102 0 168 -26l45 100h172l-94 -205q47 -69 61.5 -180t14.5 -256t-14.5 -256t-61.5 -180q-50 -74 -121.5 -102.5t-169.5 -28.5q-102 0 -168 26l-45 -100h-172zM336 514 l156 344q-24 27 -62 27q-55 0 -74 -45q-20 -45 -20 -289v-37zM369 244q24 -27 61 -27q55 0 74 45q20 45 20 289v35z" />
<glyph unicode="&#xf9;" horiz-adv-x="905" d="M90 326v776h275v-772q0 -49 24 -75t62 -26t62 26t24 75v772h274v-1102h-262v80q-44 -51 -80 -70q-50 -26 -104 -26q-74 0 -123 22t-90 70q-33 41 -47.5 95.5t-14.5 154.5zM190 1499h220l155 -297h-180z" />
<glyph unicode="&#xfa;" horiz-adv-x="905" d="M90 326v776h275v-772q0 -49 24 -75t62 -26t62 26t24 75v772h274v-1102h-262v80q-44 -51 -80 -70q-50 -26 -104 -26q-74 0 -123 22t-90 70q-33 41 -47.5 95.5t-14.5 154.5zM340 1202l156 297h219l-195 -297h-180z" />
<glyph unicode="&#xfb;" horiz-adv-x="905" d="M90 326v776h275v-772q0 -49 24 -75t62 -26t62 26t24 75v772h274v-1102h-262v80q-44 -51 -80 -70q-50 -26 -104 -26q-74 0 -123 22t-90 70q-33 41 -47.5 95.5t-14.5 154.5zM129 1202l217 297h209l217 -297h-201l-120 158l-121 -158h-201z" />
<glyph unicode="&#xfc;" horiz-adv-x="905" d="M90 326v776h275v-772q0 -49 24 -75t62 -26t62 26t24 75v772h274v-1102h-262v80q-44 -51 -80 -70q-50 -26 -104 -26q-74 0 -123 22t-90 70q-33 41 -47.5 95.5t-14.5 154.5zM127 1212v246h246v-246h-246zM528 1212v246h246v-246h-246z" />
<glyph unicode="&#xfd;" d="M8 1102h303l123 -666l123 666h303l-307 -1202q-13 -52 -34.5 -92t-45.5 -67t-60 -45.5t-66.5 -28.5t-79 -15.5t-83.5 -6.5t-92 -1v239q102 3 139 23t58 94zM324 1202l155 297h219l-194 -297h-180z" />
<glyph unicode="&#xfe;" horiz-adv-x="892" d="M98 -356v1814h262v-436q9 14 34.5 36.5t45.5 33.5q50 26 105 26q70 0 118 -20t87 -70q27 -34 43.5 -79t23 -117.5t7.5 -122t1 -158.5t-1 -158.5t-7.5 -122t-23 -117.5t-43.5 -79q-39 -50 -87 -70t-118 -20q-55 0 -105 26q-36 20 -67 56v-422h-275zM373 330q0 -52 24 -76 q22 -25 60 -25q46 0 69 39q25 40 25 283t-25 283q-23 38 -69 38q-39 0 -60 -24q-24 -24 -24 -76v-442z" />
<glyph unicode="&#xff;" d="M8 1102h303l123 -666l123 666h303l-307 -1202q-13 -52 -34.5 -92t-45.5 -67t-60 -45.5t-66.5 -28.5t-79 -15.5t-83.5 -6.5t-92 -1v239q102 3 139 23t58 94zM111 1212v246h245v-246h-245zM512 1212v246h246v-246h-246z" />
<glyph unicode="&#x152;" horiz-adv-x="1359" d="M70 729q0 201 21 357.5t87 242.5q115 146 303 146q45 0 95.5 -17.5t78.5 -40.5v41h639v-262h-381v-330h328v-262h-328v-342h381v-262h-639v41q-79 -57 -174 -57q-198 0 -303 145q-108 147 -108 600zM360 729q0 -350 39 -426q28 -57 97 -57q72 0 100 57q39 76 39 426 t-39 426q-28 57 -100 57q-69 0 -97 -57q-39 -76 -39 -426z" />
<glyph unicode="&#x153;" horiz-adv-x="1316" d="M63 551q0 145 14.5 256t61.5 180q50 74 121.5 102.5t169.5 28.5q122 0 205 -61q21 -16 29 -27q12 15 36 31q93 57 189 57q82 0 142 -19t114 -75q68 -71 89 -203.5t21 -357.5h-458q0 -152 20 -191q21 -43 72 -43t72 41q14 25 14 70h274q-7 -161 -100 -262 q-84 -94 -260 -94q-110 0 -193 59q-9 6 -32 29q-14 -17 -35 -31q-83 -57 -199 -57q-98 0 -169.5 28.5t-121.5 102.5q-47 69 -61.5 180t-14.5 256zM338 551q0 -234 20 -279q19 -43 72 -43t72 43q20 45 20 279q0 81 -0.5 121.5t-5.5 88t-14 68.5q-19 43 -72 43t-72 -43 q-9 -21 -14 -68.5t-5.5 -88t-0.5 -121.5zM797 662h184q0 131 -20 169q-21 41 -72 41t-72 -41q-20 -38 -20 -169z" />
<glyph unicode="&#x178;" horiz-adv-x="880" d="M-2 1458h319l123 -528l123 528h320l-297 -909v-549h-291v549zM119 1561v245h246v-245h-246zM520 1561v245h246v-245h-246z" />
<glyph unicode="&#x2c6;" horiz-adv-x="860" d="M109 1202l217 297h209l217 -297h-201l-121 158l-121 -158h-200z" />
<glyph unicode="&#x2dc;" horiz-adv-x="860" d="M119 1350q57 57 102 81.5t101 24.5q72 0 135 -37q48 -28 92 -28q27 0 47.5 8.5t48.5 36.5l117 -115q-56 -56 -102 -80t-103 -24q-78 0 -135 34q-50 29 -92 29q-27 0 -49 -8.5t-50 -36.5z" />
<glyph unicode="&#x2000;" horiz-adv-x="1002" />
<glyph unicode="&#x2001;" horiz-adv-x="2005" />
<glyph unicode="&#x2002;" horiz-adv-x="1002" />
<glyph unicode="&#x2003;" horiz-adv-x="2005" />
<glyph unicode="&#x2004;" horiz-adv-x="668" />
<glyph unicode="&#x2005;" horiz-adv-x="501" />
<glyph unicode="&#x2006;" horiz-adv-x="334" />
<glyph unicode="&#x2007;" horiz-adv-x="334" />
<glyph unicode="&#x2008;" horiz-adv-x="250" />
<glyph unicode="&#x2009;" horiz-adv-x="401" />
<glyph unicode="&#x200a;" horiz-adv-x="111" />
<glyph unicode="&#x2010;" horiz-adv-x="598" d="M86 473v262h426v-262h-426z" />
<glyph unicode="&#x2011;" horiz-adv-x="598" d="M86 473v262h426v-262h-426z" />
<glyph unicode="&#x2012;" horiz-adv-x="598" d="M86 473v262h426v-262h-426z" />
<glyph unicode="&#x2013;" horiz-adv-x="966" d="M86 473v262h795v-262h-795z" />
<glyph unicode="&#x2014;" horiz-adv-x="1503" d="M86 473v262h1331v-262h-1331z" />
<glyph unicode="&#x2018;" horiz-adv-x="520" d="M115 1167v291l291 215v-506h-291z" />
<glyph unicode="&#x2019;" horiz-adv-x="520" d="M115 952v506h291v-291z" />
<glyph unicode="&#x201a;" horiz-adv-x="520" d="M115 -215v506h291v-291z" />
<glyph unicode="&#x201c;" horiz-adv-x="958" d="M115 1167v291l291 215v-506h-291zM553 1167v291l291 215v-506h-291z" />
<glyph unicode="&#x201d;" horiz-adv-x="958" d="M115 952v506h291v-291zM553 952v506h291v-291z" />
<glyph unicode="&#x201e;" horiz-adv-x="958" d="M115 -215v506h291v-291zM553 -215v506h291v-291z" />
<glyph unicode="&#x2022;" horiz-adv-x="892" d="M113 684q0 138 97.5 236t235.5 98t236 -98t98 -236t-98 -236t-236 -98t-235.5 98t-97.5 236z" />
<glyph unicode="&#x2026;" horiz-adv-x="1462" d="M106 0v307h308v-307h-308zM578 0v307h307v-307h-307zM1049 0v307h307v-307h-307z" />
<glyph unicode="&#x202f;" horiz-adv-x="401" />
<glyph unicode="&#x2039;" horiz-adv-x="487" d="M45 573l356 553v-395l-106 -158l106 -159v-396z" />
<glyph unicode="&#x203a;" horiz-adv-x="487" d="M86 18v396l107 159l-107 158v395l356 -553z" />
<glyph unicode="&#x205f;" horiz-adv-x="501" />
<glyph unicode="&#x20ac;" horiz-adv-x="1079" d="M61 451v206h107v144h-107v207h113q3 91 29 178.5t73 142.5q59 69 132 107.5t186 38.5q172 0 283 -105q120 -114 129 -326h-291q-2 36 -6.5 61.5t-16.5 52t-37 40.5t-61 14q-74 0 -102 -57q-21 -44 -25 -147h188v-207h-196v-144h196v-206h-188q3 -100 27 -148 q29 -57 100 -57q36 0 61 14t37.5 41t17.5 53t7 62h291q-4 -103 -38.5 -188t-92.5 -140q-110 -104 -283 -104q-113 0 -186 38t-132 107q-47 55 -73 143t-29 179h-113z" />
<glyph unicode="&#x2122;" horiz-adv-x="1325" d="M41 1296v162h469v-162h-148v-741h-174v741h-147zM604 555v903h154l160 -442l159 442h156v-903h-176v471l-94 -311h-91l-94 309v-469h-174z" />
<glyph unicode="&#xfb01;" horiz-adv-x="1021" d="M41 852v207h102v61q0 197 127 287q56 40 122.5 54t160.5 14v-246q-135 0 -135 -127v-43h135v-207h-135v-852h-275v852h-102zM645 1180v290h291v-290h-291zM653 0v1059h275v-1059h-275z" />
<glyph unicode="&#xfb02;" horiz-adv-x="1099" d="M41 852v207h102v61q0 197 127 287q56 40 122.5 54t160.5 14v-246q-135 0 -135 -127v-43h135v-207h-135v-852h-275v852h-102zM653 354v1104h275v-1085q0 -127 135 -127v-246q-94 0 -160.5 14t-122.5 54q-127 90 -127 286z" />
</font>
</defs>
</svg>
