<?xml version="1.0" standalone="no"?>
<!DOCTYPE svg PUBLIC "-//W3C//DTD SVG 1.1//EN" "http://www.w3.org/Graphics/SVG/1.1/DTD/svg11.dtd" >
<svg xmlns="http://www.w3.org/2000/svg">
<metadata></metadata>
<defs>
<font id="din_otcondensed_medium_italic" horiz-adv-x="722" >
<font-face units-per-em="2048" ascent="1565" descent="-483" />
<missing-glyph horiz-adv-x="360" />
<glyph horiz-adv-x="0" />
<glyph horiz-adv-x="0" />
<glyph horiz-adv-x="682" />
<glyph unicode="&#xd;" horiz-adv-x="360" />
<glyph unicode=" "  horiz-adv-x="360" />
<glyph unicode="&#x09;" horiz-adv-x="360" />
<glyph unicode="&#xa0;" horiz-adv-x="360" />
<glyph unicode="!" horiz-adv-x="466" d="M59 0l41 201h189l-41 -201h-189zM158 389l200 1069h172l-217 -1069h-155z" />
<glyph unicode="&#x22;" horiz-adv-x="757" d="M238 1067l77 391h160l-78 -391h-159zM580 1067l77 391h160l-78 -391h-159z" />
<glyph unicode="#" horiz-adv-x="1075" d="M61 0l156 444h-135l31 150h157l105 301h-148l29 149h172l143 414h162l-145 -414h203l145 414h162l-146 -414h125l-28 -149h-150l-104 -301h139l-29 -150h-164l-153 -444h-162l154 444h-201l-156 -444h-162zM432 594h201l104 301h-200z" />
<glyph unicode="$" horiz-adv-x="811" d="M29 236q0 66 16 147h166q-12 -59 -12 -119q0 -57 24 -88q20 -26 53 -35l105 553l-59 29q-77 37 -110.5 89t-33.5 134q0 63 17 146q22 108 52 176t79 114q73 73 184 88l37 181h151l-39 -187q78 -16 127 -75q52 -65 52 -164q0 -64 -17 -148h-166q13 69 13 121q0 53 -23 86 q-12 15 -33 27l-92 -492l35 -16q95 -45 133.5 -99t38.5 -135q0 -77 -22 -190q-24 -126 -54 -192t-80 -113q-74 -72 -196 -86l-43 -221h-152l43 225q-83 13 -139 76q-55 61 -55 168zM350 989q0 -80 64 -121l86 447q-35 -14 -58 -37q-31 -28 -49.5 -71t-32.5 -115 q-10 -52 -10 -103zM393 145q32 11 58 37q35 33 53 75.5t33 123.5q16 84 16 145q0 70 -66 115z" />
<glyph unicode="%" horiz-adv-x="1308" d="M172 879q0 19 8 59l62 313q24 117 86 170.5t164 53.5q90 0 140 -48t50 -120q0 -32 -6 -62l-64 -311q-25 -118 -84.5 -171.5t-162.5 -53.5q-92 0 -142.5 48t-50.5 122zM246 0l774 1458h123l-774 -1458h-123zM301 885q0 -32 19 -51t57 -19q83 0 104 111l66 319q6 30 6 51 q0 33 -19 52.5t-57 19.5q-81 0 -104 -108l-66 -322q-6 -27 -6 -53zM707 154q0 19 8 59l61 313q24 117 86 170.5t164 53.5q90 0 140.5 -48t50.5 -120q0 -27 -7 -62l-63 -311q-25 -118 -84.5 -171.5t-163.5 -53.5q-92 0 -142 48t-50 122zM836 160q0 -70 75 -70q84 0 105 111 l65 319q6 30 6 51q0 33 -18.5 52.5t-56.5 19.5q-82 0 -105 -108l-65 -322q-6 -27 -6 -53z" />
<glyph unicode="&#x26;" horiz-adv-x="950" d="M23 272q0 150 83.5 277.5t235.5 247.5q-52 120 -75 195.5t-23 137.5q0 147 81.5 245t229.5 98q117 0 180.5 -69t63.5 -185q0 -120 -57.5 -215t-174.5 -197l-47 -39l144 -338q81 115 131 311h139q-28 -124 -84.5 -250.5t-124.5 -214.5l115 -276h-166l-64 145 q-155 -161 -317 -161q-131 0 -200.5 78t-69.5 210zM180 301q0 -78 36.5 -123t102.5 -45q55 0 110.5 35.5t125.5 114.5l-160 379q-99 -89 -157 -175t-58 -186zM401 1137q0 -87 66 -236l39 35q143 120 143 268q0 61 -28 91t-76 30q-62 0 -103 -55t-41 -133z" />
<glyph unicode="'" horiz-adv-x="415" d="M238 1067l77 391h160l-78 -391h-159z" />
<glyph unicode="(" horiz-adv-x="468" d="M25 84q0 56 14 127l209 1040q15 82 32 131.5t52 100.5q56 81 166 168l90 -115q-89 -74 -127 -127q-38 -58 -60 -170l-206 -1032q-15 -73 -15 -107q0 -48 20 -90t66 -100l-121 -103q-66 86 -93 148.5t-27 128.5z" />
<glyph unicode=")" horiz-adv-x="468" d="M-39 -78q89 74 127 127q37 56 59 170l207 1032q15 74 15 107q0 48 -20 90t-66 100l120 103q66 -87 93.5 -149t27.5 -128q0 -56 -14 -127l-209 -1040q-15 -82 -32 -131.5t-52 -100.5q-56 -81 -166 -168z" />
<glyph unicode="*" horiz-adv-x="755" d="M156 1047l243 81l-194 168l76 84l180 -174l45 250l106 -18l-53 -250l234 92l38 -102l-241 -82l192 -168l-73 -82l-181 170l-45 -248l-106 20l51 246l-233 -92z" />
<glyph unicode="+" horiz-adv-x="860" d="M86 506l31 149h264l55 285h152l-56 -285h265l-31 -149h-264l-58 -285h-151l57 285h-264z" />
<glyph unicode="," horiz-adv-x="395" d="M-47 -252l92 455h178l-65 -318z" />
<glyph unicode="-" horiz-adv-x="559" d="M86 504l31 149h379l-31 -149h-379z" />
<glyph unicode="." horiz-adv-x="417" d="M10 0l39 201h189l-39 -201h-189z" />
<glyph unicode="/" horiz-adv-x="532" d="M-127 -152l713 1762h149l-712 -1762h-150z" />
<glyph unicode="0" horiz-adv-x="733" d="M39 211q0 47 8 94l174 869q30 161 119 235q81 66 199 66q125 0 190 -76q47 -55 47 -152q0 -47 -8 -94l-174 -868q-31 -162 -119 -236q-79 -65 -199 -65q-126 0 -190 75q-47 55 -47 152zM195 225q0 -49 26 -75.5t72 -26.5q48 0 87 37t56 121l176 884q9 47 9 68 q0 49 -26.5 75.5t-72.5 26.5q-48 0 -87 -36.5t-56 -120.5l-176 -885q-8 -41 -8 -68z" />
<glyph unicode="1" horiz-adv-x="733" d="M221 0l252 1262l-237 -177l40 197l236 176h156l-291 -1458h-156z" />
<glyph unicode="2" horiz-adv-x="733" d="M-10 0l24 129l482 762q125 197 125 334q0 53 -23.5 81.5t-67.5 28.5q-104 0 -137 -155l-20 -95h-156l19 91q36 170 120 237q77 62 187 62q126 0 184 -76q51 -66 51 -166q0 -82 -36.5 -175.5t-120.5 -226.5l-437 -692h387l-26 -139h-555z" />
<glyph unicode="3" horiz-adv-x="733" d="M31 207q0 40 10 94l14 76h156l-16 -80q-7 -35 -7 -66q0 -52 26 -80t69 -28q55 0 92 37q28 28 46 77.5t44 172.5q29 151 29 196t-25.5 74t-71.5 29h-71l26 135h64q47 0 82 35q29 32 43.5 72.5t33.5 138.5q23 115 23 155q0 90 -84 90q-104 0 -135 -151l-21 -101h-155l18 95 q18 88 44.5 142t76.5 95q73 60 186 60q130 0 183 -74q43 -56 43 -137q0 -53 -21 -172q-21 -102 -38 -153t-44 -87q-32 -42 -88 -76q86 -54 86 -164q0 -48 -28 -202q-32 -156 -60.5 -229.5t-79.5 -121.5q-75 -75 -213 -75q-129 0 -190 77q-47 61 -47 146z" />
<glyph unicode="4" horiz-adv-x="733" d="M-6 242l29 137l565 1079h157l-557 -1079h211l68 342h156l-70 -342h96l-28 -137h-97l-45 -242h-155l47 242h-377z" />
<glyph unicode="5" horiz-adv-x="733" d="M35 205q0 49 8 96l14 66h156l-14 -66q-9 -56 -9 -74q0 -45 25.5 -74.5t69.5 -29.5q59 0 96 43q29 30 49.5 91t50.5 210q33 171 33 229q0 51 -21.5 84t-70.5 33q-52 0 -94.5 -42t-57.5 -114l-10 -49h-145l170 850h530l-27 -139h-389l-92 -451q37 40 74 58q50 24 106 24 q96 0 144 -61q43 -56 43 -141q0 -106 -37 -281q-40 -196 -68.5 -272.5t-83.5 -131.5q-76 -79 -213 -79q-131 0 -190 77q-47 57 -47 144z" />
<glyph unicode="6" horiz-adv-x="733" d="M39 221q0 65 27 215q45 222 127 369l358 653h168l-342 -604q37 29 98 29q90 0 138.5 -59t48.5 -152q0 -71 -33 -236q-31 -165 -60 -239.5t-75 -120.5q-89 -92 -224 -92q-127 0 -186 79q-45 60 -45 158zM193 233q0 -110 92 -110q55 0 94 39q30 31 49 89t45 187 q31 152 31 207q0 44 -23 73.5t-69 29.5q-56 0 -95 -39q-30 -30 -49 -88.5t-45 -182.5q-30 -150 -30 -205z" />
<glyph unicode="7" horiz-adv-x="733" d="M55 0l607 1319h-275l-43 -219h-147l71 358h580l-25 -129l-606 -1329h-162z" />
<glyph unicode="8" horiz-adv-x="733" d="M37 209q0 81 22 197q28 137 48.5 194.5t52.5 97.5q39 50 100 84q-34 24 -51 62q-19 40 -19 92t19 156q29 139 55.5 202.5t73.5 108.5q72 72 199 72q130 0 188 -76q45 -54 45 -142q0 -61 -22 -174q-33 -171 -80 -235q-37 -49 -99 -88q37 -23 54 -55q24 -41 24 -105 q0 -65 -24 -194q-34 -165 -60.5 -232t-75.5 -113q-80 -77 -213 -77q-129 0 -192 79q-45 57 -45 146zM193 236q0 -55 22 -80q26 -33 74 -33q53 0 90 37q30 30 47 78t41 174q29 142 29 182q0 46 -23 76q-25 32 -74 32q-56 0 -92 -36q-28 -28 -46.5 -78.5t-43.5 -175.5 q-24 -123 -24 -176zM342 942q0 -48 20 -74q22 -28 66 -28q53 0 84 34q26 26 44 72.5t36 140.5q22 107 22 142q0 49 -20 78q-22 28 -70 28q-50 0 -82 -35q-25 -25 -42.5 -71t-37.5 -142q-20 -100 -20 -145z" />
<glyph unicode="9" horiz-adv-x="733" d="M94 0l342 604q-37 -29 -98 -29q-90 0 -138 58.5t-48 152.5q0 76 32 236q31 165 60 239.5t75 120.5q90 93 224 93q126 0 186 -80q45 -60 45 -158q0 -71 -26 -215q-45 -222 -127 -369l-359 -653h-168zM309 813q0 -44 23 -73t69 -29q56 0 95 39q30 30 49 88.5t45 181.5 q31 155 31 205t-22.5 80t-70.5 30q-55 0 -94 -39q-30 -31 -49 -89t-45 -187q-31 -152 -31 -207z" />
<glyph unicode=":" horiz-adv-x="466" d="M59 0l39 201h189l-39 -201h-189zM193 670l38 200h189l-39 -200h-188z" />
<glyph unicode=";" horiz-adv-x="466" d="M12 -252l92 455h179l-66 -318zM193 668l38 200h189l-39 -200h-188z" />
<glyph unicode="&#x3c;" horiz-adv-x="737" d="M66 526l26 131l680 375l-39 -198l-469 -252l367 -258l-35 -172z" />
<glyph unicode="=" horiz-adv-x="860" d="M51 330l29 149h682l-31 -149h-680zM117 659l30 150h680l-30 -150h-680z" />
<glyph unicode="&#x3e;" horiz-adv-x="737" d="M-8 143l39 199l469 252l-367 258l35 172l530 -375l-26 -131z" />
<glyph unicode="?" horiz-adv-x="772" d="M209 0l41 201h188l-39 -201h-190zM227 1120q22 108 51 171.5t78 103.5q88 75 219 75q143 0 207 -86q45 -59 45 -151q0 -58 -14 -135q-17 -85 -43.5 -141.5t-73.5 -112.5l-139 -168q-60 -68 -74 -141l-28 -144h-156l33 162q12 55 31.5 95.5t68.5 96.5l143 170 q62 71 87 187q10 46 10 108q0 55 -25 86q-24 35 -86 35q-57 0 -102 -39q-51 -43 -76 -172h-156z" />
<glyph unicode="@" horiz-adv-x="1081" d="M29 141q0 53 10 97l182 907q18 89 47.5 145t75.5 96q81 72 236 72h258q152 0 217 -82q47 -60 47 -147q0 -42 -10 -96l-226 -1133h-145l14 74q-38 -42 -69 -60q-52 -30 -123 -30q-99 0 -150 79q-33 47 -33 113q0 44 11 103l86 423q31 156 100 222q76 73 188 73 q57 0 101 -30q29 -20 49 -62l45 219q6 29 6 72q0 59 -31.5 94t-97.5 35h-233q-178 0 -217 -199l-179 -884q-6 -30 -6 -64q0 -50 31 -92l-125 -109q-59 68 -59 164zM522 221q0 -48 24 -73t62 -25q58 0 102.5 41t57.5 110l86 435q6 27 6 47q0 49 -27 76.5t-71 27.5 q-52 0 -93 -39t-55 -112l-88 -435q-4 -24 -4 -53z" />
<glyph unicode="A" horiz-adv-x="823" d="M-94 0l612 1458h164l29 -1458h-168l2 346h-324l-139 -346h-176zM283 498h260l6 688z" />
<glyph unicode="B" horiz-adv-x="860" d="M18 0l291 1458h279q157 0 221 -80q53 -67 53 -166q0 -62 -14 -139q-35 -187 -123 -264q-34 -30 -86 -51q47 -14 74 -53q43 -57 43 -146q0 -68 -17 -149q-27 -135 -60 -208t-85 -120q-50 -48 -112.5 -65t-164.5 -17h-299zM215 150h121q99 0 153 58.5t84 207.5 q15 84 15 119q0 77 -37.5 114t-114.5 37h-112zM352 829h105q90 0 143 56.5t78 181.5q14 72 14 111q0 66 -31.5 98.5t-103.5 32.5h-111z" />
<glyph unicode="C" horiz-adv-x="819" d="M61 272q0 104 70 457q69 343 111.5 466t111.5 189q97 91 246 91q147 0 217 -89q53 -71 53 -188q0 -44 -8 -96h-166q9 52 9 88q0 135 -117 135q-72 0 -119 -47q-46 -46 -77.5 -147t-92.5 -402q-70 -344 -70 -457q0 -139 121 -139q72 0 119 53q59 62 80 172h170 q-23 -107 -58 -177.5t-96 -121.5q-87 -75 -231 -75q-151 0 -219 96q-54 77 -54 192z" />
<glyph unicode="D" horiz-adv-x="868" d="M18 0l291 1458h312q82 0 132.5 -25t84.5 -77q49 -69 49 -182q0 -98 -70 -445q-65 -328 -106 -450t-111 -187q-99 -92 -254 -92h-328zM215 150h141q84 0 133 55q43 46 76 156t84 368q70 347 70 442q0 59 -29 99q-31 39 -98 39h-146z" />
<glyph unicode="E" horiz-adv-x="735" d="M18 0l291 1458h533l-31 -149h-365l-98 -498h314l-31 -152h-314l-100 -509h363l-29 -150h-533z" />
<glyph unicode="F" d="M18 0l291 1458h533l-31 -149h-365l-100 -502h313l-30 -150h-314l-129 -657h-168z" />
<glyph unicode="G" horiz-adv-x="839" d="M61 272q0 104 70 457q69 343 111.5 466t111.5 189q97 91 246 91q147 0 217 -89q53 -71 53 -188q0 -44 -8 -96h-166q9 52 9 88q0 135 -117 135q-70 0 -117 -47q-49 -49 -79.5 -146.5t-92.5 -402.5q-70 -344 -70 -457q0 -68 30 -103.5t87 -35.5q75 0 127 55t72 154l59 303 h-151l26 137h318l-84 -432q-70 -366 -385 -366q-145 0 -213 96q-54 77 -54 192z" />
<glyph unicode="H" horiz-adv-x="886" d="M18 0l291 1458h168l-129 -641h305l129 641h168l-291 -1458h-167l133 666h-306l-133 -666h-168z" />
<glyph unicode="I" horiz-adv-x="413" d="M18 0l291 1458h168l-291 -1458h-168z" />
<glyph unicode="J" horiz-adv-x="702" d="M-59 104l129 97q48 -68 123 -68q149 0 196 227l219 1098h168l-221 -1108q-36 -183 -125 -272q-94 -94 -244 -94q-173 0 -245 120z" />
<glyph unicode="K" horiz-adv-x="849" d="M18 0l291 1458h168l-141 -706l461 706h184l-397 -602l147 -856h-168l-117 672l-180 -264l-80 -408h-168z" />
<glyph unicode="L" horiz-adv-x="698" d="M18 0l291 1458h168l-262 -1308h365l-29 -150h-533z" />
<glyph unicode="M" horiz-adv-x="1114" d="M18 0l291 1458h158l117 -794l436 794h158l-291 -1458h-168l203 1024l-344 -653h-105l-80 659l-207 -1030h-168z" />
<glyph unicode="N" horiz-adv-x="899" d="M18 0l291 1458h146l147 -1007l193 1007h168l-291 -1458h-140l-145 1006l-201 -1006h-168z" />
<glyph unicode="O" horiz-adv-x="854" d="M61 266q0 110 70 463q70 350 111.5 470.5t115.5 189.5q92 86 240 86q161 0 227 -105q47 -73 47 -178q0 -125 -67 -463q-50 -243 -82 -363t-63.5 -184t-81.5 -112q-92 -86 -240 -86q-161 0 -227 104q-50 77 -50 178zM229 276q0 -143 125 -143q66 0 113 47q45 44 78 149 t92 400q68 349 68 453q0 143 -123 143q-66 0 -113 -47q-45 -44 -78 -149t-92 -400q-70 -344 -70 -453z" />
<glyph unicode="P" horiz-adv-x="841" d="M18 0l291 1458h293q144 0 213 -69q66 -66 66 -193q0 -83 -17 -164q-26 -128 -63 -213t-89 -131t-110 -64t-137 -18h-158l-121 -606h-168zM336 756h133q89 0 142 59t85 217q17 80 17 137q0 71 -32.5 105.5t-105.5 34.5h-129z" />
<glyph unicode="Q" horiz-adv-x="854" d="M61 266q0 110 70 463q70 350 111.5 470.5t115.5 189.5q92 86 240 86q161 0 227 -105q47 -73 47 -178q0 -125 -67 -463q-60 -293 -95 -413t-81 -183l84 -90l-92 -92l-82 88q-78 -55 -201 -55q-161 0 -227 104q-50 77 -50 178zM229 276q0 -143 125 -143q39 0 80 23l-80 88 l86 88l70 -78q29 51 56 151t71 324q68 349 68 453q0 143 -123 143q-66 0 -113 -47q-45 -44 -78 -149t-92 -400q-70 -344 -70 -453z" />
<glyph unicode="R" horiz-adv-x="880" d="M18 0l291 1458h303q271 0 271 -254q0 -76 -17 -162q-38 -185 -94 -268t-149 -117l77 -657h-168l-67 627h-154l-125 -627h-168zM340 774h141q84 0 135.5 61.5t81.5 206.5q15 74 15 129q0 69 -30 103.5t-101 34.5h-136z" />
<glyph unicode="S" horiz-adv-x="811" d="M29 236q0 66 16 147h166q-12 -59 -12 -119q0 -57 24 -88q34 -43 103 -43q76 0 125 49q35 33 53 75.5t33 123.5q16 84 16 145q0 87 -98 133l-133 64q-77 37 -110.5 89t-33.5 134q0 63 17 146q22 108 52 176t79 114q93 93 239 93q151 0 221 -86q52 -65 52 -164 q0 -64 -17 -148h-166q13 69 13 121q0 53 -23 86q-32 41 -90 41q-63 0 -113 -47q-31 -28 -49.5 -71t-32.5 -115q-10 -52 -10 -103t21 -79.5t63 -49.5l121 -57q95 -45 133.5 -99t38.5 -135q0 -77 -22 -190q-24 -126 -54 -192t-80 -113q-93 -90 -258 -90q-85 0 -138 20.5 t-91 63.5q-55 61 -55 168z" />
<glyph unicode="T" horiz-adv-x="710" d="M166 0l262 1309h-231l30 149h629l-31 -149h-229l-262 -1309h-168z" />
<glyph unicode="U" horiz-adv-x="862" d="M66 248q0 42 10 104l221 1106h168l-225 -1122q-7 -40 -7 -70q0 -62 31 -96.5t92 -34.5q66 0 116.5 47.5t68.5 136.5l229 1139h168l-229 -1141q-18 -91 -49 -148t-82 -101q-94 -84 -246 -84q-129 0 -207 84q-59 68 -59 180z" />
<glyph unicode="V" horiz-adv-x="782" d="M195 1458h180l-33 -1173l438 1173h181l-586 -1458h-174z" />
<glyph unicode="W" horiz-adv-x="1286" d="M145 0l60 1458h178l-84 -1177l438 1177h183l-19 -1177l375 1177h176l-510 -1458h-184l14 1171l-442 -1171h-185z" />
<glyph unicode="X" horiz-adv-x="776" d="M-72 0l404 766l-101 692h181l51 -524l260 524h188l-387 -706l119 -752h-180l-70 573l-276 -573h-189z" />
<glyph unicode="Y" horiz-adv-x="684" d="M154 0l118 600l-77 858h174l30 -631l277 631h184l-424 -878l-114 -580h-168z" />
<glyph unicode="Z" horiz-adv-x="675" d="M-47 0l24 125l617 1184h-363l31 149h541l-25 -125l-616 -1183h385l-29 -150h-565z" />
<glyph unicode="[" horiz-adv-x="497" d="M-25 -152l353 1762h331l-28 -140h-172l-297 -1482h172l-27 -140h-332z" />
<glyph unicode="\" horiz-adv-x="540" d="M217 1610h154l35 -1762h-154z" />
<glyph unicode="]" horiz-adv-x="497" d="M-82 -152l29 140h172l297 1482h-172l26 140h332l-352 -1762h-332z" />
<glyph unicode="^" horiz-adv-x="858" d="M176 895l373 573h139l141 -573h-141l-94 414l-258 -414h-160z" />
<glyph unicode="_" horiz-adv-x="856" d="M-162 -293l25 123h854l-25 -123h-854z" />
<glyph unicode="`" horiz-adv-x="720" d="M344 1470h135l80 -274h-117z" />
<glyph unicode="a" d="M4 205q0 49 12 102q29 155 134 240q41 34 92 48.5t129 14.5h110l33 164q8 36 8 64q0 47 -24 73.5t-70 26.5q-50 0 -86 -33q-42 -37 -61 -129h-156q34 160 117 232q78 69 204 69q134 0 189 -73q43 -58 43 -152q0 -27 -10 -90l-152 -762h-147l16 88q-31 -43 -70 -70 q-49 -34 -118 -34q-104 0 -160 82q-33 50 -33 139zM166 236q0 -113 90 -113q62 0 105.5 50t58.5 122l39 201h-82q-46 0 -73 -8t-54 -31q-39 -32 -61.5 -94.5t-22.5 -126.5z" />
<glyph unicode="b" horiz-adv-x="745" d="M6 0l291 1458h156l-95 -467q29 36 62 56q48 30 110 30q103 0 154 -80q33 -53 33 -137q0 -98 -47 -330q-44 -228 -77.5 -326t-82.5 -145q-78 -75 -182 -75q-67 0 -107 34q-33 26 -49 62l-16 -80h-150zM213 227q0 -51 23 -77q24 -27 69 -27q51 0 90 39q34 31 60 117t59 251 q43 208 43 295q0 53 -18 80q-26 33 -72 33q-47 0 -88 -35q-47 -41 -64 -129l-96 -487q-6 -37 -6 -60z" />
<glyph unicode="c" horiz-adv-x="696" d="M35 225q0 93 43 305q40 204 75 304t87 155q82 88 221 88t194 -90q35 -57 35 -137q0 -40 -8 -84h-154q9 44 9 72q0 47 -23 73q-27 27 -70 27q-56 0 -98 -45q-33 -36 -56.5 -117t-56.5 -246q-47 -235 -47 -299t33 -90q24 -18 64 -18q52 0 86 31q28 25 42 56t25 85h156 q-36 -153 -105 -225q-83 -86 -221 -86q-122 0 -184 77q-47 56 -47 164z" />
<glyph unicode="d" horiz-adv-x="745" d="M29 201q0 94 47 329q46 227 79.5 324.5t82.5 146.5q79 76 182 76q67 0 106 -35q31 -28 45 -55l95 471h155l-291 -1458h-149l14 76q-28 -41 -69 -62q-48 -30 -109 -30q-107 0 -156 77q-32 54 -32 140zM188 236q0 -53 21 -80q23 -33 70 -33q52 0 88 33q48 45 65 131l96 487 q7 40 7 60q0 49 -25 77q-24 27 -68 27q-47 0 -92 -39q-33 -31 -58.5 -116.5t-60.5 -252.5q-43 -222 -43 -294z" />
<glyph unicode="e" horiz-adv-x="714" d="M35 225q0 90 43 305q38 192 75 299t87 160q85 88 223 88q128 0 186 -86q37 -55 37 -153q0 -112 -49 -344h-412q-37 -195 -37 -261q0 -51 25 -83q24 -27 68 -27q56 0 92 33q45 42 65 139h156q-19 -84 -43 -134.5t-66 -92.5q-84 -84 -219 -84q-142 0 -200 98 q-31 60 -31 143zM252 614h254q29 139 29 213q0 111 -93 111q-57 0 -94 -45q-30 -33 -50 -93.5t-46 -185.5z" />
<glyph unicode="f" horiz-adv-x="487" d="M41 0l186 940h-110l22 121h113l20 102q18 88 48 145.5t81 94.5q45 33 98.5 47t143.5 14l-29 -137q-153 0 -188 -170l-18 -96h153l-22 -121h-156l-186 -940h-156z" />
<glyph unicode="g" horiz-adv-x="745" d="M-49 -184q0 33 8 82h154q-7 -39 -7 -66q0 -45 25.5 -71.5t71.5 -26.5q57 0 92 35q26 26 37.5 58.5t34.5 139.5l28 133q-26 -33 -63 -55q-53 -29 -109 -29q-105 0 -155 78q-33 61 -33 139q0 95 45 314q44 220 76.5 312.5t81.5 141.5q79 76 182 76q65 0 106 -35 q30 -24 49 -63l17 82h149l-219 -1098q-25 -124 -51.5 -189.5t-75.5 -107.5q-83 -72 -211 -72q-105 0 -169 60.5t-64 161.5zM195 266q0 -48 20 -78q27 -34 74 -34q46 0 86 34q46 43 63 131l90 455q7 40 7 60q0 47 -25 75q-23 29 -68 29q-47 0 -92 -39q-33 -32 -56.5 -109 t-57.5 -243q-41 -199 -41 -281z" />
<glyph unicode="h" horiz-adv-x="761" d="M6 0l291 1458h156l-95 -471q28 38 64 60q48 30 113 30q104 0 155 -82q31 -47 31 -123q0 -37 -14 -106l-152 -766h-156l152 766q8 39 8 74q0 42 -23.5 70t-70.5 28q-52 0 -93.5 -40.5t-58.5 -131.5l-151 -766h-156z" />
<glyph unicode="i" horiz-adv-x="374" d="M6 0l211 1061h156l-211 -1061h-156zM244 1247l37 178h174l-37 -178h-174z" />
<glyph unicode="j" horiz-adv-x="374" d="M-225 -397l28 137q78 1 122 43.5t63 132.5l229 1145h156l-232 -1157q-19 -92 -48 -146.5t-81 -93.5q-49 -37 -100.5 -49t-136.5 -12zM244 1247l37 178h174l-37 -178h-174z" />
<glyph unicode="k" horiz-adv-x="765" d="M6 0l291 1458h156l-179 -889l375 492h174l-325 -422l135 -639h-156l-106 504l-148 -191l-61 -313h-156z" />
<glyph unicode="l" horiz-adv-x="438" d="M49 217q0 35 8 82l232 1159h155l-229 -1149q-6 -37 -6 -65q0 -105 121 -105l-27 -139q-140 0 -203 70q-51 57 -51 147z" />
<glyph unicode="m" horiz-adv-x="1157" d="M6 0l211 1061h152l-17 -80q35 44 72 66q52 30 111 30q130 0 172 -114q42 52 100 84q55 30 123 30q104 0 155 -82q31 -47 31 -123q0 -28 -16 -106l-152 -766h-155l151 766q10 55 10 74q0 42 -23.5 70t-70.5 28q-52 0 -93 -40t-60 -132l-152 -766h-156l152 766q8 36 8 74 q0 42 -23 70t-69 28q-53 0 -94 -40t-60 -132l-151 -766h-156z" />
<glyph unicode="n" horiz-adv-x="761" d="M6 0l211 1061h150l-17 -80q35 44 72 66q48 30 113 30q104 0 155 -82q31 -47 31 -123q0 -37 -14 -106l-152 -766h-156l152 766q8 39 8 74q0 42 -23.5 70t-70.5 28q-52 0 -93.5 -40.5t-58.5 -131.5l-151 -766h-156z" />
<glyph unicode="o" d="M37 229q0 99 41 301q42 215 76.5 309.5t87.5 151.5q80 86 217 86q141 0 196 -96q31 -57 31 -150q0 -99 -41 -301q-42 -213 -76.5 -308.5t-87.5 -151.5q-80 -86 -217 -86q-141 0 -196 96q-31 57 -31 149zM188 233q0 -49 21 -79q24 -31 70 -31q59 0 96 43q33 36 56.5 115.5 t57.5 248.5q46 230 46 297q0 50 -21 80q-24 31 -70 31q-59 0 -96 -43q-33 -36 -57.5 -116.5t-57.5 -248.5q-45 -225 -45 -297z" />
<glyph unicode="p" horiz-adv-x="745" d="M-74 -397l291 1458h150l-15 -76q32 40 68 62q48 30 110 30q103 0 154 -80q33 -53 33 -137q0 -95 -47 -330q-46 -232 -78.5 -328t-81.5 -143q-78 -75 -184 -75q-71 0 -105 34q-28 23 -45 56l-94 -471h-156zM213 227q0 -51 23 -77q24 -27 69 -27q51 0 90 39q34 31 60 117 t59 251q43 208 43 295q0 53 -18 80q-26 33 -72 33q-47 0 -88 -35q-47 -41 -64 -129l-96 -487q-6 -37 -6 -60z" />
<glyph unicode="q" horiz-adv-x="745" d="M29 201q0 91 47 329q46 228 79 324.5t83 146.5q79 76 182 76q65 0 106 -35q30 -24 49 -63l17 82h149l-290 -1458h-156l92 465q-27 -33 -61 -54q-48 -30 -109 -30q-107 0 -156 77q-32 54 -32 140zM188 236q0 -53 21 -80q23 -33 70 -33q52 0 88 33q48 45 65 131l96 487 q7 40 7 60q0 49 -25 77q-24 27 -68 27q-47 0 -92 -39q-33 -31 -58.5 -116.5t-60.5 -252.5q-43 -222 -43 -294z" />
<glyph unicode="r" horiz-adv-x="524" d="M6 0l211 1061h150l-23 -113q31 51 92 90q64 39 166 39l-29 -149h-47q-80 0 -141 -55t-80 -148l-143 -725h-156z" />
<glyph unicode="s" horiz-adv-x="688" d="M2 217q0 39 8 80h154q-6 -35 -6 -59q0 -51 24 -78q30 -37 88 -37q64 0 105 41q55 55 55 151q0 44 -20 79t-70 67l-96 61q-71 45 -101 95.5t-30 119.5q0 170 112 271q81 69 207 69q134 0 197 -82q45 -57 45 -141q0 -32 -10 -84h-150q8 36 8 61q0 44 -24 74q-26 33 -82 33 q-54 0 -92 -35q-56 -50 -56 -139q0 -77 76 -123l98 -59q76 -46 110 -105t34 -137q0 -89 -31.5 -163t-83.5 -118q-83 -75 -217 -75q-131 0 -201 79q-51 54 -51 154z" />
<glyph unicode="t" horiz-adv-x="499" d="M92 219q0 40 10 92l127 629h-112l22 121h113l57 289h156l-57 -289h155l-24 -121h-154l-125 -623q-8 -36 -8 -71q0 -107 131 -107l-27 -139q-149 0 -213 70q-51 60 -51 149z" />
<glyph unicode="u" horiz-adv-x="759" d="M43 188q0 38 14 107l152 766h156l-152 -766q-8 -39 -8 -74q0 -42 23.5 -70t70.5 -28q52 0 93.5 40.5t58.5 131.5l151 766h156l-211 -1061h-150l17 80q-35 -44 -72 -66q-48 -30 -113 -30q-104 0 -155 82q-31 47 -31 122z" />
<glyph unicode="v" horiz-adv-x="661" d="M115 1061h164l-5 -805l322 805h164l-453 -1061h-162z" />
<glyph unicode="w" horiz-adv-x="1042" d="M115 0l12 1061h160l-41 -801l315 801h131l-6 -801l279 801h163l-415 -1061h-146l6 784l-309 -784h-149z" />
<glyph unicode="x" horiz-adv-x="686" d="M-70 0l324 545l-111 516h164l66 -377l213 377h170l-326 -531l127 -530h-164l-76 387l-217 -387h-170z" />
<glyph unicode="y" horiz-adv-x="663" d="M-145 -397l28 137q135 3 191 115l71 147l-30 1059h161l-2 -811l318 811h176l-530 -1231q-31 -72 -68.5 -117.5t-87.5 -69t-101.5 -32t-125.5 -8.5z" />
<glyph unicode="z" horiz-adv-x="587" d="M-61 0l22 115l469 807h-297l29 139h475l-23 -115l-475 -807h324l-27 -139h-497z" />
<glyph unicode="{" horiz-adv-x="598" d="M84 666l27 137h45q60 0 97 43t58 147l70 340q18 84 40.5 133.5t61.5 83.5q68 60 201 60h76l-29 -140h-37q-66 0 -106 -41t-60 -137l-67 -346q-14 -74 -34.5 -112t-53.5 -68q-28 -24 -76 -37q35 -15 55 -41q29 -39 29 -98q0 -36 -10 -90l-68 -340q-10 -45 -10 -74 q0 -98 98 -98h43l-26 -140h-60q-117 0 -174 74q-43 52 -43 135q0 29 10 80l70 350q12 58 12 82q0 45 -25 71t-71 26h-43z" />
<glyph unicode="|" horiz-adv-x="557" d="M66 -152l352 1762h155l-352 -1762h-155z" />
<glyph unicode="}" horiz-adv-x="598" d="M-80 -152l29 140h37q66 0 106 41t60 137l67 346q14 74 34.5 112t53.5 68q28 24 76 37q-35 15 -55 41q-29 39 -29 98q0 36 10 90l68 340q10 45 10 74q0 98 -98 98h-43l26 140h60q117 0 174 -74q43 -52 43 -135q0 -29 -10 -80l-70 -350q-12 -58 -12 -82q0 -45 24.5 -70.5 t71.5 -25.5h43l-27 -138h-45q-60 0 -97 -43t-58 -147l-70 -340q-18 -84 -40.5 -133.5t-61.5 -83.5q-68 -60 -201 -60h-76z" />
<glyph unicode="~" horiz-adv-x="856" d="M70 578q79 70 131 96t110 26q41 0 75 -12t81 -39q66 -41 113 -41q36 0 67 16.5t80 61.5l84 -106q-75 -66 -129 -93.5t-113 -27.5q-40 0 -72.5 12.5t-80.5 40.5q-64 41 -113 41q-36 0 -70 -18.5t-81 -63.5z" />
<glyph unicode="&#xa1;" horiz-adv-x="466" d="M-63 -399l217 1069h155l-200 -1069h-172zM178 858l41 201h189l-41 -201h-189z" />
<glyph unicode="&#xa2;" horiz-adv-x="706" d="M86 449q0 90 41 288q38 193 71.5 289.5t82.5 147.5q68 68 172 79l39 205h124l-41 -205q70 -11 113 -65q45 -60 45 -152q0 -32 -6 -73h-154q7 28 7 55q0 42 -19 69q-16 20 -31 25l-145 -747q26 11 41 26q43 41 59 121h154q-22 -86 -48.5 -138t-66.5 -87q-63 -56 -155 -68 l-43 -219h-125l43 221q-76 15 -121 82q-37 60 -37 146zM240 465q0 -49 18 -76q13 -20 37 -29l145 752q-30 -14 -51 -37q-33 -37 -55 -110.5t-53 -227.5q-41 -195 -41 -272z" />
<glyph unicode="&#xa3;" horiz-adv-x="827" d="M82 0l137 694h-123l25 123h123l57 287q38 191 131 278q98 93 248 93q166 0 246 -121l-133 -99q-49 70 -123 70q-157 0 -203 -233l-55 -275h163l-24 -123h-164l-106 -544h409l-31 -150h-577z" />
<glyph unicode="&#xa4;" horiz-adv-x="946" d="M72 258l116 115q-61 86 -61 196q0 111 61 197l-116 115l98 98l117 -115q89 60 194 60q106 0 195 -60l117 115l98 -98l-117 -115q62 -87 62 -197q0 -109 -62 -196l117 -115l-98 -98l-117 114q-88 -59 -195 -59q-106 0 -194 59l-117 -114zM264 569q0 -91 63 -154t154 -63 t154 63t63 154t-63 154t-154 63t-154 -63t-63 -154z" />
<glyph unicode="&#xa5;" horiz-adv-x="677" d="M59 393l23 121h172l18 86l-10 98h-143l24 121h109l-57 639h174l30 -631l277 631h184l-309 -639h98l-24 -121h-131l-58 -118l-14 -66h166l-25 -121h-164l-77 -393h-168l77 393h-172z" />
<glyph unicode="&#xa6;" horiz-adv-x="557" d="M66 -152l143 715h156l-144 -715h-155zM274 895l144 715h155l-143 -715h-156z" />
<glyph unicode="&#xa7;" horiz-adv-x="788" d="M-20 -143q0 26 6 67h155q-4 -18 -4 -49q0 -46 23 -72q26 -32 84 -32t100 36q51 48 51 152q0 84 -80 131l-108 66q-55 30 -88 75q-39 56 -39 138q0 59 26 186q24 125 50.5 189t68.5 106q41 41 119 63q-104 78 -104 197q0 175 110 274q82 74 209 74q137 0 195 -76 q47 -61 47 -145q0 -33 -8 -66h-150q4 28 4 43q0 46 -22 74q-24 31 -76 31q-54 0 -90 -33q-56 -51 -56 -145q0 -85 89 -135l96 -56q57 -32 86 -73q45 -68 45 -142q0 -38 -27 -180q-25 -123 -50 -188t-64 -105q-40 -46 -121 -72q53 -39 77.5 -84t24.5 -118q0 -187 -108 -279 q-90 -78 -222 -78q-131 0 -198 74q-51 57 -51 152zM240 399q0 -49 22 -80q29 -36 84 -36q60 0 103 43q34 32 52 81.5t36 147.5q22 113 22 156q0 47 -22 75q-26 39 -84 39q-57 0 -101 -41q-33 -30 -52 -79t-38 -150q-22 -113 -22 -156z" />
<glyph unicode="&#xa8;" d="M272 1225l33 164h156l-33 -164h-156zM573 1225l33 164h156l-33 -164h-156z" />
<glyph unicode="&#xa9;" horiz-adv-x="1642" d="M141 729q0 146 57 279t153 229.5t229 153.5t278 57t278 -57t229 -153.5t153 -229.5t57 -279t-57 -279t-153 -229.5t-229 -153.5t-278 -57t-278 57t-229 153.5t-153 229.5t-57 279zM252 729q0 -127 47.5 -241.5t128.5 -196t193 -129t237 -47.5t237 47.5t193 129t128.5 196 t47.5 241.5t-47.5 241.5t-128.5 196t-193 129t-237 47.5t-237 -47.5t-193 -129t-128.5 -196t-47.5 -241.5zM651 729q0 152 12 228t48 120q57 66 147 66q87 0 137 -53q55 -55 62 -175h-105q-4 81 -26 105q-26 29 -68 29q-43 0 -70 -35q-21 -28 -26.5 -89.5t-5.5 -195.5 t5.5 -195.5t26.5 -89.5q26 -34 70 -34q43 0 68 28q22 24 26 105h105q-7 -119 -62 -174q-51 -54 -137 -54q-90 0 -147 66q-36 44 -48 120t-12 228z" />
<glyph unicode="&#xaa;" horiz-adv-x="604" d="M115 799q0 175 110 260q61 51 187 51h90l20 107q8 32 8 63q0 34 -18.5 55t-56.5 21q-43 0 -70 -27q-33 -29 -47 -102h-131q28 133 94 188q63 55 168 55q102 0 149 -53q44 -51 44 -127q0 -31 -11 -86l-114 -571h-123l14 67q-35 -38 -59 -51q-38 -24 -90 -24q-92 0 -136 65 q-28 42 -28 109zM250 831q0 -92 80 -92q45 0 80 39.5t47 100.5l26 137h-61q-70 0 -109 -29q-31 -24 -47 -66.5t-16 -89.5z" />
<glyph unicode="&#xab;" horiz-adv-x="759" d="M57 557l381 471l-53 -262l-182 -221l94 -219l-49 -240zM381 557l381 471l-53 -262l-183 -221l95 -219l-50 -240z" />
<glyph unicode="&#xac;" horiz-adv-x="860" d="M98 528l31 150h668l-76 -379h-152l47 229h-518z" />
<glyph unicode="&#xad;" horiz-adv-x="559" d="M86 504l31 149h379l-31 -149h-379z" />
<glyph unicode="&#xae;" horiz-adv-x="1642" d="M141 729q0 146 57 279t153 229.5t229 153.5t278 57t278 -57t229 -153.5t153 -229.5t57 -279t-57 -279t-153 -229.5t-229 -153.5t-278 -57t-278 57t-229 153.5t-153 229.5t-57 279zM252 729q0 -127 47.5 -241.5t128.5 -196t193 -129t237 -47.5t237 47.5t193 129t128.5 196 t47.5 241.5t-47.5 241.5t-128.5 196t-193 129t-237 47.5t-237 -47.5t-193 -129t-128.5 -196t-47.5 -241.5zM670 328v809h204q87 0 140 -50q31 -31 42 -73.5t11 -110.5q0 -69 -11 -108t-42 -72q-17 -17 -41 -29l119 -366h-109l-106 342h-103v-342h-104zM774 766h103 q37 0 59 25q27 27 27 112q0 84 -27 113q-22 22 -59 22h-103v-272z" />
<glyph unicode="&#xaf;" d="M279 1245l22 111h438l-22 -111h-438z" />
<glyph unicode="&#xb0;" horiz-adv-x="763" d="M213 1178q0 124 87.5 211.5t211.5 87.5t211.5 -87.5t87.5 -211.5t-87.5 -211.5t-211.5 -87.5t-211.5 87.5t-87.5 211.5zM352 1178q0 -69 45.5 -116.5t114.5 -47.5t114.5 47.5t45.5 116.5q0 70 -45.5 117.5t-114.5 47.5t-114.5 -47.5t-45.5 -117.5z" />
<glyph unicode="&#xb1;" horiz-adv-x="860" d="M-6 47l31 152h680l-29 -152h-682zM106 618l31 150h264l56 285h151l-55 -285h264l-31 -150h-264l-57 -284h-152l58 284h-265z" />
<glyph unicode="&#xb2;" horiz-adv-x="610" d="M131 584l16 86l310 444q82 119 82 189q0 33 -17 51t-49 18q-75 0 -92 -90l-12 -63h-109l12 59q20 109 82 154q48 36 127 36q80 0 125 -45q41 -44 41 -110q0 -27 -2 -39q-10 -51 -31 -93.5t-65 -105.5l-279 -395h265l-19 -96h-385z" />
<glyph unicode="&#xb3;" horiz-adv-x="610" d="M160 719q0 29 6 59l10 51h109l-11 -55q-4 -28 -4 -41q0 -31 18 -47t48 -16q38 0 63 22q18 16 29.5 44t26.5 95q14 69 14 109q0 28 -18 46t-50 18h-51l21 88h43q29 0 55 22q19 17 28 38t19 73q12 55 12 80q0 35 -13 51t-46 16q-73 0 -90 -88l-12 -65h-109l10 61 q18 105 82 152q45 36 129 36q86 0 127 -47q31 -36 31 -106q0 -33 -12 -88q-18 -87 -50 -129q-20 -29 -59 -49q62 -32 62 -111q0 -20 -17 -107q-20 -95 -37 -138.5t-51 -71.5q-54 -48 -145 -48q-92 0 -135 52q-33 39 -33 94z" />
<glyph unicode="&#xb4;" horiz-adv-x="720" d="M422 1194l190 274h148l-209 -274h-129z" />
<glyph unicode="&#xb5;" horiz-adv-x="759" d="M-84 -399l293 1460h156l-152 -766q-10 -51 -10 -74q0 -49 27.5 -74.5t62.5 -25.5q121 0 156 174l153 766h156l-211 -1061h-150l15 80q-29 -40 -72 -68q-41 -26 -100 -26q-51 0 -90 28l-82 -413h-152z" />
<glyph unicode="&#xb6;" horiz-adv-x="1095" d="M135 874q0 43 23 164q25 125 57.5 206.5t78.5 129t101 66t133 18.5h643l-370 -1857h-156l342 1708h-213l-344 -1708h-156l201 1007h-82q-121 0 -189.5 67.5t-68.5 198.5z" />
<glyph unicode="&#xb7;" horiz-adv-x="512" d="M113 487l53 269h270l-53 -269h-270z" />
<glyph unicode="&#xb8;" d="M35 -369l170 291h112l-149 -291h-133z" />
<glyph unicode="&#xb9;" horiz-adv-x="610" d="M285 584l147 743l-145 -102l24 129l152 104h104l-174 -874h-108z" />
<glyph unicode="&#xba;" horiz-adv-x="604" d="M141 809q0 61 33 233q32 155 60 234t65 119q35 38 76 54.5t104 16.5q102 0 148 -57q41 -47 41 -133q0 -66 -33 -234q-32 -156 -60 -235t-65 -119q-35 -38 -75.5 -55t-104.5 -17q-97 0 -148 58q-41 47 -41 135zM272 821q0 -88 72 -88q47 0 74 37q25 26 43 86t43 186 q33 158 33 220q0 88 -70 88q-49 0 -76 -35q-24 -28 -42.5 -90t-43.5 -183q-33 -162 -33 -221z" />
<glyph unicode="&#xbb;" horiz-adv-x="759" d="M8 86l53 262l183 221l-94 219l47 240l192 -471zM332 86l53 262l184 221l-96 219l49 240l193 -471z" />
<glyph unicode="&#xbc;" horiz-adv-x="1443" d="M285 584l147 743l-145 -102l24 129l152 104h104l-174 -874h-108zM319 0l773 1458h116l-772 -1458h-117zM844 141l20 95l359 638h110l-352 -636h141l37 184h109l-37 -184h65l-20 -97h-64l-28 -141h-109l29 141h-260z" />
<glyph unicode="&#xbd;" horiz-adv-x="1443" d="M285 584l147 743l-145 -102l24 129l152 104h104l-174 -874h-108zM319 0l773 1458h116l-772 -1458h-117zM848 0l16 86l310 444q81 118 81 189q0 69 -65 69q-75 0 -92 -90l-13 -63h-108l12 59q20 109 82 154q49 37 127 37q80 0 125 -45q41 -44 41 -111q0 -27 -2 -39 q-10 -50 -30.5 -92t-65.5 -106l-279 -396h264l-18 -96h-385z" />
<glyph unicode="&#xbe;" horiz-adv-x="1443" d="M160 719q0 29 6 59l10 51h109l-11 -55q-4 -28 -4 -41q0 -31 18 -47t48 -16q38 0 63 22q18 16 29.5 44t26.5 95q14 69 14 109q0 28 -18 46t-50 18h-51l21 88h43q29 0 55 22q19 17 28 38t19 73q12 55 12 80q0 35 -13 51t-46 16q-73 0 -90 -88l-12 -65h-109l10 61 q18 105 82 152q45 36 129 36q86 0 127 -47q31 -36 31 -106q0 -33 -12 -88q-18 -87 -50 -129q-20 -29 -59 -49q62 -32 62 -111q0 -20 -17 -107q-20 -95 -37 -138.5t-51 -71.5q-54 -48 -145 -48q-92 0 -135 52q-33 39 -33 94zM319 0l773 1458h116l-772 -1458h-117zM844 141 l20 95l359 638h110l-352 -636h141l37 184h109l-37 -184h65l-20 -97h-64l-28 -141h-109l29 141h-260z" />
<glyph unicode="&#xbf;" horiz-adv-x="772" d="M-59 -174q0 58 14 135q17 85 43.5 141.5t73.5 112.5l139 168q60 68 74 141l28 144h156l-33 -162q-12 -56 -31.5 -96.5t-68.5 -96.5l-143 -170q-62 -71 -87 -186q-10 -46 -10 -109q0 -55 25 -86q24 -34 86 -34q57 0 102 39q51 43 76 172h156q-22 -108 -51 -171.5 t-78 -103.5q-90 -76 -219 -76q-143 0 -207 86q-45 59 -45 152zM330 858l39 201h190l-41 -201h-188z" />
<glyph unicode="&#xc0;" horiz-adv-x="823" d="M-94 0l612 1458h164l29 -1458h-168l2 346h-324l-139 -346h-176zM283 498h260l6 688zM465 1831h135l80 -275h-117z" />
<glyph unicode="&#xc1;" horiz-adv-x="823" d="M-94 0l612 1458h164l29 -1458h-168l2 346h-324l-139 -346h-176zM283 498h260l6 688zM543 1552l190 275h148l-209 -275h-129z" />
<glyph unicode="&#xc2;" horiz-adv-x="823" d="M-94 0l612 1458h164l29 -1458h-168l2 346h-324l-139 -346h-176zM283 498h260l6 688zM373 1552l233 275h125l123 -275h-119l-80 181l-151 -181h-131z" />
<glyph unicode="&#xc3;" horiz-adv-x="823" d="M-94 0l612 1458h164l29 -1458h-168l2 346h-324l-139 -346h-176zM283 498h260l6 688zM379 1673q50 43 86 60.5t74 17.5q35 0 57 -7.5t53 -27.5q46 -30 84 -30q27 0 48 11t48 38l62 -78q-51 -45 -87 -62.5t-75 -17.5q-34 0 -56.5 7.5t-51.5 27.5q-47 30 -86 30 q-27 0 -47.5 -11t-49.5 -38z" />
<glyph unicode="&#xc4;" horiz-adv-x="823" d="M-94 0l612 1458h164l29 -1458h-168l2 346h-324l-139 -346h-176zM283 498h260l6 688zM389 1583l33 164h156l-33 -164h-156zM690 1583l33 164h156l-33 -164h-156z" />
<glyph unicode="&#xc5;" horiz-adv-x="823" d="M-94 0l612 1458h164l29 -1458h-168l2 346h-324l-139 -346h-176zM283 498h260l6 688zM436 1737q0 82 57.5 140t139.5 58t140 -58t58 -140t-58 -139.5t-140 -57.5t-139.5 57.5t-57.5 139.5zM530 1737q0 -45 29.5 -76t73.5 -31t73 31t29 76t-29 75.5t-73 30.5t-73.5 -30.5 t-29.5 -75.5z" />
<glyph unicode="&#xc6;" horiz-adv-x="1239" d="M-96 0l798 1458h644l-31 -149h-365l-98 -498h313l-30 -152h-314l-100 -509h362l-28 -150h-533l72 356h-315l-191 -356h-184zM358 506h265l161 807z" />
<glyph unicode="&#xc7;" horiz-adv-x="819" d="M61 272q0 104 70 457q69 343 111.5 466t111.5 189q97 91 246 91q147 0 217 -89q53 -71 53 -188q0 -44 -8 -96h-166q9 52 9 88q0 135 -117 135q-72 0 -119 -47q-46 -46 -77.5 -147t-92.5 -402q-70 -344 -70 -457q0 -139 121 -139q72 0 119 53q59 62 80 172h170 q-23 -107 -58 -177.5t-96 -121.5q-87 -75 -231 -75q-151 0 -219 96q-54 77 -54 192zM88 -369l170 291h113l-150 -291h-133z" />
<glyph unicode="&#xc8;" horiz-adv-x="735" d="M18 0l291 1458h533l-31 -149h-365l-98 -498h314l-31 -152h-314l-100 -509h363l-29 -150h-533zM449 1831h135l80 -275h-117z" />
<glyph unicode="&#xc9;" horiz-adv-x="735" d="M18 0l291 1458h533l-31 -149h-365l-98 -498h314l-31 -152h-314l-100 -509h363l-29 -150h-533zM526 1552l191 275h147l-209 -275h-129z" />
<glyph unicode="&#xca;" horiz-adv-x="735" d="M18 0l291 1458h533l-31 -149h-365l-98 -498h314l-31 -152h-314l-100 -509h363l-29 -150h-533zM356 1552l234 275h125l123 -275h-119l-80 181l-152 -181h-131z" />
<glyph unicode="&#xcb;" horiz-adv-x="735" d="M18 0l291 1458h533l-31 -149h-365l-98 -498h314l-31 -152h-314l-100 -509h363l-29 -150h-533zM373 1583l33 164h155l-33 -164h-155zM674 1583l33 164h155l-33 -164h-155z" />
<glyph unicode="&#xcc;" horiz-adv-x="413" d="M18 0l291 1458h168l-291 -1458h-168zM260 1831h135l80 -275h-117z" />
<glyph unicode="&#xcd;" horiz-adv-x="413" d="M18 0l291 1458h168l-291 -1458h-168zM338 1552l190 275h148l-209 -275h-129z" />
<glyph unicode="&#xce;" horiz-adv-x="413" d="M18 0l291 1458h168l-291 -1458h-168zM168 1552l233 275h125l123 -275h-119l-79 181l-152 -181h-131z" />
<glyph unicode="&#xcf;" horiz-adv-x="413" d="M18 0l291 1458h168l-291 -1458h-168zM184 1583l33 164h156l-33 -164h-156zM485 1583l33 164h156l-33 -164h-156z" />
<glyph unicode="&#xd0;" horiz-adv-x="933" d="M86 0l133 668h-100l26 133h101l131 657h311q82 0 132.5 -25t84.5 -77q49 -69 49 -182q0 -103 -69 -445q-65 -328 -106 -450t-111 -187q-99 -92 -254 -92h-328zM283 150h141q84 0 133 55q43 46 76 156t84 368q69 342 69 442q0 60 -28 99q-31 39 -99 39h-145l-102 -508h155 l-26 -133h-156z" />
<glyph unicode="&#xd1;" horiz-adv-x="899" d="M18 0l291 1458h146l147 -1007l193 1007h168l-291 -1458h-140l-145 1006l-201 -1006h-168zM420 1673q50 43 86 60.5t74 17.5q35 0 57 -7.5t53 -27.5q46 -30 84 -30q27 0 48 11t48 38l62 -78q-51 -45 -87 -62.5t-75 -17.5q-34 0 -56.5 7.5t-51.5 27.5q-47 30 -87 30 q-27 0 -47 -10.5t-49 -38.5z" />
<glyph unicode="&#xd2;" horiz-adv-x="854" d="M61 266q0 110 70 463q70 350 111.5 470.5t115.5 189.5q92 86 240 86q161 0 227 -105q47 -73 47 -178q0 -125 -67 -463q-50 -243 -82 -363t-63.5 -184t-81.5 -112q-92 -86 -240 -86q-161 0 -227 104q-50 77 -50 178zM229 276q0 -143 125 -143q66 0 113 47q45 44 78 149 t92 400q68 349 68 453q0 143 -123 143q-66 0 -113 -47q-45 -44 -78 -149t-92 -400q-70 -344 -70 -453zM477 1831h135l80 -275h-117z" />
<glyph unicode="&#xd3;" horiz-adv-x="854" d="M61 266q0 110 70 463q70 350 111.5 470.5t115.5 189.5q92 86 240 86q161 0 227 -105q47 -73 47 -178q0 -125 -67 -463q-50 -243 -82 -363t-63.5 -184t-81.5 -112q-92 -86 -240 -86q-161 0 -227 104q-50 77 -50 178zM229 276q0 -143 125 -143q66 0 113 47q45 44 78 149 t92 400q68 349 68 453q0 143 -123 143q-66 0 -113 -47q-45 -44 -78 -149t-92 -400q-70 -344 -70 -453zM555 1552l190 275h148l-209 -275h-129z" />
<glyph unicode="&#xd4;" horiz-adv-x="854" d="M61 266q0 110 70 463q70 350 111.5 470.5t115.5 189.5q92 86 240 86q161 0 227 -105q47 -73 47 -178q0 -125 -67 -463q-50 -243 -82 -363t-63.5 -184t-81.5 -112q-92 -86 -240 -86q-161 0 -227 104q-50 77 -50 178zM229 276q0 -143 125 -143q66 0 113 47q45 44 78 149 t92 400q68 349 68 453q0 143 -123 143q-66 0 -113 -47q-45 -44 -78 -149t-92 -400q-70 -344 -70 -453zM385 1552l233 275h125l123 -275h-118l-80 181l-152 -181h-131z" />
<glyph unicode="&#xd5;" horiz-adv-x="854" d="M61 266q0 110 70 463q70 350 111.5 470.5t115.5 189.5q92 86 240 86q161 0 227 -105q47 -73 47 -178q0 -125 -67 -463q-50 -243 -82 -363t-63.5 -184t-81.5 -112q-92 -86 -240 -86q-161 0 -227 104q-50 77 -50 178zM229 276q0 -143 125 -143q66 0 113 47q45 44 78 149 t92 400q68 349 68 453q0 143 -123 143q-66 0 -113 -47q-45 -44 -78 -149t-92 -400q-70 -344 -70 -453zM391 1673q50 43 86 60.5t74 17.5q35 0 57.5 -7.5t53.5 -27.5q46 -30 83 -30q48 0 97 49l61 -78q-51 -45 -87 -62.5t-75 -17.5q-34 0 -56.5 7.5t-51.5 27.5q-46 30 -86 30 q-27 0 -47 -10.5t-49 -38.5z" />
<glyph unicode="&#xd6;" horiz-adv-x="854" d="M61 266q0 110 70 463q70 350 111.5 470.5t115.5 189.5q92 86 240 86q161 0 227 -105q47 -73 47 -178q0 -125 -67 -463q-50 -243 -82 -363t-63.5 -184t-81.5 -112q-92 -86 -240 -86q-161 0 -227 104q-50 77 -50 178zM229 276q0 -143 125 -143q66 0 113 47q45 44 78 149 t92 400q68 349 68 453q0 143 -123 143q-66 0 -113 -47q-45 -44 -78 -149t-92 -400q-70 -344 -70 -453zM401 1583l33 164h156l-33 -164h-156zM702 1583l33 164h156l-33 -164h-156z" />
<glyph unicode="&#xd7;" horiz-adv-x="860" d="M68 344l268 234l-172 233l115 100l172 -233l268 235l88 -118l-268 -234l172 -233l-115 -101l-172 234l-268 -236z" />
<glyph unicode="&#xd8;" horiz-adv-x="854" d="M-12 -90l108 203q-35 65 -35 153q0 110 70 463q70 350 111.5 470.5t115.5 189.5q92 86 240 86q103 0 170 -45l61 118h119l-108 -205q32 -60 32 -151q0 -125 -67 -463q-50 -243 -82 -363t-63.5 -184t-81.5 -112q-92 -86 -240 -86q-105 0 -170 43l-62 -117h-118zM236 369 l450 903q-29 53 -104 53q-66 0 -113 -47q-45 -43 -77 -146.5t-93 -402.5q-47 -222 -63 -360zM248 186q29 -53 106 -53q66 0 113 47q45 44 78 149t92 400q46 231 61 361z" />
<glyph unicode="&#xd9;" horiz-adv-x="862" d="M66 248q0 42 10 104l221 1106h168l-225 -1122q-7 -40 -7 -70q0 -62 31 -96.5t92 -34.5q66 0 116.5 47.5t68.5 136.5l229 1139h168l-229 -1141q-18 -91 -49 -148t-82 -101q-94 -84 -246 -84q-129 0 -207 84q-59 68 -59 180zM479 1831h135l80 -275h-116z" />
<glyph unicode="&#xda;" horiz-adv-x="862" d="M66 248q0 42 10 104l221 1106h168l-225 -1122q-7 -40 -7 -70q0 -62 31 -96.5t92 -34.5q66 0 116.5 47.5t68.5 136.5l229 1139h168l-229 -1141q-18 -91 -49 -148t-82 -101q-94 -84 -246 -84q-129 0 -207 84q-59 68 -59 180zM557 1552l191 275h147l-209 -275h-129z" />
<glyph unicode="&#xdb;" horiz-adv-x="862" d="M66 248q0 42 10 104l221 1106h168l-225 -1122q-7 -40 -7 -70q0 -62 31 -96.5t92 -34.5q66 0 116.5 47.5t68.5 136.5l229 1139h168l-229 -1141q-18 -91 -49 -148t-82 -101q-94 -84 -246 -84q-129 0 -207 84q-59 68 -59 180zM387 1552l234 275h124l123 -275h-118l-80 181 l-152 -181h-131z" />
<glyph unicode="&#xdc;" horiz-adv-x="862" d="M66 248q0 42 10 104l221 1106h168l-225 -1122q-7 -40 -7 -70q0 -62 31 -96.5t92 -34.5q66 0 116.5 47.5t68.5 136.5l229 1139h168l-229 -1141q-18 -91 -49 -148t-82 -101q-94 -84 -246 -84q-129 0 -207 84q-59 68 -59 180zM403 1583l33 164h156l-33 -164h-156zM705 1583 l32 164h156l-33 -164h-155z" />
<glyph unicode="&#xdd;" horiz-adv-x="684" d="M154 0l118 600l-77 858h174l30 -631l277 631h184l-424 -878l-114 -580h-168zM469 1552l190 275h148l-209 -275h-129z" />
<glyph unicode="&#xde;" horiz-adv-x="839" d="M18 0l291 1458h168l-59 -295h125q146 0 215 -69q63 -66 63 -193q0 -88 -16 -164q-26 -128 -63 -213t-89 -131t-110 -64t-137 -18h-158l-62 -311h-168zM276 461h134q89 0 141 59t86 217q16 75 16 137q0 71 -31.5 105.5t-105.5 34.5h-129z" />
<glyph unicode="&#xdf;" horiz-adv-x="759" d="M6 0l234 1176q34 162 118 231q80 68 203 68q132 0 193 -80q45 -60 45 -160q0 -73 -24 -164t-62 -147q-36 -51 -88 -86q75 -51 75 -170q0 -63 -34 -224q-37 -184 -65.5 -255t-84.5 -119q-78 -70 -235 -70l26 139q72 0 111 39q30 28 50 87t46 196q31 158 31 207 q0 108 -92 108h-17l25 131h16q32 0 55.5 22t45.5 64q65 124 65 232q0 54 -25 82t-71 28q-59 0 -98 -41.5t-54 -117.5l-233 -1176h-156z" />
<glyph unicode="&#xe0;" d="M4 205q0 49 12 102q29 155 134 240q41 34 92 48.5t129 14.5h110l33 164q8 36 8 64q0 47 -24 73.5t-70 26.5q-50 0 -86 -33q-42 -37 -61 -129h-156q34 160 117 232q78 69 204 69q134 0 189 -73q43 -58 43 -152q0 -27 -10 -90l-152 -762h-147l16 88q-31 -43 -70 -70 q-49 -34 -118 -34q-104 0 -160 82q-33 50 -33 139zM166 236q0 -113 90 -113q62 0 105.5 50t58.5 122l39 201h-82q-46 0 -73 -8t-54 -31q-39 -32 -61.5 -94.5t-22.5 -126.5zM336 1470h135l80 -274h-117z" />
<glyph unicode="&#xe1;" d="M4 205q0 49 12 102q29 155 134 240q41 34 92 48.5t129 14.5h110l33 164q8 36 8 64q0 47 -24 73.5t-70 26.5q-50 0 -86 -33q-42 -37 -61 -129h-156q34 160 117 232q78 69 204 69q134 0 189 -73q43 -58 43 -152q0 -27 -10 -90l-152 -762h-147l16 88q-31 -43 -70 -70 q-49 -34 -118 -34q-104 0 -160 82q-33 50 -33 139zM166 236q0 -113 90 -113q62 0 105.5 50t58.5 122l39 201h-82q-46 0 -73 -8t-54 -31q-39 -32 -61.5 -94.5t-22.5 -126.5zM414 1194l190 274h148l-209 -274h-129z" />
<glyph unicode="&#xe2;" d="M4 205q0 49 12 102q29 155 134 240q41 34 92 48.5t129 14.5h110l33 164q8 36 8 64q0 47 -24 73.5t-70 26.5q-50 0 -86 -33q-42 -37 -61 -129h-156q34 160 117 232q78 69 204 69q134 0 189 -73q43 -58 43 -152q0 -27 -10 -90l-152 -762h-147l16 88q-31 -43 -70 -70 q-49 -34 -118 -34q-104 0 -160 82q-33 50 -33 139zM166 236q0 -113 90 -113q62 0 105.5 50t58.5 122l39 201h-82q-46 0 -73 -8t-54 -31q-39 -32 -61.5 -94.5t-22.5 -126.5zM242 1194l233 274h125l123 -274h-119l-80 180l-151 -180h-131z" />
<glyph unicode="&#xe3;" d="M4 205q0 49 12 102q29 155 134 240q41 34 92 48.5t129 14.5h110l33 164q8 36 8 64q0 47 -24 73.5t-70 26.5q-50 0 -86 -33q-42 -37 -61 -129h-156q34 160 117 232q78 69 204 69q134 0 189 -73q43 -58 43 -152q0 -27 -10 -90l-152 -762h-147l16 88q-31 -43 -70 -70 q-49 -34 -118 -34q-104 0 -160 82q-33 50 -33 139zM166 236q0 -113 90 -113q62 0 105.5 50t58.5 122l39 201h-82q-46 0 -73 -8t-54 -31q-39 -32 -61.5 -94.5t-22.5 -126.5zM250 1315q50 43 86 60.5t74 17.5q35 0 57 -7.5t53 -27.5q48 -31 84 -31q27 0 48 11t48 38l62 -78 q-51 -44 -86.5 -61.5t-75.5 -17.5q-58 0 -108 34q-48 31 -86 31q-27 0 -47.5 -11t-49.5 -38z" />
<glyph unicode="&#xe4;" d="M4 205q0 49 12 102q29 155 134 240q41 34 92 48.5t129 14.5h110l33 164q8 36 8 64q0 47 -24 73.5t-70 26.5q-50 0 -86 -33q-42 -37 -61 -129h-156q34 160 117 232q78 69 204 69q134 0 189 -73q43 -58 43 -152q0 -27 -10 -90l-152 -762h-147l16 88q-31 -43 -70 -70 q-49 -34 -118 -34q-104 0 -160 82q-33 50 -33 139zM166 236q0 -113 90 -113q62 0 105.5 50t58.5 122l39 201h-82q-46 0 -73 -8t-54 -31q-39 -32 -61.5 -94.5t-22.5 -126.5zM260 1225l33 164h156l-33 -164h-156zM561 1225l33 164h156l-33 -164h-156z" />
<glyph unicode="&#xe5;" d="M4 205q0 49 12 102q29 155 134 240q41 34 92 48.5t129 14.5h110l33 164q8 36 8 64q0 47 -24 73.5t-70 26.5q-50 0 -86 -33q-42 -37 -61 -129h-156q34 160 117 232q78 69 204 69q134 0 189 -73q43 -58 43 -152q0 -27 -10 -90l-152 -762h-147l16 88q-31 -43 -70 -70 q-49 -34 -118 -34q-104 0 -160 82q-33 50 -33 139zM166 236q0 -113 90 -113q62 0 105.5 50t58.5 122l39 201h-82q-46 0 -73 -8t-54 -31q-39 -32 -61.5 -94.5t-22.5 -126.5zM313 1393q0 82 57.5 140t139.5 58t140.5 -58t58.5 -140t-58.5 -139.5t-140.5 -57.5t-139.5 57.5 t-57.5 139.5zM408 1393q0 -45 29 -76t73 -31t73 31t29 76t-29 75.5t-73 30.5t-73 -30.5t-29 -75.5z" />
<glyph unicode="&#xe6;" horiz-adv-x="1101" d="M4 205q0 49 12 102q29 155 134 240q41 34 92 48.5t129 14.5h110l33 164q8 36 8 64q0 47 -24 73.5t-70 26.5q-50 0 -86 -33q-42 -37 -61 -129h-156q34 160 117 232q78 69 204 69q131 0 187 -90q81 90 217 90q128 0 186 -86q37 -55 37 -153q0 -112 -49 -344h-412 q-37 -195 -37 -261q0 -51 25 -83q24 -27 68 -27q56 0 92 33q45 42 65 139h156q-19 -84 -43 -134.5t-66 -92.5q-84 -84 -219 -84q-113 0 -168 55q-32 32 -51 84q-46 -66 -82 -92q-70 -47 -155 -47q-104 0 -160 82q-33 50 -33 139zM166 236q0 -113 90 -113q62 0 105.5 50 t58.5 122l39 201h-82q-46 0 -73 -8t-54 -31q-39 -32 -61.5 -94.5t-22.5 -126.5zM639 614h254q29 139 29 213q0 111 -93 111q-57 0 -94 -45q-30 -33 -50 -93.5t-46 -185.5z" />
<glyph unicode="&#xe7;" horiz-adv-x="696" d="M33 -369l170 291h112l-149 -291h-133zM35 225q0 93 43 305q40 204 75 304t87 155q82 88 221 88t194 -90q35 -57 35 -137q0 -40 -8 -84h-154q9 44 9 72q0 47 -23 73q-27 27 -70 27q-56 0 -98 -45q-33 -36 -56.5 -117t-56.5 -246q-47 -235 -47 -299t33 -90q24 -18 64 -18 q52 0 86 31q28 25 42 56t25 85h156q-36 -153 -105 -225q-83 -86 -221 -86q-122 0 -184 77q-47 56 -47 164z" />
<glyph unicode="&#xe8;" horiz-adv-x="714" d="M35 225q0 90 43 305q38 192 75 299t87 160q85 88 223 88q128 0 186 -86q37 -55 37 -153q0 -112 -49 -344h-412q-37 -195 -37 -261q0 -51 25 -83q24 -27 68 -27q56 0 92 33q45 42 65 139h156q-19 -84 -43 -134.5t-66 -92.5q-84 -84 -219 -84q-142 0 -200 98 q-31 60 -31 143zM252 614h254q29 139 29 213q0 111 -93 111q-57 0 -94 -45q-30 -33 -50 -93.5t-46 -185.5zM344 1470h135l80 -274h-117z" />
<glyph unicode="&#xe9;" horiz-adv-x="714" d="M35 225q0 90 43 305q38 192 75 299t87 160q85 88 223 88q128 0 186 -86q37 -55 37 -153q0 -112 -49 -344h-412q-37 -195 -37 -261q0 -51 25 -83q24 -27 68 -27q56 0 92 33q45 42 65 139h156q-19 -84 -43 -134.5t-66 -92.5q-84 -84 -219 -84q-142 0 -200 98 q-31 60 -31 143zM252 614h254q29 139 29 213q0 111 -93 111q-57 0 -94 -45q-30 -33 -50 -93.5t-46 -185.5zM422 1194l190 274h148l-209 -274h-129z" />
<glyph unicode="&#xea;" horiz-adv-x="714" d="M35 225q0 90 43 305q38 192 75 299t87 160q85 88 223 88q128 0 186 -86q37 -55 37 -153q0 -112 -49 -344h-412q-37 -195 -37 -261q0 -51 25 -83q24 -27 68 -27q56 0 92 33q45 42 65 139h156q-19 -84 -43 -134.5t-66 -92.5q-84 -84 -219 -84q-142 0 -200 98 q-31 60 -31 143zM250 1194l233 274h125l123 -274h-119l-80 180l-151 -180h-131zM252 614h254q29 139 29 213q0 111 -93 111q-57 0 -94 -45q-30 -33 -50 -93.5t-46 -185.5z" />
<glyph unicode="&#xeb;" horiz-adv-x="714" d="M35 225q0 90 43 305q38 192 75 299t87 160q85 88 223 88q128 0 186 -86q37 -55 37 -153q0 -112 -49 -344h-412q-37 -195 -37 -261q0 -51 25 -83q24 -27 68 -27q56 0 92 33q45 42 65 139h156q-19 -84 -43 -134.5t-66 -92.5q-84 -84 -219 -84q-142 0 -200 98 q-31 60 -31 143zM252 614h254q29 139 29 213q0 111 -93 111q-57 0 -94 -45q-30 -33 -50 -93.5t-46 -185.5zM268 1225l33 164h156l-33 -164h-156zM569 1225l33 164h156l-33 -164h-156z" />
<glyph unicode="&#xec;" horiz-adv-x="374" d="M6 0l211 1061h156l-211 -1061h-156zM176 1470h135l80 -274h-117z" />
<glyph unicode="&#xed;" horiz-adv-x="374" d="M6 0l211 1061h156l-211 -1061h-156zM254 1194l190 274h148l-209 -274h-129z" />
<glyph unicode="&#xee;" horiz-adv-x="374" d="M6 0l211 1061h156l-211 -1061h-156zM82 1194l233 274h125l123 -274h-119l-79 180l-152 -180h-131z" />
<glyph unicode="&#xef;" horiz-adv-x="374" d="M6 0l211 1061h156l-211 -1061h-156zM100 1225l33 164h156l-33 -164h-156zM401 1225l33 164h156l-33 -164h-156z" />
<glyph unicode="&#xf0;" horiz-adv-x="727" d="M39 223q0 103 37 285q40 204 74 301t81 143q72 72 185 72q67 0 114 -35l-22 197h-152l21 108h117l-21 164h148l20 -164h141l-20 -108h-105l23 -230q6 -52 6 -102q0 -127 -43 -346q-40 -202 -75.5 -298.5t-82.5 -143.5q-79 -82 -223 -82q-108 0 -168 67q-55 63 -55 172z M190 236q0 -48 19 -80q23 -33 74 -33q55 0 96 41q31 32 50.5 101t55.5 243q41 202 41 264q0 53 -18 80q-23 33 -72 33q-57 0 -98 -41q-29 -29 -52.5 -105t-54.5 -231q-41 -205 -41 -272z" />
<glyph unicode="&#xf1;" horiz-adv-x="761" d="M6 0l211 1061h150l-17 -80q35 44 72 66q48 30 113 30q104 0 155 -82q31 -47 31 -123q0 -37 -14 -106l-152 -766h-156l152 766q8 39 8 74q0 42 -23.5 70t-70.5 28q-52 0 -93.5 -40.5t-58.5 -131.5l-151 -766h-156zM281 1315q50 43 85.5 60.5t73.5 17.5q35 0 57.5 -7.5 t53.5 -27.5q48 -31 84 -31q27 0 48 11t48 38l62 -78q-51 -44 -86.5 -61.5t-75.5 -17.5q-59 0 -109 34q-48 31 -86 31q-27 0 -47 -10.5t-49 -38.5z" />
<glyph unicode="&#xf2;" d="M37 229q0 99 41 301q42 215 76.5 309.5t87.5 151.5q80 86 217 86q141 0 196 -96q31 -57 31 -150q0 -99 -41 -301q-42 -213 -76.5 -308.5t-87.5 -151.5q-80 -86 -217 -86q-141 0 -196 96q-31 57 -31 149zM188 233q0 -49 21 -79q24 -31 70 -31q59 0 96 43q33 36 56.5 115.5 t57.5 248.5q46 230 46 297q0 50 -21 80q-24 31 -70 31q-59 0 -96 -43q-33 -36 -57.5 -116.5t-57.5 -248.5q-45 -225 -45 -297zM344 1470h135l80 -274h-117z" />
<glyph unicode="&#xf3;" d="M37 229q0 99 41 301q42 215 76.5 309.5t87.5 151.5q80 86 217 86q141 0 196 -96q31 -57 31 -150q0 -99 -41 -301q-42 -213 -76.5 -308.5t-87.5 -151.5q-80 -86 -217 -86q-141 0 -196 96q-31 57 -31 149zM188 233q0 -49 21 -79q24 -31 70 -31q59 0 96 43q33 36 56.5 115.5 t57.5 248.5q46 230 46 297q0 50 -21 80q-24 31 -70 31q-59 0 -96 -43q-33 -36 -57.5 -116.5t-57.5 -248.5q-45 -225 -45 -297zM422 1194l190 274h148l-209 -274h-129z" />
<glyph unicode="&#xf4;" d="M37 229q0 99 41 301q42 215 76.5 309.5t87.5 151.5q80 86 217 86q141 0 196 -96q31 -57 31 -150q0 -99 -41 -301q-42 -213 -76.5 -308.5t-87.5 -151.5q-80 -86 -217 -86q-141 0 -196 96q-31 57 -31 149zM188 233q0 -49 21 -79q24 -31 70 -31q59 0 96 43q33 36 56.5 115.5 t57.5 248.5q46 230 46 297q0 50 -21 80q-24 31 -70 31q-59 0 -96 -43q-33 -36 -57.5 -116.5t-57.5 -248.5q-45 -225 -45 -297zM250 1194l233 274h125l123 -274h-119l-80 180l-151 -180h-131z" />
<glyph unicode="&#xf5;" d="M37 229q0 99 41 301q42 215 76.5 309.5t87.5 151.5q80 86 217 86q141 0 196 -96q31 -57 31 -150q0 -99 -41 -301q-42 -213 -76.5 -308.5t-87.5 -151.5q-80 -86 -217 -86q-141 0 -196 96q-31 57 -31 149zM188 233q0 -49 21 -79q24 -31 70 -31q59 0 96 43q33 36 56.5 115.5 t57.5 248.5q46 230 46 297q0 50 -21 80q-24 31 -70 31q-59 0 -96 -43q-33 -36 -57.5 -116.5t-57.5 -248.5q-45 -225 -45 -297zM258 1315q50 43 86 60.5t74 17.5q35 0 57 -7.5t53 -27.5q48 -31 84 -31q48 0 97 49l61 -78q-51 -44 -86.5 -61.5t-75.5 -17.5q-58 0 -108 34 q-48 31 -86 31q-27 0 -47.5 -11t-49.5 -38z" />
<glyph unicode="&#xf6;" d="M37 229q0 99 41 301q42 215 76.5 309.5t87.5 151.5q80 86 217 86q141 0 196 -96q31 -57 31 -150q0 -99 -41 -301q-42 -213 -76.5 -308.5t-87.5 -151.5q-80 -86 -217 -86q-141 0 -196 96q-31 57 -31 149zM188 233q0 -49 21 -79q24 -31 70 -31q59 0 96 43q33 36 56.5 115.5 t57.5 248.5q46 230 46 297q0 50 -21 80q-24 31 -70 31q-59 0 -96 -43q-33 -36 -57.5 -116.5t-57.5 -248.5q-45 -225 -45 -297zM268 1225l33 164h156l-33 -164h-156zM569 1225l33 164h156l-33 -164h-156z" />
<glyph unicode="&#xf7;" horiz-adv-x="860" d="M86 508l31 147h680l-31 -147h-680zM258 145l37 189h194l-38 -189h-193zM393 829l39 189h193l-37 -189h-195z" />
<glyph unicode="&#xf8;" d="M-53 -90l108 192q-18 50 -18 127q0 99 41 301q42 215 76.5 309.5t87.5 151.5q80 86 217 86q88 0 143 -39l64 113h112l-112 -193q20 -47 20 -127q0 -99 -41 -301q-42 -213 -76.5 -308.5t-87.5 -151.5q-80 -86 -217 -86q-85 0 -143 36l-62 -110h-112zM197 319l323 578 l-6 10q-24 31 -70 31q-59 0 -96 -43q-33 -36 -57.5 -116.5t-57.5 -248.5q-24 -127 -36 -211zM205 160q0 -2 4 -6q24 -31 70 -31q59 0 96 43q33 36 56.5 115.5t57.5 248.5q36 196 39 220z" />
<glyph unicode="&#xf9;" horiz-adv-x="759" d="M43 188q0 38 14 107l152 766h156l-152 -766q-8 -39 -8 -74q0 -42 23.5 -70t70.5 -28q52 0 93.5 40.5t58.5 131.5l151 766h156l-211 -1061h-150l17 80q-35 -44 -72 -66q-48 -30 -113 -30q-104 0 -155 82q-31 47 -31 122zM358 1470h136l79 -274h-116z" />
<glyph unicode="&#xfa;" horiz-adv-x="759" d="M43 188q0 38 14 107l152 766h156l-152 -766q-8 -39 -8 -74q0 -42 23.5 -70t70.5 -28q52 0 93.5 40.5t58.5 131.5l151 766h156l-211 -1061h-150l17 80q-35 -44 -72 -66q-48 -30 -113 -30q-104 0 -155 82q-31 47 -31 122zM436 1194l191 274h147l-209 -274h-129z" />
<glyph unicode="&#xfb;" horiz-adv-x="759" d="M43 188q0 38 14 107l152 766h156l-152 -766q-8 -39 -8 -74q0 -42 23.5 -70t70.5 -28q52 0 93.5 40.5t58.5 131.5l151 766h156l-211 -1061h-150l17 80q-35 -44 -72 -66q-48 -30 -113 -30q-104 0 -155 82q-31 47 -31 122zM264 1194l234 274h125l122 -274h-118l-80 180 l-152 -180h-131z" />
<glyph unicode="&#xfc;" horiz-adv-x="759" d="M43 188q0 38 14 107l152 766h156l-152 -766q-8 -39 -8 -74q0 -42 23.5 -70t70.5 -28q52 0 93.5 40.5t58.5 131.5l151 766h156l-211 -1061h-150l17 80q-35 -44 -72 -66q-48 -30 -113 -30q-104 0 -155 82q-31 47 -31 122zM283 1225l32 164h156l-33 -164h-155zM584 1225 l32 164h156l-33 -164h-155z" />
<glyph unicode="&#xfd;" horiz-adv-x="663" d="M-145 -397l28 137q135 3 191 115l71 147l-30 1059h161l-2 -811l318 811h176l-530 -1231q-31 -72 -68.5 -117.5t-87.5 -69t-101.5 -32t-125.5 -8.5zM397 1194l191 274h147l-209 -274h-129z" />
<glyph unicode="&#xfe;" horiz-adv-x="745" d="M-76 -397l371 1855h156l-93 -467q24 30 62 53q53 33 108 33q105 0 156 -80q33 -53 33 -137q0 -92 -47 -330q-46 -229 -79.5 -326.5t-82.5 -144.5q-75 -75 -182 -75q-66 0 -107 32q-32 32 -45 58l-94 -471h-156zM211 227q0 -50 22 -75q23 -29 70 -29q50 0 92 39 q57 54 119 368q43 222 43 295q0 54 -20 80q-26 33 -70 33q-47 0 -88 -35q-50 -43 -66 -129l-96 -487q-6 -30 -6 -60z" />
<glyph unicode="&#xff;" horiz-adv-x="663" d="M-145 -397l28 137q135 3 191 115l71 147l-30 1059h161l-2 -811l318 811h176l-530 -1231q-31 -72 -68.5 -117.5t-87.5 -69t-101.5 -32t-125.5 -8.5zM240 1225l32 164h156l-33 -164h-155zM541 1225l32 164h156l-33 -164h-155z" />
<glyph unicode="&#x152;" horiz-adv-x="1208" d="M61 266q0 110 70 463q68 335 111 461t114 194q98 91 240 91q55 0 100.5 -26t69.5 -67l14 76h535l-31 -149h-364l-101 -498h314l-29 -149h-313l-103 -512h365l-29 -150h-520l12 61q-31 -34 -79.5 -55.5t-104.5 -21.5q-156 0 -221 104q-50 74 -50 178zM229 276 q0 -143 123 -143q74 0 123 55q42 49 76 164t86 377q70 344 70 453q0 143 -123 143q-75 0 -121 -55q-43 -48 -76 -160.5t-88 -380.5q-70 -360 -70 -453z" />
<glyph unicode="&#x153;" horiz-adv-x="1124" d="M37 229q0 99 41 301q42 215 76.5 309.5t87.5 151.5q80 86 217 86q139 0 186 -104q81 104 227 104q129 0 187 -86q37 -55 37 -153q0 -112 -49 -344h-412q-37 -195 -37 -261q0 -51 25 -83q24 -27 67 -27q56 0 92 33q46 43 66 139h156q-19 -84 -43 -134.5t-66 -92.5 q-84 -84 -219 -84q-140 0 -191 102q-76 -102 -221 -102q-141 0 -196 96q-31 57 -31 149zM188 233q0 -49 21 -79q24 -31 70 -31q59 0 96 43q33 36 56.5 115.5t57.5 248.5q46 230 46 297q0 50 -21 80q-24 31 -70 31q-59 0 -96 -43q-33 -36 -57.5 -116.5t-57.5 -248.5 q-45 -225 -45 -297zM662 614h253q29 139 29 213q0 111 -92 111q-57 0 -94 -45q-30 -33 -50 -93.5t-46 -185.5z" />
<glyph unicode="&#x178;" horiz-adv-x="684" d="M154 0l118 600l-77 858h174l30 -631l277 631h184l-424 -878l-114 -580h-168zM315 1583l33 164h156l-33 -164h-156zM616 1583l33 164h156l-33 -164h-156z" />
<glyph unicode="&#x2c6;" d="M250 1194l233 274h125l123 -274h-119l-80 180l-151 -180h-131z" />
<glyph unicode="&#x2dc;" d="M260 1315q50 43 86 60.5t74 17.5q35 0 57 -7.5t53 -27.5q48 -31 84 -31q48 0 97 49l61 -78q-51 -44 -86.5 -61.5t-75.5 -17.5q-58 0 -108 34q-48 31 -86 31q-27 0 -47.5 -11t-49.5 -38z" />
<glyph unicode="&#x2000;" horiz-adv-x="967" />
<glyph unicode="&#x2001;" horiz-adv-x="1935" />
<glyph unicode="&#x2002;" horiz-adv-x="967" />
<glyph unicode="&#x2003;" horiz-adv-x="1935" />
<glyph unicode="&#x2004;" horiz-adv-x="645" />
<glyph unicode="&#x2005;" horiz-adv-x="483" />
<glyph unicode="&#x2006;" horiz-adv-x="322" />
<glyph unicode="&#x2007;" horiz-adv-x="322" />
<glyph unicode="&#x2008;" horiz-adv-x="241" />
<glyph unicode="&#x2009;" horiz-adv-x="387" />
<glyph unicode="&#x200a;" horiz-adv-x="107" />
<glyph unicode="&#x2010;" horiz-adv-x="559" d="M86 504l31 149h379l-31 -149h-379z" />
<glyph unicode="&#x2011;" horiz-adv-x="559" d="M86 504l31 149h379l-31 -149h-379z" />
<glyph unicode="&#x2012;" horiz-adv-x="559" d="M86 504l31 149h379l-31 -149h-379z" />
<glyph unicode="&#x2013;" horiz-adv-x="860" d="M86 504l31 149h680l-31 -149h-680z" />
<glyph unicode="&#x2014;" horiz-adv-x="1318" d="M86 504l31 149h1138l-30 -149h-1139z" />
<glyph unicode="&#x2018;" horiz-adv-x="401" d="M254 1237l43 221l207 141l-72 -362h-178z" />
<glyph unicode="&#x2019;" horiz-adv-x="401" d="M225 1096l72 362h178l-43 -221z" />
<glyph unicode="&#x201a;" horiz-adv-x="401" d="M-20 -139l71 362h178l-43 -221z" />
<glyph unicode="&#x201c;" horiz-adv-x="724" d="M254 1237l43 221l207 141l-72 -362h-178zM578 1237l43 221l206 141l-71 -362h-178z" />
<glyph unicode="&#x201d;" horiz-adv-x="724" d="M225 1096l72 362h178l-43 -221zM549 1096l72 362h178l-43 -221z" />
<glyph unicode="&#x201e;" horiz-adv-x="724" d="M-25 -162l72 363h178l-43 -221zM297 -162l72 363h178l-43 -221z" />
<glyph unicode="&#x2022;" horiz-adv-x="876" d="M152 684q0 130 92 222.5t223 92.5q132 0 224.5 -92t92.5 -223t-92.5 -223t-224.5 -92q-131 0 -223 92.5t-92 222.5z" />
<glyph unicode="&#x2026;" horiz-adv-x="1157" d="M10 0l37 193h189l-37 -193h-189zM379 0l37 193h188l-37 -193h-188zM750 0l36 193h189l-37 -193h-188z" />
<glyph unicode="&#x202f;" horiz-adv-x="387" />
<glyph unicode="&#x2039;" horiz-adv-x="434" d="M57 557l381 471l-53 -262l-182 -221l94 -219l-49 -240z" />
<glyph unicode="&#x203a;" horiz-adv-x="434" d="M8 86l53 262l183 221l-94 219l47 240l192 -471z" />
<glyph unicode="&#x205f;" horiz-adv-x="483" />
<glyph unicode="&#x20ac;" horiz-adv-x="925" d="M72 512l24 125h111l37 184h-111l25 125h112q45 204 83 292.5t96 145.5q97 91 245 91q147 0 217 -89q54 -73 54 -188q0 -38 -9 -96h-165q8 47 8 88q0 135 -117 135q-72 0 -119 -47q-38 -38 -63.5 -104.5t-61.5 -227.5h236l-25 -125h-237l-37 -184h235l-24 -125h-236 q-26 -153 -26 -240q0 -139 120 -139q72 0 119 53q59 62 80 172h170q-23 -107 -58 -177.5t-96 -121.5q-87 -75 -231 -75q-151 0 -219 96q-53 76 -53 192q0 70 28 240h-112z" />
<glyph unicode="&#x2122;" horiz-adv-x="1185" d="M207 571l155 785h-141l21 102h389l-21 -102h-141l-156 -785h-106zM559 571l176 887h101l71 -479l262 479h99l-176 -887h-107l119 596l-197 -370h-69l-52 379l-120 -605h-107z" />
<glyph unicode="&#xfb01;" horiz-adv-x="827" d="M41 0l186 940h-110l22 121h113l20 102q18 88 48 145.5t81 94.5q45 33 98.5 47t143.5 14l-29 -137q-153 0 -188 -170l-18 -96h153l-22 -121h-156l-186 -940h-156zM459 0l211 1061h155l-211 -1061h-155zM696 1247l37 178h174l-37 -178h-174z" />
<glyph unicode="&#xfb02;" horiz-adv-x="899" d="M41 0l186 940h-110l22 121h113l20 102q18 88 48 145.5t81 94.5q45 33 98.5 47t143.5 14l-29 -137q-153 0 -188 -170l-18 -96h153l-22 -121h-156l-186 -940h-156zM510 217q0 35 8 82l232 1159h155l-229 -1149q-6 -37 -6 -65q0 -105 121 -105l-27 -139q-140 0 -203 70 q-51 57 -51 147z" />
</font>
</defs>
</svg>
